<?xml version="1.0" encoding="utf-8"?>
<!-- Generator: Adobe Illustrator 22.1.0, SVG Export Plug-In . SVG Version: 6.00 Build 0)  -->
<svg version="1.1" id="Layer_1" xmlns="http://www.w3.org/2000/svg" xmlns:xlink="http://www.w3.org/1999/xlink" x="0px" y="0px"
	 viewBox="0 0 531 458.9" style="enable-background:new 0 0 531 458.9;" xml:space="preserve">
<g>
	<g>
		<path d="M365.2,138.1c0-7.4,5.4-12.8,12.4-12.8c2.7,0,5,0.6,7.1,1.9v1.9c-2.1-1.3-4.3-2.1-7-2.1c-6,0-10.7,4.7-10.7,11.1
			c0,6.4,4.7,11.1,10.7,11.1c3,0,5.5-0.9,7.5-2.6v1.9c-2,1.5-4.6,2.3-7.6,2.3C370.6,150.8,365.2,145.5,365.2,138.1z"/>
		<path d="M377.6,151.3c-7.4,0-12.9-5.7-12.9-13.3s5.6-13.3,12.9-13.3c2.8,0,5.3,0.7,7.3,2l0.2,0.1v3.1l-0.8-0.5
			c-2.2-1.4-4.3-2-6.7-2c-5.8,0-10.2,4.5-10.2,10.6c0,6,4.4,10.6,10.2,10.6c2.7,0,5.2-0.8,7.2-2.5l0.8-0.6v3.2l-0.2,0.1
			C383.4,150.5,380.7,151.3,377.6,151.3z M377.6,125.8c-6.8,0-11.9,5.3-11.9,12.3s5.1,12.3,11.9,12.3c2.8,0,5.2-0.7,7.1-2v-0.7
			c-2.1,1.4-4.4,2.1-7,2.1c-6.4,0-11.2-5-11.2-11.6s4.8-11.6,11.2-11.6c2.4,0,4.4,0.6,6.5,1.7v-0.7
			C382.3,126.4,380.1,125.8,377.6,125.8z"/>
	</g>
	<g>
		<path d="M390.1,146.9v-21.2h1.7v20.8c0,1.8,0.8,2.7,2.5,2.7c0.7,0,1.2-0.2,1.8-0.5v1.7c-0.7,0.4-1.5,0.5-2.3,0.5
			C392.1,150.8,390.1,150,390.1,146.9z"/>
		<path d="M393.8,151.3c-2.6,0-4.2-1.7-4.2-4.4v-21.7h2.7v21.3c0,1.5,0.6,2.2,2,2.2c0.5,0,1-0.1,1.5-0.4l0.8-0.5v2.8l-0.3,0.1
			C395.7,151.1,394.8,151.3,393.8,151.3z M390.6,126.2v20.7c0,2.9,1.7,3.4,3.2,3.4c0.7,0,1.3-0.1,1.8-0.3v-0.6
			c-0.4,0.1-0.8,0.2-1.3,0.2c-1.9,0-3-1.1-3-3.2v-20.3h-0.7V126.2z"/>
	</g>
	<g>
		<path d="M398.8,142c0-4.7,3.5-8.9,9-8.9s9,4.2,9,8.9s-3.5,8.8-9,8.8S398.8,146.7,398.8,142z M415,142c0-4.1-3.1-7.3-7.2-7.3
			s-7.2,3.2-7.2,7.3s3.1,7.2,7.2,7.2S415,146.1,415,142z"/>
		<path d="M407.8,151.3c-5.4,0-9.5-4-9.5-9.3c0-5.4,4.1-9.4,9.5-9.4s9.5,4,9.5,9.4C417.3,147.3,413.2,151.3,407.8,151.3z
			 M407.8,133.6c-5.5,0-8.5,4.3-8.5,8.4c0,4,3,8.3,8.5,8.3s8.5-4.3,8.5-8.3C416.3,137.9,413.3,133.6,407.8,133.6z M407.8,149.7
			c-4.3,0-7.7-3.4-7.7-7.7c0-4.4,3.3-7.8,7.7-7.8c4.3,0,7.7,3.4,7.7,7.8C415.5,146.3,412.1,149.7,407.8,149.7z M407.8,135.2
			c-3.8,0-6.7,2.9-6.7,6.8c0,3.8,2.9,6.7,6.7,6.7c3.8,0,6.7-3,6.7-6.7C414.5,138.1,411.6,135.2,407.8,135.2z"/>
	</g>
	<g>
		<path d="M420.3,149v-1.8c1.2,0.8,3.8,2,6.9,2c3.2,0,5.3-1.2,5.3-3.2s-2.4-2.7-5.7-3.5c-3.2-0.8-6-1.8-6-4.8c0-2.8,2.3-4.6,6.5-4.6
			c2.2,0,4.6,0.6,6.1,1.6v1.8c-1.5-1-3.7-1.7-6-1.7c-3.4,0-4.9,1.3-4.9,3c0,2.2,2.5,2.7,5.1,3.4c3.2,0.8,6.6,1.6,6.6,5
			c0,3.1-3.1,4.8-7,4.8C424.3,150.8,421.6,149.9,420.3,149z"/>
		<path d="M427.3,151.3c-3.1,0-5.9-0.9-7.3-1.9l-0.2-0.1v-3.1l0.8,0.5c1,0.7,3.6,2,6.7,2c2.3,0,4.8-0.7,4.8-2.7c0-1.6-2-2.2-5.3-3
			c-3.1-0.8-6.4-1.8-6.4-5.3c0-3.2,2.6-5.1,7-5.1c2.3,0,4.8,0.6,6.4,1.6l0.2,0.1v2.9l-0.8-0.5c-1.6-1-3.8-1.7-5.7-1.7
			c-2.8,0-4.4,0.9-4.4,2.5s1.7,2.1,4.6,2.8h0.2c3.1,0.7,7,1.7,7,5.5C434.8,149.2,431.8,151.3,427.3,151.3z M420.8,148.8
			c1.3,0.8,3.7,1.6,6.5,1.6c3.2,0,6.5-1.3,6.5-4.3c0-2.8-2.6-3.6-6.2-4.5h-0.2c-2.6-0.6-5.3-1.3-5.3-3.8c0-0.8,0.4-3.5,5.4-3.5
			c1.8,0,3.8,0.5,5.5,1.4V135c-1.4-0.8-3.6-1.3-5.6-1.3c-3.8,0-6,1.5-6,4.1c0,2.4,2.1,3.5,5.6,4.3c3.1,0.8,6.1,1.5,6.1,4
			c0,2.3-2.2,3.7-5.8,3.7c-2.6,0-4.9-0.8-6.4-1.6v0.6H420.8z"/>
	</g>
	<g>
		<path d="M438.2,142c0-5,3.4-8.9,8.4-8.9c5.9,0,7.8,5.2,7.8,8.6v0.6H440c0.1,4.2,3.3,7,7.7,7c2.2,0,4.1-0.6,5.4-1.6v1.7
			c-1.1,0.8-3.2,1.5-5.7,1.5C442.2,150.8,438.2,147.2,438.2,142z M452.7,140.8c0-2.4-1.6-6.1-6.1-6.1c-4.1,0-6.4,3.2-6.6,6.1H452.7z
			"/>
		<path d="M447.5,151.3c-5.6,0-9.7-3.9-9.7-9.3c0-5.4,3.7-9.4,8.9-9.4c6.6,0,8.3,5.9,8.3,9.1v1.1h-14.4c0.4,3.6,3.2,6,7.2,6
			c2,0,3.7-0.5,5.1-1.5l0.8-0.5v2.9l-0.2,0.1C452.1,150.7,449.8,151.3,447.5,151.3z M446.6,133.6c-4.6,0-7.9,3.5-7.9,8.4
			c0,4.8,3.7,8.3,8.7,8.3c2,0,4-0.5,5.2-1.3v-0.5c-1.4,0.8-3.1,1.2-4.9,1.2c-4.7,0-8.1-3.1-8.2-7.5v-0.5H454v-0.1
			C453.9,138.9,452.4,133.6,446.6,133.6z M453.2,141.3h-13.7v-0.5c0.2-3.2,2.7-6.5,7.1-6.5c4.8,0,6.6,4,6.6,6.6V141.3z M440.6,140.3
			h11.6c-0.2-2.2-1.8-5.1-5.6-5.1C443.1,135.2,441,137.7,440.6,140.3z"/>
	</g>
	<g>
		<path d="M458.3,142c0-4.7,3.4-8.9,8.6-8.9c3.1,0,5.5,1.4,6.9,3.4v-10.8h1.7v24.7h-1.7v-2.9c-1.4,1.9-3.8,3.4-6.9,3.4
			C461.7,150.8,458.3,146.7,458.3,142z M473.8,145.1v-6.2c-1.1-2.3-3.7-4.2-6.6-4.2c-4.1,0-7.2,3.2-7.2,7.3s3.1,7.2,7.2,7.2
			C470.1,149.2,472.6,147.5,473.8,145.1z"/>
		<path d="M466.9,151.3c-5.2,0-9.1-4-9.1-9.3c0-5.4,3.9-9.4,9.1-9.4c2.5,0,4.8,0.9,6.4,2.5v-9.9h2.7v25.7h-2.7v-2.1
			C471.6,150.5,469.4,151.3,466.9,151.3z M466.9,133.6c-5.2,0-8.1,4.3-8.1,8.4c0,4,2.8,8.3,8.1,8.3c2.7,0,5-1.1,6.5-3.1l0.9-1.2v4
			h0.7v-23.7h-0.7v11.8l-0.9-1.2C471.9,134.8,469.6,133.6,466.9,133.6z M467.2,149.7c-4.3,0-7.7-3.4-7.7-7.7c0-4.4,3.3-7.8,7.7-7.8
			c2.9,0,5.7,1.8,7,4.4v0.2v6.5C473,148,470.2,149.7,467.2,149.7z M467.2,135.2c-3.8,0-6.7,2.9-6.7,6.8c0,3.8,2.9,6.7,6.7,6.7
			c2.5,0,5-1.5,6.1-3.7v-6C472.1,136.7,469.7,135.2,467.2,135.2z"/>
	</g>
	<g>
		<path d="M373.1,170.2l-5.8,3.5v-1.8l5.9-3.6h1.6v25H373L373.1,170.2L373.1,170.2z"/>
		<path d="M375.4,193.8h-2.8v-22.7l-5.8,3.5v-3l6.3-3.9h2.3V193.8z M373.6,192.8h0.8v-24h-1l-5.5,3.4v0.6l5.8-3.5L373.6,192.8
			L373.6,192.8z"/>
	</g>
	<g>
		<path d="M386.1,170.2l-5.8,3.5v-1.8l5.9-3.6h1.6v25H386L386.1,170.2L386.1,170.2z"/>
		<path d="M388.4,193.8h-2.8v-22.7l-5.8,3.5v-3l6.3-3.9h2.3V193.8z M386.6,192.8h0.8v-24h-1l-5.5,3.4v0.6l5.8-3.5L386.6,192.8
			L386.6,192.8z"/>
	</g>
	<g>
		<path d="M414.8,182.8h18.3v1.6h-18.3V182.8z"/>
		<path d="M433.6,184.9h-19.3v-2.6h19.3V184.9z M415.3,183.9h17.3v-0.6h-17.3V183.9z"/>
	</g>
	<g>
		<path d="M458.5,182c0-8,4.1-14.2,10.7-14.2c1.9,0,3.8,0.5,5.2,1.5v1.8c-1.6-1-3.3-1.6-5.1-1.6c-6.2,0-9.1,5.9-9.1,12.4
			c1.2-2.4,4-4.5,7.8-4.5c4.4,0,8.1,3.2,8.1,7.9c0,4.9-3.6,8.4-8.4,8.4C462.2,193.7,458.5,189.5,458.5,182z M474.4,185.4
			c0-3.8-3-6.3-6.7-6.3c-3.3,0-6.3,2.4-7.3,5.4c0.5,4.6,2.9,7.5,7.4,7.5C471.5,192,474.4,189.2,474.4,185.4z"/>
		<path d="M467.8,194.2c-6.1,0-9.8-4.7-9.8-12.2c0-8.6,4.6-14.7,11.2-14.7c2,0,4,0.6,5.5,1.6l0.2,0.1v2.9l-0.8-0.5
			c-1.5-1-3.1-1.5-4.8-1.5c-5.6,0-8,5.1-8.5,10.1c1.7-2,4.3-3.2,7.2-3.2c4.9,0,8.6,3.6,8.6,8.4C476.7,190.4,472.9,194.2,467.8,194.2
			z M469.2,168.3c-6,0-10.2,5.6-10.2,13.7c0,7,3.3,11.2,8.8,11.2c4.6,0,7.9-3.3,7.9-7.9c0-4.2-3.3-7.4-7.6-7.4
			c-3.9,0-6.4,2.3-7.3,4.2l-0.9,1.9v-2.1c0-9.5,5.2-12.9,9.6-12.9c1.6,0,3.1,0.4,4.6,1.2v-0.6C472.6,168.8,470.9,168.3,469.2,168.3z
			 M467.8,192.5c-4.5,0-7.3-2.8-7.9-7.9v-0.1v-0.1c1.1-3.3,4.4-5.8,7.7-5.8c4.2,0,7.2,2.8,7.2,6.8
			C474.9,189.4,471.8,192.5,467.8,192.5z M461,184.6c0.4,3.2,1.9,6.9,6.8,6.9c3.5,0,6.1-2.6,6.1-6.1c0-3.3-2.6-5.8-6.2-5.8
			C464.8,179.6,462,181.7,461,184.6z"/>
	</g>
	<g>
		<path d="M373.1,213l-5.8,3.5v-1.8l5.9-3.6h1.6v25H373L373.1,213L373.1,213z"/>
		<path d="M375.4,236.6h-2.8v-22.7l-5.8,3.5v-3l6.3-3.9h2.3V236.6z M373.6,235.6h0.8v-24h-1l-5.5,3.4v0.6l5.8-3.5L373.6,235.6
			L373.6,235.6z"/>
	</g>
	<g>
		<path d="M386.1,213l-5.8,3.5v-1.8l5.9-3.6h1.6v25H386L386.1,213L386.1,213z"/>
		<path d="M388.4,236.6h-2.8v-22.7l-5.8,3.5v-3l6.3-3.9h2.3V236.6z M386.6,235.6h0.8v-24h-1l-5.5,3.4v0.6l5.8-3.5L386.6,235.6
			L386.6,235.6z"/>
	</g>
	<g>
		<path d="M414.8,225.7h18.3v1.6h-18.3V225.7z"/>
		<path d="M433.6,227.8h-19.3v-2.6h19.3V227.8z M415.3,226.8h17.3v-0.6h-17.3V226.8z"/>
	</g>
	<g>
		<path d="M458.5,224.9c0-8,4.1-14.2,10.7-14.2c1.9,0,3.8,0.5,5.2,1.5v1.8c-1.6-1-3.3-1.6-5.1-1.6c-6.2,0-9.1,5.9-9.1,12.4
			c1.2-2.4,4-4.5,7.8-4.5c4.4,0,8.1,3.2,8.1,7.9c0,4.9-3.6,8.4-8.4,8.4C462.2,236.6,458.5,232.4,458.5,224.9z M474.4,228.2
			c0-3.8-3-6.3-6.7-6.3c-3.3,0-6.3,2.4-7.3,5.4c0.5,4.6,2.9,7.5,7.4,7.5C471.5,234.9,474.4,232.1,474.4,228.2z"/>
		<path d="M467.8,237.1c-6.1,0-9.8-4.7-9.8-12.2c0-8.6,4.6-14.7,11.2-14.7c2,0,4,0.6,5.5,1.6l0.2,0.1v2.9l-0.8-0.5
			c-1.5-1-3.1-1.5-4.8-1.5c-5.6,0-8,5.1-8.5,10.1c1.7-2,4.3-3.2,7.2-3.2c4.9,0,8.6,3.6,8.6,8.4C476.7,233.2,472.9,237.1,467.8,237.1
			z M469.2,211.2c-6,0-10.2,5.6-10.2,13.7c0,7,3.3,11.2,8.8,11.2c4.6,0,7.9-3.3,7.9-7.9c0-4.2-3.3-7.4-7.6-7.4
			c-3.9,0-6.4,2.3-7.3,4.2l-0.9,1.9v-2.1c0-9.5,5.2-12.9,9.6-12.9c1.6,0,3.1,0.4,4.6,1.2v-0.6C472.6,211.7,470.9,211.2,469.2,211.2z
			 M467.8,235.4c-4.5,0-7.3-2.8-7.9-7.9v-0.1v-0.1c1.1-3.3,4.4-5.8,7.7-5.8c4.2,0,7.2,2.8,7.2,6.8
			C474.9,232.2,471.8,235.4,467.8,235.4z M461,227.5c0.4,3.2,1.9,6.9,6.8,6.9c3.5,0,6.1-2.6,6.1-6.1c0-3.3-2.6-5.8-6.2-5.8
			C464.8,222.5,462,224.6,461,227.5z"/>
	</g>
	<g>
		<path d="M373.1,255.9l-5.8,3.5v-1.8l5.9-3.6h1.6v25H373L373.1,255.9L373.1,255.9z"/>
		<path d="M375.4,279.5h-2.8v-22.7l-5.8,3.5v-3l6.3-3.9h2.3V279.5z M373.6,278.5h0.8v-24h-1l-5.5,3.4v0.6l5.8-3.5L373.6,278.5
			L373.6,278.5z"/>
	</g>
	<g>
		<path d="M386.1,255.9l-5.8,3.5v-1.8l5.9-3.6h1.6v25H386L386.1,255.9L386.1,255.9z"/>
		<path d="M388.4,279.5h-2.8v-22.7l-5.8,3.5v-3l6.3-3.9h2.3V279.5z M386.6,278.5h0.8v-24h-1l-5.5,3.4v0.6l5.8-3.5L386.6,278.5
			L386.6,278.5z"/>
	</g>
	<g>
		<path d="M414.8,268.6h18.3v1.6h-18.3V268.6z"/>
		<path d="M433.6,270.7h-19.3v-2.6h19.3V270.7z M415.3,269.7h17.3v-0.6h-17.3V269.7z"/>
	</g>
	<g>
		<path d="M458.5,267.7c0-8,4.1-14.2,10.7-14.2c1.9,0,3.8,0.5,5.2,1.5v1.8c-1.6-1-3.3-1.6-5.1-1.6c-6.2,0-9.1,5.9-9.1,12.4
			c1.2-2.4,4-4.5,7.8-4.5c4.4,0,8.1,3.2,8.1,7.9c0,4.9-3.6,8.4-8.4,8.4C462.2,279.4,458.5,275.2,458.5,267.7z M474.4,271.1
			c0-3.8-3-6.3-6.7-6.3c-3.3,0-6.3,2.4-7.3,5.4c0.5,4.6,2.9,7.5,7.4,7.5C471.5,277.7,474.4,274.9,474.4,271.1z"/>
		<path d="M467.8,279.9c-6.1,0-9.8-4.7-9.8-12.2c0-8.6,4.6-14.7,11.2-14.7c2,0,4,0.6,5.5,1.6l0.2,0.1v2.9l-0.8-0.5
			c-1.5-1-3.1-1.5-4.8-1.5c-5.6,0-8,5.1-8.5,10.1c1.7-2,4.3-3.2,7.2-3.2c4.9,0,8.6,3.6,8.6,8.4C476.7,276.1,472.9,279.9,467.8,279.9
			z M469.2,254.1c-6,0-10.2,5.6-10.2,13.7c0,7,3.3,11.2,8.8,11.2c4.6,0,7.9-3.3,7.9-7.9c0-4.2-3.3-7.4-7.6-7.4
			c-3.9,0-6.4,2.3-7.3,4.2l-0.9,1.9v-2.1c0-9.5,5.2-12.9,9.6-12.9c1.6,0,3.1,0.4,4.6,1.2v-0.6C472.6,254.5,470.9,254.1,469.2,254.1z
			 M467.8,278.2c-4.5,0-7.3-2.8-7.9-7.9v-0.1v-0.1c1.1-3.3,4.4-5.8,7.7-5.8c4.2,0,7.2,2.8,7.2,6.8
			C474.9,275.1,471.8,278.2,467.8,278.2z M461,270.3c0.4,3.2,1.9,6.9,6.8,6.9c3.5,0,6.1-2.6,6.1-6.1c0-3.3-2.6-5.8-6.2-5.8
			C464.8,265.3,462,267.4,461,270.3z"/>
	</g>
	<g>
		<path d="M373.1,298.8l-5.8,3.5v-1.8l5.9-3.6h1.6v25H373L373.1,298.8L373.1,298.8z"/>
		<path d="M375.4,322.3h-2.8v-22.7l-5.8,3.5v-3l6.3-3.9h2.3V322.3z M373.6,321.3h0.8v-24h-1l-5.5,3.4v0.6l5.8-3.5L373.6,321.3
			L373.6,321.3z"/>
	</g>
	<g>
		<path d="M386.1,298.8l-5.8,3.5v-1.8l5.9-3.6h1.6v25H386L386.1,298.8L386.1,298.8z"/>
		<path d="M388.4,322.3h-2.8v-22.7l-5.8,3.5v-3l6.3-3.9h2.3V322.3z M386.6,321.3h0.8v-24h-1l-5.5,3.4v0.6l5.8-3.5L386.6,321.3
			L386.6,321.3z"/>
	</g>
	<g>
		<path d="M414.8,311.4h18.3v1.6h-18.3V311.4z"/>
		<path d="M433.6,313.5h-19.3v-2.6h19.3V313.5z M415.3,312.5h17.3v-0.6h-17.3V312.5z"/>
	</g>
	<g>
		<path d="M458.5,310.6c0-8,4.1-14.2,10.7-14.2c1.9,0,3.8,0.5,5.2,1.5v1.8c-1.6-1-3.3-1.6-5.1-1.6c-6.2,0-9.1,5.9-9.1,12.4
			c1.2-2.4,4-4.5,7.8-4.5c4.4,0,8.1,3.2,8.1,7.9c0,4.9-3.6,8.4-8.4,8.4C462.2,322.3,458.5,318.1,458.5,310.6z M474.4,313.9
			c0-3.8-3-6.3-6.7-6.3c-3.3,0-6.3,2.4-7.3,5.4c0.5,4.6,2.9,7.5,7.4,7.5C471.5,320.6,474.4,317.8,474.4,313.9z"/>
		<path d="M467.8,322.8c-6.1,0-9.8-4.7-9.8-12.2c0-8.6,4.6-14.7,11.2-14.7c2,0,4,0.6,5.5,1.6l0.2,0.1v2.9l-0.8-0.5
			c-1.5-1-3.1-1.5-4.8-1.5c-5.6,0-8,5.1-8.5,10.1c1.7-2,4.3-3.2,7.2-3.2c4.9,0,8.6,3.6,8.6,8.4C476.7,319,472.9,322.8,467.8,322.8z
			 M469.2,296.9c-6,0-10.2,5.6-10.2,13.7c0,7,3.3,11.2,8.8,11.2c4.6,0,7.9-3.3,7.9-7.9c0-4.2-3.3-7.4-7.6-7.4
			c-3.9,0-6.4,2.3-7.3,4.2l-0.9,1.9v-2.1c0-9.5,5.2-12.9,9.6-12.9c1.6,0,3.1,0.4,4.6,1.2v-0.6C472.6,297.4,470.9,296.9,469.2,296.9z
			 M467.8,321.1c-4.5,0-7.3-2.8-7.9-7.9v-0.1V313c1.1-3.3,4.4-5.8,7.7-5.8c4.2,0,7.2,2.8,7.2,6.8C474.9,318,471.8,321.1,467.8,321.1
			z M461,313.2c0.4,3.2,1.9,6.9,6.8,6.9c3.5,0,6.1-2.6,6.1-6.1c0-3.3-2.6-5.8-6.2-5.8C464.8,308.2,462,310.3,461,313.2z"/>
	</g>
	<g>
		<path d="M373.1,341.6l-5.8,3.5v-1.8l5.9-3.6h1.6v25H373L373.1,341.6L373.1,341.6z"/>
		<path d="M375.4,365.2h-2.8v-22.7l-5.8,3.5v-3l6.3-3.9h2.3V365.2z M373.6,364.2h0.8v-24h-1l-5.5,3.4v0.6l5.8-3.5L373.6,364.2
			L373.6,364.2z"/>
	</g>
	<g>
		<path d="M386.1,341.6l-5.8,3.5v-1.8l5.9-3.6h1.6v25H386L386.1,341.6L386.1,341.6z"/>
		<path d="M388.4,365.2h-2.8v-22.7l-5.8,3.5v-3l6.3-3.9h2.3V365.2z M386.6,364.2h0.8v-24h-1l-5.5,3.4v0.6l5.8-3.5L386.6,364.2
			L386.6,364.2z"/>
	</g>
	<g>
		<path d="M414.8,354.3h18.3v1.6h-18.3V354.3z"/>
		<path d="M433.6,356.4h-19.3v-2.6h19.3V356.4z M415.3,355.4h17.3v-0.6h-17.3V355.4z"/>
	</g>
	<g>
		<path d="M458.5,353.5c0-8,4.1-14.2,10.7-14.2c1.9,0,3.8,0.5,5.2,1.5v1.8c-1.6-1-3.3-1.6-5.1-1.6c-6.2,0-9.1,5.9-9.1,12.4
			c1.2-2.4,4-4.5,7.8-4.5c4.4,0,8.1,3.2,8.1,7.9c0,4.9-3.6,8.4-8.4,8.4C462.2,365.1,458.5,361,458.5,353.5z M474.4,356.8
			c0-3.8-3-6.3-6.7-6.3c-3.3,0-6.3,2.4-7.3,5.4c0.5,4.6,2.9,7.5,7.4,7.5C471.5,363.5,474.4,360.7,474.4,356.8z"/>
		<path d="M467.8,365.6c-6.1,0-9.8-4.7-9.8-12.2c0-8.6,4.6-14.7,11.2-14.7c2,0,4,0.6,5.5,1.6l0.2,0.1v2.9l-0.8-0.5
			c-1.5-1-3.1-1.5-4.8-1.5c-5.6,0-8,5.1-8.5,10.1c1.7-2,4.3-3.2,7.2-3.2c4.9,0,8.6,3.6,8.6,8.4C476.7,361.8,472.9,365.6,467.8,365.6
			z M469.2,339.8c-6,0-10.2,5.6-10.2,13.7c0,7,3.3,11.2,8.8,11.2c4.6,0,7.9-3.3,7.9-7.9c0-4.2-3.3-7.4-7.6-7.4
			c-3.9,0-6.4,2.3-7.3,4.2l-0.9,1.9v-2.1c0-9.5,5.2-12.9,9.6-12.9c1.6,0,3.1,0.4,4.6,1.2v-0.6C472.6,340.2,470.9,339.8,469.2,339.8z
			 M467.8,364c-4.5,0-7.3-2.8-7.9-7.9V356v-0.1c1.1-3.3,4.4-5.8,7.7-5.8c4.2,0,7.2,2.8,7.2,6.8C474.9,360.8,471.8,364,467.8,364z
			 M461,356c0.4,3.2,1.9,6.9,6.8,6.9c3.5,0,6.1-2.6,6.1-6.1c0-3.3-2.6-5.8-6.2-5.8C464.8,351.1,462,353.1,461,356z"/>
	</g>
	<g>
		<path d="M371,384.5l-5.8,3.5v-1.8l5.9-3.6h1.6v25H371V384.5z"/>
		<path d="M373.3,408.1h-2.8v-22.7l-5.8,3.5v-3l6.3-3.9h2.3V408.1z M371.5,407.1h0.8v-24h-1l-5.5,3.4v0.6l5.8-3.5L371.5,407.1
			L371.5,407.1z"/>
	</g>
	<g>
		<path d="M378.6,406.2l8.8-8.5c3.3-3.2,5.2-5.3,5.2-8.5s-2.4-5.4-6.1-5.4c-3.3,0-5.5,1.6-7.3,3.5v-2.2c1.6-1.6,4-3,7.5-3
			c4.5,0,7.8,2.8,7.8,7c0,3.5-1.8,5.9-5.5,9.5l-7.6,7.4h14.1v1.6h-16.8L378.6,406.2z"/>
		<path d="M395.8,408.1H378l0.1-2.1l8.9-8.6c3.4-3.3,5.1-5.2,5.1-8.1c0-3-2.2-4.9-5.6-4.9s-5.5,1.8-7,3.3l-0.9,0.9V385l0.1-0.1
			c2.1-2.1,4.8-3.2,7.9-3.2c4.9,0,8.3,3.1,8.3,7.5c0,3.7-1.8,6.1-5.7,9.8l-6.7,6.5h13.4L395.8,408.1L395.8,408.1z M379,407.1h15.8
			v-0.6H380l8.5-8.2c3.7-3.6,5.4-5.8,5.4-9.1c0-3.8-3-6.5-7.3-6.5c-2.8,0-5.1,0.9-7,2.7v0.8c1.6-1.4,3.7-2.8,6.8-2.8
			c4,0,6.6,2.4,6.6,5.9c0,3.4-2,5.6-5.4,8.8l-8.6,8.3V407.1z"/>
	</g>
	<g>
		<path d="M416.3,397.1h18.3v1.6h-18.3V397.1z"/>
		<path d="M435.1,399.2h-19.3v-2.6h19.3V399.2z M416.8,398.2h17.3v-0.6h-17.3V398.2z"/>
	</g>
	<g>
		<path d="M459.7,406.3v-1.9c1.6,1,3.9,1.8,6.8,1.8c4.6,0,8-2.8,8-6.5c0-3.5-3-6.2-7.7-6.2c-2.1,0-4.1,0.3-6,1l1.6-12.1h12.1v1.6
			h-10.7l-1.1,8.3c1.2-0.4,2.5-0.5,4.5-0.5c5.1,0,9.1,3.3,9.1,7.9c0,4.8-4.2,8.2-9.7,8.2C463.7,408,461.4,407.3,459.7,406.3z"/>
		<path d="M466.5,408.5c-2.7,0-5.1-0.6-7.1-1.7l-0.3-0.1v-3l0.8,0.5c1.1,0.7,3.3,1.7,6.6,1.7c4.3,0,7.5-2.5,7.5-6
			c0-3.3-3-5.7-7.2-5.7c-2.1,0-4.1,0.3-5.8,1l-0.8,0.3l1.8-13.3h13v2.6h-10.7l-1,7.1c1.1-0.3,2.2-0.4,3.9-0.4c5.5,0,9.6,3.6,9.6,8.4
			C476.7,404.8,472.4,408.5,466.5,408.5z M460.2,406.1c1.8,1,3.9,1.4,6.4,1.4c5.3,0,9.2-3.2,9.2-7.7c0-4.3-3.6-7.4-8.6-7.4
			c-2,0-3.2,0.1-4.4,0.5l-0.8,0.2l1.3-9.5H474V383h-11.1l-1.5,10.8c1.7-0.5,3.5-0.8,5.4-0.8c4.8,0,8.2,2.7,8.2,6.7s-3.6,7-8.5,7
			c-2.8,0-5-0.8-6.3-1.5V406.1z"/>
	</g>
</g>
<g>
	<g>
		<path d="M55.4,125.7h1.8l9.6,12.6l9.6-12.6h1.8v25h-1.8v-22.3l-9,11.9h-1.1l-9.1-11.9v22.3h-1.8V125.7z"/>
		<path d="M78.6,151.2h-2.8V130l-8.3,10.9H66L57.7,130v21.3h-2.8v-26h2.6l9.4,12.3l9.4-12.3h2.5v25.9H78.6z M76.9,150.2h0.8v-24h-1
			l-9.9,13l-9.9-13h-1.1v24h0.8V127l9.8,12.8H67l9.7-12.8v23.2H76.9z"/>
	</g>
	<g>
		<path d="M83.8,142.2c0-4.8,3.6-9,9.1-9s9.1,4.3,9.1,9s-3.6,8.9-9.1,8.9C87.4,151.1,83.8,146.9,83.8,142.2z M100.2,142.2
			c0-4.2-3.2-7.4-7.3-7.4s-7.3,3.2-7.3,7.4c0,4.1,3.1,7.3,7.3,7.3S100.2,146.3,100.2,142.2z"/>
		<path d="M92.9,151.6c-5.5,0-9.6-4.1-9.6-9.4c0-5.4,4.1-9.5,9.6-9.5s9.6,4.1,9.6,9.5S98.4,151.6,92.9,151.6z M92.9,133.7
			c-5.6,0-8.6,4.4-8.6,8.5s3,8.4,8.6,8.4s8.6-4.3,8.6-8.4S98.5,133.7,92.9,133.7z M92.9,150c-4.4,0-7.8-3.4-7.8-7.8
			c0-4.5,3.3-7.9,7.8-7.9c4.4,0,7.8,3.5,7.8,7.9C100.7,146.6,97.3,150,92.9,150z M92.9,135.3c-3.9,0-6.8,3-6.8,6.9s2.9,6.8,6.8,6.8
			c3.8,0,6.8-3,6.8-6.8C99.7,138.3,96.8,135.3,92.9,135.3z"/>
	</g>
	<g>
		<path d="M107.1,150.7v-17.1h1.8v2.9c1.3-1.6,3.9-3.4,7.2-3.4c4.4,0,6.6,2.6,6.6,7.1v10.4h-1.8v-10c0-5-3.2-5.8-5.4-5.8
			c-2.8,0-5.5,2-6.7,3.9v12L107.1,150.7L107.1,150.7z"/>
		<path d="M123.2,151.2h-2.8v-10.5c0-3.5-1.6-5.3-4.9-5.3c-2.5,0-5.1,1.8-6.2,3.5v12.3h-2.8v-18.1h2.8v2.2c1.2-1.1,3.4-2.6,6.7-2.6
			c4.6,0,7.1,2.7,7.1,7.6L123.2,151.2L123.2,151.2z M121.4,150.2h0.8v-9.9c0-3-1.1-6.6-6.1-6.6c-4,0-6.2,2.4-6.8,3.2l-0.9,1.1v-3.8
			h-0.8v16.1h0.8v-11.6l0.1-0.1c1.2-2,4.1-4.1,7.1-4.1c2.2,0,5.9,0.8,5.9,6.3v9.4H121.4z"/>
	</g>
	<g>
		<path d="M127.5,142.2c0-4.8,3.4-9,8.7-9c3.2,0,5.6,1.5,7,3.4v-10.9h1.8v25h-1.8v-3c-1.4,2-3.8,3.4-7,3.4
			C130.9,151.1,127.5,146.9,127.5,142.2z M143.1,145.4V139c-1.1-2.4-3.7-4.2-6.6-4.2c-4.1,0-7.3,3.2-7.3,7.4c0,4.1,3.1,7.3,7.3,7.3
			C139.4,149.5,142,147.8,143.1,145.4z"/>
		<path d="M136.1,151.6c-5.2,0-9.2-4.1-9.2-9.4c0-5.4,3.9-9.5,9.2-9.5c2.5,0,4.8,0.9,6.5,2.6v-10.1h2.8v26h-2.8v-2.1
			C141,150.8,138.7,151.6,136.1,151.6z M136.1,133.7c-5.3,0-8.2,4.4-8.2,8.5s2.9,8.4,8.2,8.4c2.8,0,5.1-1.1,6.6-3.2l0.9-1.2v4h0.8
			v-24h-0.8v12l-0.9-1.2C141.2,134.9,138.9,133.7,136.1,133.7z M136.5,150c-4.3,0-7.8-3.4-7.8-7.8c0-4.5,3.3-7.9,7.8-7.9
			c2.9,0,5.8,1.8,7.1,4.5l0.1,0.1v6.7C142.3,148.2,139.5,150,136.5,150z M136.5,135.3c-3.8,0-6.8,3-6.8,6.9s2.9,6.8,6.8,6.8
			c2.6,0,5-1.5,6.1-3.8v-6.1C141.5,136.9,139,135.3,136.5,135.3z"/>
	</g>
	<g>
		<path d="M149.8,145.5c0-3.4,3.1-5.6,7.1-5.6c3.1,0,5.3,1,6.6,1.8v-2.2c0-3.4-2.4-4.8-6-4.8c-2.4,0-4.6,1-5.8,1.8v-1.8
			c1.1-0.8,3.2-1.7,6.1-1.7c4.2,0,7.4,1.9,7.4,6.3v7.5c0,1.5,0.7,2.4,1.8,2.4c0.4,0,0.7-0.1,1-0.2v1.4c-0.4,0.2-0.9,0.3-1.4,0.3
			c-1.4,0-2.8-0.8-3-2.9c-1.5,1.7-3.9,3.2-7.3,3.2C153.1,151.1,149.8,149.3,149.8,145.5z M163.5,146.2v-2.8
			c-1.2-0.8-3.5-1.9-6.1-1.9c-3.6,0-5.7,1.6-5.7,4c0,2.9,2.6,4,5.3,4C159.9,149.5,162.3,147.8,163.5,146.2z"/>
		<path d="M156.4,151.6c-3.4,0-7.1-1.9-7.1-6.1c0-3.6,3.1-6.1,7.6-6.1c2.2,0,4.2,0.5,6.1,1.5v-1.3c0-2.8-1.9-4.3-5.5-4.3
			c-2.8,0-4.9,1.3-5.5,1.7l-0.8,0.5v-3l0.2-0.1c1-0.7,3.2-1.8,6.3-1.8c5,0,7.9,2.5,7.9,6.8v7.5c0,1.2,0.5,1.9,1.3,1.9
			c0.3,0,0.6-0.1,0.8-0.2l0.7-0.4v2.5l-0.2,0.1c-0.5,0.3-1.1,0.4-1.7,0.4c-1.3,0-2.8-0.6-3.3-2.4
			C161.5,150.7,159.1,151.6,156.4,151.6z M156.9,140.5c-3.9,0-6.6,2.1-6.6,5.1c0,3.5,3.1,5.1,6.1,5.1c2.8,0,5.1-1,6.9-3l0.8-0.9
			l0.1,1.2c0.2,2.3,1.9,2.5,2.5,2.5c0.3,0,0.7,0,0.9-0.1V150c-0.2,0-0.3,0-0.5,0c-1.4,0-2.3-1.1-2.3-2.9v-7.5c0-5-4.3-5.8-6.9-5.8
			c-2.7,0-4.6,0.9-5.6,1.5v0.6c1.1-0.6,3-1.4,5.3-1.4c4.2,0,6.5,1.9,6.5,5.3v3.1l-0.8-0.5C161.3,141,159.2,140.5,156.9,140.5z
			 M156.9,150c-3.5,0-5.8-1.8-5.8-4.5c0-2.8,2.4-4.5,6.2-4.5c3.2,0,5.7,1.5,6.4,2l0.2,0.1v3.2l-0.1,0.1
			C162.6,148.2,160.1,150,156.9,150z M157.4,142c-3.3,0-5.2,1.3-5.2,3.5c0,2.6,2.5,3.5,4.8,3.5c2.7,0,4.9-1.5,6.1-3v-2.3
			C161.7,142.9,159.5,142,157.4,142z"/>
	</g>
	<g>
		<path d="M170.4,157.5v-1.6c0.7,0.4,1.4,0.6,2.3,0.6c2.4,0,3.6-2.1,5.4-6l-7.9-16.8h2l6.8,14.6l6.6-14.6h1.9l-8.6,19
			c-1.5,3.3-3.1,5.4-5.9,5.4C171.9,158,170.9,157.9,170.4,157.5z"/>
		<path d="M172.9,158.5c-1.2,0-2.2-0.2-2.8-0.6l-0.2-0.1V155l0.8,0.4c0.6,0.3,1.2,0.5,2,0.5c2,0,3.1-1.6,4.8-5.5l-8.1-17.3h3.1
			L179,147l6.3-13.9h3l-8.9,19.7C177.9,155.6,176.2,158.5,172.9,158.5z M170.9,157.2c0.4,0.2,1.1,0.3,2,0.3c2.2,0,3.8-1.5,5.4-5.1
			l8.3-18.3h-0.8l-6.9,15.4l-7.1-15.4h-0.9l7.7,16.2l-0.1,0.2c-1.7,3.8-3,6.3-5.8,6.3c-0.7,0-1.2-0.1-1.8-0.3L170.9,157.2
			L170.9,157.2z"/>
	</g>
	<g>
		<path d="M61.9,170.2H53v-1.6h19.6v1.6h-8.9v23.4h-1.8C61.9,193.6,61.9,170.2,61.9,170.2z"/>
		<path d="M64.1,194.1h-2.8v-23.4h-8.9v-2.6H73v2.6h-8.9C64.1,170.7,64.1,194.1,64.1,194.1z M62.4,193.1h0.8v-23.4h8.9v-0.6H53.4
			v0.6h8.9L62.4,193.1L62.4,193.1z"/>
	</g>
	<g>
		<path d="M87.8,176.5v17.1H86v-2.9c-1.3,1.6-3.9,3.4-7.2,3.4c-4.4,0-6.6-2.6-6.6-7.1v-10.4H74v10c0,5,3.1,5.8,5.4,5.8
			c2.7,0,5.5-2,6.7-3.9v-12L87.8,176.5L87.8,176.5z"/>
		<path d="M78.9,194.5c-4.6,0-7.1-2.7-7.1-7.6V176h2.8v10.5c0,3.6,1.6,5.3,4.9,5.3c2.4,0,5-1.8,6.2-3.5V176h2.8v18.1h-2.8v-2.2
			C84.4,193,82.1,194.5,78.9,194.5z M72.7,177v9.9c0,3,1.1,6.6,6.1,6.6c4,0,6.2-2.4,6.8-3.2l0.9-1.1v3.8h0.8v-16h-0.8v11.6l-0.1,0.1
			c-1.2,2-4.2,4.1-7.1,4.1c-3.9,0-5.9-2.2-5.9-6.3V177H72.7z"/>
	</g>
	<g>
		<path d="M93,185.1c0-5.1,3.5-9,8.5-9c6,0,7.9,5.3,7.9,8.7v0.6H94.8c0.1,4.2,3.3,7.1,7.8,7.1c2.3,0,4.1-0.6,5.5-1.6v1.7
			c-1.1,0.9-3.3,1.5-5.8,1.5C97,194,93,190.3,93,185.1z M107.6,183.8c0-2.4-1.6-6.1-6.2-6.1c-4.1,0-6.5,3.2-6.7,6.1H107.6z"/>
		<path d="M102.3,194.5c-5.7,0-9.8-4-9.8-9.4c0-5.5,3.8-9.5,9-9.5c6.6,0,8.4,6,8.4,9.2v1.1H95.3c0.4,3.7,3.2,6.1,7.3,6.1
			c2,0,3.8-0.5,5.2-1.5l0.8-0.5v2.9l-0.2,0.1C107,193.9,104.7,194.5,102.3,194.5z M101.5,176.6c-4.6,0-8,3.6-8,8.5s3.7,8.4,8.8,8.4
			c2,0,4.1-0.5,5.3-1.3v-0.5c-1.5,0.8-3.2,1.2-5,1.2c-4.7,0-8.2-3.1-8.3-7.6v-0.5H109v-0.1C108.9,181.9,107.3,176.6,101.5,176.6z
			 M108.1,184.3H94.2v-0.5c0.2-3.2,2.8-6.6,7.2-6.6c4.9,0,6.7,4.1,6.7,6.6V184.3z M95.3,183.3h11.8c-0.2-2.2-1.8-5.1-5.7-5.1
			C97.9,178.2,95.7,180.7,95.3,183.3z"/>
	</g>
	<g>
		<path d="M113,192.2v-1.9c1.2,0.8,3.9,2.1,7,2.1c3.3,0,5.4-1.2,5.4-3.3c0-2-2.4-2.7-5.8-3.5c-3.2-0.8-6.1-1.8-6.1-4.9
			c0-2.8,2.3-4.6,6.6-4.6c2.2,0,4.7,0.6,6.2,1.6v1.8c-1.5-1-3.8-1.8-6.1-1.8c-3.5,0-5,1.3-5,3c0,2.2,2.6,2.8,5.2,3.4
			c3.3,0.8,6.7,1.6,6.7,5c0,3.1-3.2,4.9-7.1,4.9C117,194,114.3,193.1,113,192.2z"/>
		<path d="M120.1,194.5c-3.2,0-6-1-7.4-1.9l-0.2-0.1v-3.1l0.8,0.5c1.1,0.7,3.7,2,6.8,2c2.3,0,4.9-0.7,4.9-2.8c0-1.6-2-2.2-5.4-3.1
			c-3.1-0.8-6.5-1.9-6.5-5.3c0-3.2,2.7-5.1,7.1-5.1c2.4,0,4.9,0.6,6.5,1.7l0.2,0.1v3l-0.8-0.5c-1.7-1-3.8-1.7-5.8-1.7
			c-2.8,0-4.5,0.9-4.5,2.5s1.8,2.2,4.6,2.9h0.2c3.1,0.8,7.1,1.7,7.1,5.5C127.7,192.4,124.6,194.5,120.1,194.5z M113.5,191.9
			c1.3,0.8,3.8,1.6,6.6,1.6c3.3,0,6.6-1.3,6.6-4.4c0-2.8-2.6-3.7-6.3-4.6h-0.2c-2.7-0.6-5.4-1.3-5.4-3.8c0-0.8,0.4-3.5,5.5-3.5
			c1.9,0,3.9,0.5,5.6,1.4V178c-1.4-0.8-3.6-1.4-5.7-1.4c-3.9,0-6.1,1.5-6.1,4.1c0,2.5,2.2,3.5,5.7,4.4c3.2,0.8,6.2,1.5,6.2,4
			c0,2.3-2.2,3.8-5.9,3.8c-2.6,0-5-0.8-6.5-1.7v0.7H113.5z"/>
	</g>
	<g>
		<path d="M131.1,185.1c0-4.8,3.4-9,8.7-9c3.2,0,5.6,1.5,7,3.4v-10.9h1.8v25h-1.8v-3c-1.4,2-3.8,3.4-7,3.4
			C134.6,194,131.1,189.8,131.1,185.1z M146.8,188.2v-6.3c-1.1-2.4-3.7-4.2-6.6-4.2c-4.1,0-7.3,3.2-7.3,7.4c0,4.1,3.1,7.3,7.3,7.3
			C143.1,192.4,145.7,190.6,146.8,188.2z"/>
		<path d="M139.8,194.5c-5.2,0-9.2-4.1-9.2-9.4c0-5.4,3.9-9.5,9.2-9.5c2.5,0,4.8,0.9,6.5,2.6v-10.1h2.8v26h-2.8V192
			C144.7,193.6,142.4,194.5,139.8,194.5z M139.8,176.6c-5.3,0-8.2,4.4-8.2,8.5s2.9,8.4,8.2,8.4c2.8,0,5.1-1.1,6.6-3.2l0.9-1.2v4h0.8
			v-24h-0.8v12l-0.9-1.2C144.9,177.7,142.6,176.6,139.8,176.6z M140.2,192.9c-4.3,0-7.8-3.4-7.8-7.8c0-4.5,3.3-7.9,7.8-7.9
			c2.9,0,5.8,1.8,7.1,4.5l0.1,0.1v6.7C146,191.1,143.2,192.9,140.2,192.9z M140.2,178.2c-3.8,0-6.8,3-6.8,6.9s2.9,6.8,6.8,6.8
			c2.6,0,5-1.5,6.1-3.8V182C145.2,179.7,142.7,178.2,140.2,178.2z"/>
	</g>
	<g>
		<path d="M153.5,188.4c0-3.4,3.1-5.6,7.1-5.6c3.1,0,5.3,1,6.6,1.8v-2.2c0-3.4-2.4-4.8-6-4.8c-2.4,0-4.6,1-5.8,1.8v-1.8
			c1.1-0.8,3.2-1.7,6.1-1.7c4.2,0,7.4,1.9,7.4,6.3v7.5c0,1.5,0.7,2.4,1.8,2.4c0.4,0,0.7-0.1,1-0.2v1.4c-0.4,0.2-0.9,0.3-1.4,0.3
			c-1.4,0-2.8-0.8-3-2.9c-1.5,1.7-3.9,3.2-7.3,3.2C156.7,194,153.5,192.1,153.5,188.4z M167.2,189.1v-2.8c-1.2-0.8-3.5-1.9-6.1-1.9
			c-3.6,0-5.7,1.6-5.7,4c0,2.9,2.6,4,5.3,4C163.6,192.4,166,190.6,167.2,189.1z"/>
		<path d="M160.1,194.5c-3.4,0-7.1-1.9-7.1-6.1c0-3.6,3.1-6.1,7.6-6.1c2.2,0,4.2,0.5,6.1,1.5v-1.3c0-2.8-1.9-4.3-5.5-4.3
			c-2.8,0-4.9,1.3-5.5,1.7l-0.8,0.5v-3l0.2-0.1c1-0.7,3.2-1.8,6.3-1.8c5,0,7.9,2.5,7.9,6.8v7.5c0,1.2,0.5,1.9,1.3,1.9
			c0.3,0,0.6-0.1,0.8-0.2l0.7-0.4v2.5l-0.2,0.1c-0.5,0.3-1.1,0.4-1.7,0.4c-1.3,0-2.8-0.6-3.3-2.4
			C165.1,193.6,162.8,194.5,160.1,194.5z M160.6,183.3c-3.9,0-6.6,2.1-6.6,5.1c0,3.5,3.1,5.1,6.1,5.1c2.8,0,5.1-1,6.9-3l0.8-0.9
			l0.1,1.2c0.2,2.3,1.9,2.5,2.5,2.5c0.3,0,0.7,0,0.9-0.1v-0.4c-0.2,0-0.3,0-0.5,0c-1.4,0-2.3-1.1-2.3-2.9v-7.5c0-5-4.3-5.8-6.9-5.8
			c-2.7,0-4.6,0.9-5.6,1.5v0.6c1.1-0.6,3-1.4,5.3-1.4c4.2,0,6.5,1.9,6.5,5.3v3.1l-0.8-0.5C165,183.9,162.9,183.3,160.6,183.3z
			 M160.6,192.9c-3.5,0-5.8-1.8-5.8-4.5c0-2.8,2.4-4.5,6.2-4.5c3.2,0,5.7,1.5,6.4,2l0.2,0.1v3.2l-0.1,0.1
			C166.3,191.1,163.7,192.9,160.6,192.9z M161,184.9c-3.3,0-5.2,1.3-5.2,3.5c0,2.6,2.5,3.5,4.8,3.5c2.7,0,4.9-1.5,6.1-3v-2.3
			C165.3,185.7,163.2,184.9,161,184.9z"/>
	</g>
	<g>
		<path d="M174,200.3v-1.6c0.7,0.4,1.4,0.6,2.3,0.6c2.4,0,3.6-2.1,5.4-6l-7.9-16.8h2l6.8,14.6l6.6-14.6h1.9l-8.6,19
			c-1.5,3.3-3.1,5.4-5.9,5.4C175.5,200.9,174.6,200.7,174,200.3z"/>
		<path d="M176.5,201.4c-1.2,0-2.2-0.2-2.8-0.6l-0.2-0.1v-2.8l0.8,0.4c0.6,0.3,1.2,0.5,2,0.5c2,0,3.1-1.6,4.8-5.5L173,176h3.1
			l6.5,13.9l6.3-13.9h3l-8.9,19.7C181.6,198.5,179.9,201.4,176.5,201.4z M174.5,200c0.4,0.2,1.1,0.3,2,0.3c2.2,0,3.8-1.5,5.4-5.1
			l8.3-18.3h-0.8l-6.9,15.4l-7.1-15.4h-0.9l7.7,16.2l-0.1,0.2c-1.7,3.8-3,6.3-5.8,6.3c-0.7,0-1.2-0.1-1.8-0.3L174.5,200L174.5,200z"
			/>
	</g>
	<g>
		<path d="M53.2,211.4h2l7.6,22.2l6.7-22.3H71l6.8,22.3l7.5-22.2h2l-8.7,25.1H77l-6.7-22l-6.8,22H62L53.2,211.4z"/>
		<path d="M79,237.1h-2.3l-6.3-20.8l-6.5,20.8h-2.3L52.5,211h3.1l7.2,21l6.4-21.1h2.2l6.4,21.1l7.2-21.1h3L79,237.1z M77.4,236.1
			h0.9l8.3-24.1h-0.9l-7.9,23.3l-7.1-23.4h-0.8l-7.1,23.4l-8-23.3h-0.9l8.4,24.1h0.8l7.2-23.2L77.4,236.1z"/>
	</g>
	<g>
		<path d="M88.3,227.9c0-5.1,3.5-9,8.5-9c6,0,7.9,5.3,7.9,8.7v0.6H90.1c0.1,4.2,3.3,7.1,7.8,7.1c2.3,0,4.1-0.6,5.5-1.6v1.7
			c-1.1,0.9-3.3,1.5-5.8,1.5C92.4,236.9,88.3,233.2,88.3,227.9z M103,226.7c0-2.4-1.6-6.1-6.2-6.1c-4.1,0-6.5,3.2-6.7,6.1H103z"/>
		<path d="M97.6,237.4c-5.7,0-9.8-4-9.8-9.4c0-5.5,3.8-9.5,9-9.5c6.6,0,8.4,6,8.4,9.2v1.1H90.6c0.4,3.7,3.2,6.1,7.3,6.1
			c2,0,3.8-0.5,5.2-1.5l0.8-0.5v2.9l-0.2,0.1C102.3,236.7,100,237.4,97.6,237.4z M96.8,219.4c-4.6,0-8,3.6-8,8.5s3.7,8.4,8.8,8.4
			c2,0,4.1-0.5,5.3-1.3v-0.5c-1.5,0.8-3.2,1.2-5,1.2c-4.7,0-8.2-3.1-8.3-7.6v-0.5h14.7v-0.1C104.2,224.8,102.7,219.4,96.8,219.4z
			 M103.5,227.2H89.6v-0.5c0.2-3.2,2.8-6.6,7.2-6.6c4.9,0,6.7,4.1,6.7,6.6V227.2z M90.7,226.2h11.8c-0.2-2.2-1.8-5.1-5.7-5.1
			C93.2,221,91.1,223.6,90.7,226.2z"/>
	</g>
	<g>
		<path d="M108.6,227.9c0-4.8,3.4-9,8.7-9c3.2,0,5.6,1.5,7,3.4v-10.9h1.8v25h-1.8v-3c-1.4,2-3.8,3.4-7,3.4
			C112,236.9,108.6,232.7,108.6,227.9z M124.3,231.1v-6.3c-1.1-2.4-3.7-4.2-6.6-4.2c-4.1,0-7.3,3.2-7.3,7.4c0,4.1,3.1,7.3,7.3,7.3
			C120.5,235.3,123.1,233.5,124.3,231.1z"/>
		<path d="M117.3,237.4c-5.2,0-9.2-4.1-9.2-9.4c0-5.4,3.9-9.5,9.2-9.5c2.5,0,4.8,0.9,6.5,2.6V211h2.8v26h-2.8v-2.1
			C122.1,236.5,119.9,237.4,117.3,237.4z M117.3,219.4c-5.3,0-8.2,4.4-8.2,8.5s2.9,8.4,8.2,8.4c2.8,0,5.1-1.1,6.6-3.2l0.9-1.2v4h0.8
			v-24h-0.8v12l-0.9-1.2C122.4,220.6,120,219.4,117.3,219.4z M117.6,235.8c-4.3,0-7.8-3.4-7.8-7.8c0-4.5,3.3-7.9,7.8-7.9
			c2.9,0,5.8,1.8,7.1,4.5l0.1,0.1v6.7C123.5,234,120.6,235.8,117.6,235.8z M117.6,221c-3.8,0-6.8,3-6.8,6.9s2.9,6.8,6.8,6.8
			c2.6,0,5-1.5,6.1-3.8v-6.1C122.6,222.6,120.2,221,117.6,221z"/>
	</g>
	<g>
		<path d="M132.4,236.4v-17.1h1.8v2.9c1.3-1.6,3.9-3.4,7.2-3.4c4.4,0,6.6,2.6,6.6,7.1v10.4h-1.8v-10c0-5-3.2-5.8-5.4-5.8
			c-2.8,0-5.5,2-6.7,3.9v12H132.4z"/>
		<path d="M148.5,236.9h-2.8v-10.5c0-3.5-1.6-5.3-4.9-5.3c-2.5,0-5.1,1.8-6.2,3.5v12.3h-2.8v-18.1h2.8v2.2c1.2-1.1,3.4-2.6,6.7-2.6
			c4.6,0,7.1,2.7,7.1,7.6L148.5,236.9L148.5,236.9z M146.8,235.9h0.8V226c0-3-1.1-6.6-6.1-6.6c-4,0-6.2,2.4-6.8,3.2l-0.9,1.1v-3.8
			H133V236h0.8v-11.6l0.1-0.1c1.2-2,4.1-4.1,7.1-4.1c2.2,0,5.9,0.8,5.9,6.3v9.4H146.8z"/>
	</g>
	<g>
		<path d="M152.8,227.9c0-5.1,3.5-9,8.5-9c6,0,7.9,5.3,7.9,8.7v0.6h-14.6c0.1,4.2,3.3,7.1,7.8,7.1c2.3,0,4.1-0.6,5.5-1.6v1.7
			c-1.1,0.9-3.3,1.5-5.8,1.5C156.8,236.9,152.8,233.2,152.8,227.9z M167.4,226.7c0-2.4-1.6-6.1-6.2-6.1c-4.1,0-6.5,3.2-6.7,6.1
			H167.4z"/>
		<path d="M162.1,237.4c-5.7,0-9.8-4-9.8-9.4c0-5.5,3.8-9.5,9-9.5c6.6,0,8.4,6,8.4,9.2v1.1h-14.6c0.4,3.7,3.2,6.1,7.3,6.1
			c2,0,3.8-0.5,5.2-1.5l0.8-0.5v2.9l-0.2,0.1C166.8,236.7,164.5,237.4,162.1,237.4z M161.3,219.4c-4.6,0-8,3.6-8,8.5
			s3.7,8.4,8.8,8.4c2,0,4.1-0.5,5.3-1.3v-0.5c-1.5,0.8-3.2,1.2-5,1.2c-4.7,0-8.2-3.1-8.3-7.6v-0.5h14.7v-0.1
			C168.7,224.8,167.1,219.4,161.3,219.4z M167.9,227.2H154v-0.5c0.2-3.2,2.8-6.6,7.2-6.6c4.9,0,6.7,4.1,6.7,6.6V227.2z M155.1,226.2
			h11.8c-0.2-2.2-1.8-5.1-5.7-5.1C157.7,221,155.5,223.6,155.1,226.2z"/>
	</g>
	<g>
		<path d="M172.8,235v-1.9c1.2,0.8,3.9,2.1,7,2.1c3.3,0,5.4-1.2,5.4-3.3c0-2-2.4-2.7-5.8-3.5c-3.2-0.8-6.1-1.8-6.1-4.9
			c0-2.8,2.3-4.6,6.6-4.6c2.2,0,4.7,0.6,6.2,1.6v1.8c-1.5-1-3.8-1.8-6.1-1.8c-3.5,0-5,1.3-5,3c0,2.2,2.6,2.8,5.2,3.4
			c3.3,0.8,6.7,1.6,6.7,5c0,3.1-3.2,4.9-7.1,4.9C176.8,236.9,174.1,235.9,172.8,235z"/>
		<path d="M179.9,237.4c-3.2,0-6-1-7.4-1.9l-0.2-0.1v-3.1l0.8,0.5c1.1,0.7,3.7,2,6.8,2c2.3,0,4.9-0.7,4.9-2.8c0-1.6-2-2.2-5.4-3.1
			c-3.1-0.8-6.5-1.9-6.5-5.3c0-3.2,2.7-5.1,7.1-5.1c2.4,0,4.9,0.6,6.5,1.7l0.2,0.1v3l-0.8-0.5c-1.7-1-3.8-1.7-5.8-1.7
			c-2.8,0-4.5,0.9-4.5,2.5s1.8,2.2,4.6,2.9h0.2c3.1,0.8,7.1,1.7,7.1,5.5C187.5,235.2,184.4,237.4,179.9,237.4z M173.3,234.8
			c1.3,0.8,3.8,1.6,6.6,1.6c3.3,0,6.6-1.3,6.6-4.4c0-2.8-2.6-3.7-6.3-4.6H180c-2.7-0.6-5.4-1.3-5.4-3.8c0-0.8,0.4-3.5,5.5-3.5
			c1.9,0,3.9,0.5,5.6,1.4v-0.6c-1.4-0.8-3.6-1.4-5.7-1.4c-3.9,0-6.1,1.5-6.1,4.1c0,2.5,2.2,3.5,5.7,4.4c3.2,0.8,6.2,1.5,6.2,4
			c0,2.3-2.2,3.8-5.9,3.8c-2.6,0-5-0.8-6.5-1.7v0.7H173.3z"/>
	</g>
	<g>
		<path d="M191,227.9c0-4.8,3.4-9,8.7-9c3.2,0,5.6,1.5,7,3.4v-10.9h1.8v25h-1.8v-3c-1.4,2-3.8,3.4-7,3.4
			C194.4,236.9,191,232.7,191,227.9z M206.6,231.1v-6.3c-1.1-2.4-3.7-4.2-6.6-4.2c-4.1,0-7.3,3.2-7.3,7.4c0,4.1,3.1,7.3,7.3,7.3
			C202.9,235.3,205.5,233.5,206.6,231.1z"/>
		<path d="M199.6,237.4c-5.2,0-9.2-4.1-9.2-9.4c0-5.4,3.9-9.5,9.2-9.5c2.5,0,4.8,0.9,6.5,2.6V211h2.8v26h-2.8v-2.1
			C204.5,236.5,202.2,237.4,199.6,237.4z M199.6,219.4c-5.3,0-8.2,4.4-8.2,8.5s2.9,8.4,8.2,8.4c2.8,0,5.1-1.1,6.6-3.2l0.9-1.2v4h0.8
			v-24h-0.8v12l-0.9-1.2C204.7,220.6,202.4,219.4,199.6,219.4z M200,235.8c-4.3,0-7.8-3.4-7.8-7.8c0-4.5,3.3-7.9,7.8-7.9
			c2.9,0,5.8,1.8,7.1,4.5l0.1,0.1v6.7C205.8,234,203,235.8,200,235.8z M200,221c-3.8,0-6.8,3-6.8,6.9s2.9,6.8,6.8,6.8
			c2.6,0,5-1.5,6.1-3.8v-6.1C205,222.6,202.5,221,200,221z"/>
	</g>
	<g>
		<path d="M213.3,231.3c0-3.4,3.1-5.6,7.1-5.6c3.1,0,5.3,1,6.6,1.8v-2.2c0-3.4-2.4-4.8-6-4.8c-2.4,0-4.6,1-5.8,1.8v-1.8
			c1.1-0.8,3.2-1.7,6.1-1.7c4.2,0,7.4,1.9,7.4,6.3v7.5c0,1.5,0.7,2.4,1.8,2.4c0.4,0,0.7-0.1,1-0.2v1.4c-0.4,0.2-0.9,0.3-1.4,0.3
			c-1.4,0-2.8-0.8-3-2.9c-1.5,1.7-3.9,3.2-7.3,3.2C216.6,236.9,213.3,235,213.3,231.3z M227,231.9v-2.8c-1.2-0.8-3.5-1.9-6.1-1.9
			c-3.6,0-5.7,1.6-5.7,4c0,2.9,2.6,4,5.3,4C223.4,235.3,225.8,233.5,227,231.9z"/>
		<path d="M219.9,237.4c-3.4,0-7.1-1.9-7.1-6.1c0-3.6,3.1-6.1,7.6-6.1c2.2,0,4.2,0.5,6.1,1.5v-1.3c0-2.8-1.9-4.3-5.5-4.3
			c-2.8,0-4.9,1.3-5.5,1.7l-0.8,0.5v-3l0.2-0.1c1-0.7,3.2-1.8,6.3-1.8c5,0,7.9,2.5,7.9,6.8v7.5c0,1.2,0.5,1.9,1.3,1.9
			c0.3,0,0.6-0.1,0.8-0.2l0.7-0.4v2.5l-0.2,0.1c-0.5,0.3-1.1,0.4-1.7,0.4c-1.3,0-2.8-0.6-3.3-2.4C225,236.5,222.6,237.4,219.9,237.4
			z M220.4,226.2c-3.9,0-6.6,2.1-6.6,5.1c0,3.5,3.1,5.1,6.1,5.1c2.8,0,5.1-1,6.9-3l0.8-0.9l0.1,1.2c0.2,2.3,1.9,2.5,2.5,2.5
			c0.3,0,0.7,0,0.9-0.1v-0.4c-0.2,0-0.3,0-0.5,0c-1.4,0-2.3-1.1-2.3-2.9v-7.5c0-5-4.3-5.8-6.9-5.8c-2.7,0-4.6,0.9-5.6,1.5v0.6
			c1.1-0.6,3-1.4,5.3-1.4c4.2,0,6.5,1.9,6.5,5.3v3.1l-0.8-0.5C224.8,226.8,222.7,226.2,220.4,226.2z M220.4,235.8
			c-3.5,0-5.8-1.8-5.8-4.5c0-2.8,2.4-4.5,6.2-4.5c3.2,0,5.7,1.5,6.4,2l0.2,0.1v3.2l-0.1,0.1C226.1,233.9,223.6,235.8,220.4,235.8z
			 M220.9,227.7c-3.3,0-5.2,1.3-5.2,3.5c0,2.6,2.5,3.5,4.8,3.5c2.7,0,4.9-1.5,6.1-3v-2.3C225.2,228.6,223,227.7,220.9,227.7z"/>
	</g>
	<g>
		<path d="M233.9,243.2v-1.6c0.7,0.4,1.4,0.6,2.3,0.6c2.4,0,3.6-2.1,5.4-6l-7.9-16.8h2l6.8,14.6l6.6-14.6h1.9l-8.6,19
			c-1.5,3.3-3.1,5.4-5.9,5.4C235.4,243.7,234.4,243.6,233.9,243.2z"/>
		<path d="M236.4,244.2c-1.2,0-2.2-0.2-2.8-0.6l-0.2-0.1v-2.8l0.8,0.4c0.6,0.3,1.2,0.5,2,0.5c2,0,3.1-1.6,4.8-5.5l-8.1-17.3h3.1
			l6.5,13.9l6.3-13.9h3l-8.9,19.7C241.4,241.4,239.7,244.2,236.4,244.2z M234.4,242.9c0.4,0.2,1.1,0.3,2,0.3c2.2,0,3.8-1.5,5.4-5.1
			l8.3-18.3h-0.8l-6.9,15.4l-7.1-15.4h-0.9l7.7,16.2l-0.1,0.2c-1.7,3.8-3,6.3-5.8,6.3c-0.7,0-1.2-0.1-1.8-0.3L234.4,242.9
			L234.4,242.9z"/>
	</g>
	<g>
		<path d="M61.9,255.9H53v-1.6h19.6v1.6h-8.9v23.4h-1.8C61.9,279.3,61.9,255.9,61.9,255.9z"/>
		<path d="M64.1,279.8h-2.8v-23.4h-8.9v-2.6H73v2.6h-8.9C64.1,256.4,64.1,279.8,64.1,279.8z M62.4,278.8h0.8v-23.4h8.9v-0.6H53.4
			v0.6h8.9L62.4,278.8L62.4,278.8z"/>
	</g>
	<g>
		<path d="M77,279.3v-25h1.8v10.9c1.3-1.6,3.9-3.4,7.2-3.4c4.4,0,6.6,2.6,6.6,7.1v10.4h-1.8v-10c0-5-3.2-5.8-5.4-5.8
			c-2.8,0-5.5,2-6.7,3.9v12H77V279.3z"/>
		<path d="M93.1,279.8h-2.8v-10.5c0-3.5-1.6-5.3-4.9-5.3c-2.5,0-5.1,1.8-6.2,3.5v12.3h-2.8v-26h2.8v10.1c1.2-1.1,3.4-2.6,6.7-2.6
			c4.6,0,7.1,2.7,7.1,7.6v10.9H93.1z M91.3,278.8h0.8v-9.9c0-3-1.1-6.6-6.1-6.6c-4,0-6.2,2.4-6.8,3.2l-0.9,1.1v-11.8h-0.8v24h0.8
			v-11.6l0.1-0.1c1.2-2,4.1-4.1,7.1-4.1c2.2,0,5.9,0.8,5.9,6.3L91.3,278.8L91.3,278.8z"/>
	</g>
	<g>
		<path d="M113.9,262.2v17.1h-1.8v-2.9c-1.3,1.6-3.9,3.4-7.2,3.4c-4.4,0-6.6-2.6-6.6-7.1v-10.4h1.8v10c0,5,3.1,5.8,5.4,5.8
			c2.7,0,5.5-2,6.7-3.9v-12H113.9z"/>
		<path d="M104.9,280.2c-4.6,0-7.1-2.7-7.1-7.6v-10.9h2.8v10.5c0,3.6,1.6,5.3,4.9,5.3c2.4,0,5-1.8,6.2-3.5v-12.3h2.8v18.1h-2.8v-2.2
			C110.4,278.7,108.2,280.2,104.9,280.2z M98.8,262.7v9.9c0,3,1.1,6.6,6.1,6.6c4,0,6.2-2.4,6.8-3.2l0.9-1.1v3.8h0.8v-16.1h-0.8v11.6
			l-0.1,0.1c-1.2,2-4.2,4.1-7.1,4.1c-3.9,0-5.9-2.2-5.9-6.3v-9.5h-0.7V262.7z"/>
	</g>
	<g>
		<path d="M120.3,262.2h1.8v3.5c1.1-2,3.8-4,6.9-4v1.8c-3.5,0-6,2.4-6.9,4.5v11.2h-1.8V262.2z"/>
		<path d="M122.5,279.8h-2.8v-18.1h2.8v2.5c1.4-1.6,3.7-2.9,6.4-2.9h0.5v2.8h-0.5c-3.1,0-5.4,2-6.4,4.1V279.8z M120.8,278.8h0.8
			v-10.9c1-2.3,3.5-4.6,6.9-4.8v-0.8c-2.8,0.2-5,2-6,3.7l-0.9,1.6v-4.9h-0.8V278.8z"/>
	</g>
	<g>
		<path d="M131.2,277.9V276c1.2,0.8,3.9,2.1,7,2.1c3.3,0,5.4-1.2,5.4-3.3c0-2-2.4-2.7-5.8-3.5c-3.2-0.8-6.1-1.8-6.1-4.9
			c0-2.8,2.3-4.6,6.6-4.6c2.2,0,4.7,0.6,6.2,1.6v1.8c-1.5-1-3.8-1.8-6.1-1.8c-3.5,0-5,1.3-5,3c0,2.2,2.6,2.8,5.2,3.4
			c3.3,0.8,6.7,1.6,6.7,5c0,3.1-3.2,4.9-7.1,4.9C135.2,279.7,132.5,278.8,131.2,277.9z"/>
		<path d="M138.3,280.2c-3.2,0-6-1-7.4-1.9l-0.2-0.1v-3.1l0.8,0.5c1.1,0.7,3.7,2,6.8,2c2.3,0,4.9-0.7,4.9-2.8c0-1.6-2-2.2-5.4-3.1
			c-3.1-0.8-6.5-1.9-6.5-5.3c0-3.2,2.7-5.1,7.1-5.1c2.4,0,4.9,0.6,6.5,1.7l0.2,0.1v3l-0.8-0.5c-1.7-1-3.8-1.7-5.8-1.7
			c-2.8,0-4.5,0.9-4.5,2.5s1.8,2.2,4.6,2.9h0.2c3.1,0.8,7.1,1.7,7.1,5.5C145.9,278.1,142.8,280.2,138.3,280.2z M131.7,277.6
			c1.3,0.8,3.8,1.6,6.6,1.6c3.3,0,6.6-1.3,6.6-4.4c0-2.8-2.6-3.7-6.3-4.6h-0.2c-2.7-0.6-5.4-1.3-5.4-3.8c0-0.8,0.4-3.5,5.5-3.5
			c1.9,0,3.9,0.5,5.6,1.4v-0.6c-1.4-0.8-3.6-1.4-5.7-1.4c-3.9,0-6.1,1.5-6.1,4.1c0,2.5,2.2,3.5,5.7,4.4c3.2,0.8,6.2,1.5,6.2,4
			c0,2.3-2.2,3.8-5.9,3.8c-2.6,0-5-0.8-6.5-1.7v0.7H131.7z"/>
	</g>
	<g>
		<path d="M149.4,270.8c0-4.8,3.4-9,8.7-9c3.2,0,5.6,1.5,7,3.4v-10.9h1.8v25H165v-3c-1.4,2-3.8,3.4-7,3.4
			C152.8,279.7,149.4,275.5,149.4,270.8z M165,273.9v-6.3c-1.1-2.4-3.7-4.2-6.6-4.2c-4.1,0-7.3,3.2-7.3,7.4c0,4.1,3.1,7.3,7.3,7.3
			C161.3,278.1,163.9,276.4,165,273.9z"/>
		<path d="M158,280.2c-5.2,0-9.2-4.1-9.2-9.4c0-5.4,3.9-9.5,9.2-9.5c2.5,0,4.8,0.9,6.5,2.6v-10.1h2.8v26h-2.8v-2.1
			C162.9,279.3,160.6,280.2,158,280.2z M158,262.3c-5.3,0-8.2,4.4-8.2,8.5s2.9,8.4,8.2,8.4c2.8,0,5.1-1.1,6.6-3.2l0.9-1.2v4h0.8v-24
			h-0.8v12l-0.9-1.2C163.1,263.4,160.8,262.3,158,262.3z M158.4,278.6c-4.3,0-7.8-3.4-7.8-7.8c0-4.5,3.3-7.9,7.8-7.9
			c2.9,0,5.8,1.8,7.1,4.5l0.1,0.1v6.7C164.2,276.8,161.4,278.6,158.4,278.6z M158.4,263.9c-3.8,0-6.8,3-6.8,6.9s2.9,6.8,6.8,6.8
			c2.6,0,5-1.5,6.1-3.8v-6.1C163.4,265.4,160.9,263.9,158.4,263.9z"/>
	</g>
	<g>
		<path d="M171.7,274.1c0-3.4,3.1-5.6,7.1-5.6c3.1,0,5.3,1,6.6,1.8v-2.2c0-3.4-2.4-4.8-6-4.8c-2.4,0-4.6,1-5.8,1.8v-1.8
			c1.1-0.8,3.2-1.7,6.1-1.7c4.2,0,7.4,1.9,7.4,6.3v7.5c0,1.5,0.7,2.4,1.8,2.4c0.4,0,0.7-0.1,1-0.2v1.4c-0.4,0.2-0.9,0.3-1.4,0.3
			c-1.4,0-2.8-0.8-3-2.9c-1.5,1.7-3.9,3.2-7.3,3.2C175,279.7,171.7,277.8,171.7,274.1z M185.4,274.8V272c-1.2-0.8-3.5-1.9-6.1-1.9
			c-3.6,0-5.7,1.6-5.7,4c0,2.9,2.6,4,5.3,4C181.8,278.1,184.2,276.4,185.4,274.8z"/>
		<path d="M178.3,280.2c-3.4,0-7.1-1.9-7.1-6.1c0-3.6,3.1-6.1,7.6-6.1c2.2,0,4.2,0.5,6.1,1.5v-1.3c0-2.8-1.9-4.3-5.5-4.3
			c-2.8,0-4.9,1.3-5.5,1.7l-0.8,0.5v-3l0.2-0.1c1-0.7,3.2-1.8,6.3-1.8c5,0,7.9,2.5,7.9,6.8v7.5c0,1.2,0.5,1.9,1.3,1.9
			c0.3,0,0.6-0.1,0.8-0.2l0.7-0.4v2.5l-0.2,0.1c-0.5,0.3-1.1,0.4-1.7,0.4c-1.3,0-2.8-0.6-3.3-2.4C183.4,279.3,181,280.2,178.3,280.2
			z M178.8,269c-3.9,0-6.6,2.1-6.6,5.1c0,3.5,3.1,5.1,6.1,5.1c2.8,0,5.1-1,6.9-3l0.8-0.9l0.1,1.2c0.2,2.3,1.9,2.5,2.5,2.5
			c0.3,0,0.7,0,0.9-0.1v-0.4c-0.2,0-0.3,0-0.5,0c-1.4,0-2.3-1.1-2.3-2.9V268c0-5-4.3-5.8-6.9-5.8c-2.7,0-4.6,0.9-5.6,1.5v0.6
			c1.1-0.6,3-1.4,5.3-1.4c4.2,0,6.5,1.9,6.5,5.3v3.1l-0.8-0.5C183.2,269.6,181.1,269,178.8,269z M178.8,278.6
			c-3.5,0-5.8-1.8-5.8-4.5c0-2.8,2.4-4.5,6.2-4.5c3.2,0,5.7,1.5,6.4,2l0.2,0.1v3.2l-0.1,0.1C184.5,276.8,181.9,278.6,178.8,278.6z
			 M179.2,270.6c-3.3,0-5.2,1.3-5.2,3.5c0,2.6,2.5,3.5,4.8,3.5c2.7,0,4.9-1.5,6.1-3v-2.3C183.6,271.4,181.4,270.6,179.2,270.6z"/>
	</g>
	<g>
		<path d="M192.2,286v-1.6c0.7,0.4,1.4,0.6,2.3,0.6c2.4,0,3.6-2.1,5.4-6l-7.9-16.8h2l6.8,14.6l6.6-14.6h1.9l-8.6,19
			c-1.5,3.3-3.1,5.4-5.9,5.4C193.8,286.6,192.8,286.4,192.2,286z"/>
		<path d="M194.8,287.1c-1.2,0-2.2-0.2-2.8-0.6l-0.2-0.1v-2.8l0.8,0.4c0.6,0.3,1.2,0.5,2,0.5c2,0,3.1-1.6,4.8-5.5l-8.1-17.3h3.1
			l6.5,13.9l6.3-13.9h3l-8.9,19.7C199.8,284.2,198.1,287.1,194.8,287.1z M192.7,285.8c0.4,0.2,1.1,0.3,2,0.3c2.2,0,3.8-1.5,5.4-5.1
			l8.3-18.3h-0.8l-6.9,15.4l-7.1-15.4h-0.9l7.7,16.2l-0.1,0.2c-1.7,3.8-3,6.3-5.8,6.3c-0.7,0-1.2-0.1-1.8-0.3L192.7,285.8
			L192.7,285.8z"/>
	</g>
	<g>
		<path d="M55.4,297.2H72v1.6H57.1v9.4h12.3v1.7H57.1v12.3h-1.8v-25H55.4z"/>
		<path d="M57.6,322.7h-2.8v-26h17.6v2.6H57.6v8.4h12.3v2.7H57.6V322.7z M55.9,321.7h0.8v-12.3H69v-0.7H56.6v-10.4h14.8v-0.6H55.9
			V321.7z"/>
	</g>
	<g>
		<path d="M75.5,305.1h1.8v3.5c1.1-2,3.8-4,6.9-4v1.8c-3.5,0-6,2.4-6.9,4.5v11.2h-1.8V305.1z"/>
		<path d="M77.8,322.7H75v-18.1h2.8v2.5c1.4-1.6,3.7-2.9,6.4-2.9h0.5v2.8h-0.5c-3.1,0-5.4,2-6.4,4.1V322.7z M76,321.7h0.8v-10.9
			c1-2.3,3.5-4.6,6.9-4.8v-0.8c-2.8,0.2-5,2-6,3.7l-0.9,1.6v-4.9H76V321.7z"/>
	</g>
	<g>
		<path d="M89.3,297.7c0.8,0,1.4,0.6,1.4,1.4s-0.6,1.4-1.4,1.4c-0.8,0-1.4-0.6-1.4-1.4C87.9,298.3,88.5,297.7,89.3,297.7z
			 M88.5,305.1h1.8v17.1h-1.8V305.1z"/>
		<path d="M90.7,322.7H88v-18.1h2.8v18.1H90.7z M89,321.7h0.8v-16.1H89V321.7z M89.3,301c-1.1,0-1.9-0.9-1.9-1.9
			c0-1.1,0.9-1.9,1.9-1.9s1.9,0.9,1.9,1.9S90.4,301,89.3,301z M89.3,298.2c-0.5,0-0.9,0.4-0.9,0.9s0.4,0.9,0.9,0.9s0.9-0.4,0.9-0.9
			S89.8,298.2,89.3,298.2z"/>
	</g>
	<g>
		<path d="M95.8,313.7c0-4.8,3.4-9,8.7-9c3.2,0,5.6,1.5,7,3.4v-10.9h1.8v25h-1.8v-3c-1.4,2-3.8,3.4-7,3.4
			C99.2,322.6,95.8,318.4,95.8,313.7z M111.5,316.8v-6.3c-1.1-2.4-3.7-4.2-6.6-4.2c-4.1,0-7.3,3.2-7.3,7.4c0,4.1,3.1,7.3,7.3,7.3
			C107.7,321,110.4,319.2,111.5,316.8z"/>
		<path d="M104.5,323.1c-5.2,0-9.2-4.1-9.2-9.4c0-5.4,3.9-9.5,9.2-9.5c2.5,0,4.8,0.9,6.5,2.6v-10.1h2.8v26H111v-2.1
			C109.3,322.2,107.1,323.1,104.5,323.1z M104.5,305.2c-5.3,0-8.2,4.4-8.2,8.5s2.9,8.4,8.2,8.4c2.8,0,5.1-1.1,6.6-3.2l0.9-1.2v4h0.8
			v-24H112v12l-0.9-1.2C109.6,306.3,107.2,305.2,104.5,305.2z M104.9,321.5c-4.3,0-7.8-3.4-7.8-7.8c0-4.5,3.3-7.9,7.8-7.9
			c2.9,0,5.8,1.8,7.1,4.5l0.1,0.1v6.7C110.7,319.7,107.8,321.5,104.9,321.5z M104.9,306.8c-3.8,0-6.8,3-6.8,6.9s2.9,6.8,6.8,6.8
			c2.6,0,5-1.5,6.1-3.8v-6.1C109.8,308.3,107.4,306.8,104.9,306.8z"/>
	</g>
	<g>
		<path d="M118.2,317c0-3.4,3.1-5.6,7.1-5.6c3.1,0,5.3,1,6.6,1.8V311c0-3.4-2.4-4.8-6-4.8c-2.4,0-4.6,1-5.8,1.8v-1.8
			c1.1-0.8,3.2-1.7,6.1-1.7c4.2,0,7.4,1.9,7.4,6.3v7.5c0,1.5,0.7,2.4,1.8,2.4c0.4,0,0.7-0.1,1-0.2v1.4c-0.4,0.2-0.9,0.3-1.4,0.3
			c-1.4,0-2.8-0.8-3-2.9c-1.5,1.7-3.9,3.2-7.3,3.2C121.4,322.6,118.2,320.7,118.2,317z M131.9,317.7v-2.8c-1.2-0.8-3.5-1.9-6.1-1.9
			c-3.6,0-5.7,1.6-5.7,4c0,2.9,2.6,4,5.3,4C128.2,321,130.6,319.2,131.9,317.7z"/>
		<path d="M124.7,323.1c-3.4,0-7.1-1.9-7.1-6.1c0-3.6,3.1-6.1,7.6-6.1c2.2,0,4.2,0.5,6.1,1.5V311c0-2.8-1.9-4.3-5.5-4.3
			c-2.8,0-4.9,1.3-5.5,1.7l-0.8,0.5v-3l0.2-0.1c1-0.7,3.2-1.8,6.3-1.8c5,0,7.9,2.5,7.9,6.8v7.5c0,0.6,0.1,1.9,1.3,1.9
			c0.3,0,0.6-0.1,0.8-0.2l0.7-0.4v2.5l-0.2,0.1c-0.5,0.3-1.1,0.4-1.7,0.4c-1.3,0-2.8-0.6-3.3-2.4
			C129.8,322.2,127.5,323.1,124.7,323.1z M125.2,311.9c-3.9,0-6.6,2.1-6.6,5.1c0,3.5,3.1,5.1,6.1,5.1c2.8,0,5.1-1,6.9-3l0.8-0.9
			l0.1,1.2c0.2,2.3,1.9,2.5,2.5,2.5c0.3,0,0.7,0,0.9-0.1v-0.4c-0.2,0-0.3,0-0.5,0c-1.4,0-2.3-1.1-2.3-2.9V311c0-5-4.3-5.8-6.9-5.8
			c-2.7,0-4.6,0.9-5.6,1.5v0.6c1.1-0.6,3-1.4,5.3-1.4c4.2,0,6.5,1.9,6.5,5.3v3.1l-0.8-0.5C129.7,312.5,127.6,311.9,125.2,311.9z
			 M125.2,321.5c-3.5,0-5.8-1.8-5.8-4.5c0-2.8,2.4-4.5,6.2-4.5c3.2,0,5.7,1.5,6.4,2l0.2,0.1v3.2l-0.1,0.1
			C130.9,319.7,128.4,321.5,125.2,321.5z M125.7,313.4c-3.3,0-5.2,1.3-5.2,3.5c0,2.6,2.5,3.5,4.8,3.5c2.7,0,4.9-1.5,6.1-3v-2.3
			C130,314.3,127.9,313.4,125.7,313.4z"/>
	</g>
	<g>
		<path d="M138.7,328.9v-1.6c0.7,0.4,1.4,0.6,2.3,0.6c2.4,0,3.6-2.1,5.4-6l-7.9-16.8h2l6.8,14.6l6.6-14.6h1.9l-8.6,19
			c-1.5,3.3-3.1,5.4-5.9,5.4C140.2,329.4,139.3,329.3,138.7,328.9z"/>
		<path d="M141.2,329.9c-1.2,0-2.2-0.2-2.8-0.6l-0.2-0.1v-2.8l0.8,0.4c0.6,0.3,1.2,0.5,2,0.5c2,0,3.1-1.6,4.8-5.5l-8.1-17.3h3.1
			l6.5,13.9l6.3-13.9h3l-8.9,19.7C146.3,327.1,144.5,329.9,141.2,329.9z M139.2,328.6c0.4,0.2,1.1,0.3,2,0.3c2.2,0,3.8-1.5,5.4-5.1
			l8.3-18.3h-0.8l-6.9,15.4l-7.1-15.4h-0.9l7.7,16.2l-0.1,0.2c-1.7,3.8-3,6.3-5.8,6.3c-0.7,0-1.2-0.1-1.8-0.3L139.2,328.6
			L139.2,328.6z"/>
	</g>
	<g>
		<path d="M53.4,362.8v-2c1.6,1.4,5.1,3,9,3c4.2,0,7.4-2,7.4-5.3c0-3.7-3.4-4.6-7.5-5.7c-4.6-1.3-8.1-2.5-8.1-6.9
			c0-3.4,2.8-6.2,8.3-6.2c3,0,5.6,0.8,7.6,2.1v1.9c-2-1.4-4.6-2.3-7.5-2.3c-4.6,0-6.6,2.2-6.6,4.5c0,3.3,3.3,4.1,7.4,5.3
			c4,1.1,8.3,2.5,8.3,7.3c0,4.6-4.3,7-9,7C58.5,365.4,55.1,364.1,53.4,362.8z"/>
		<path d="M62.5,365.9c-4.3,0-7.8-1.5-9.5-2.8l-0.2-0.2v-3.4l0.8,0.7c1.7,1.5,5,2.9,8.7,2.9c4.1,0,6.9-1.9,6.9-4.8
			c0-3.2-3-4.1-6.9-5.2l-0.2-0.1c-4.2-1.2-8.5-2.4-8.5-7.4c0-3.3,2.7-6.7,8.8-6.7c2.9,0,5.7,0.8,7.9,2.2l0.2,0.1v3.1l-0.8-0.5
			c-2.1-1.5-4.6-2.2-7.3-2.2c-4.5,0-6.1,2.1-6.1,4c0,2.7,2.4,3.5,6.7,4.8l0.3,0.1c3.6,1,8.6,2.5,8.6,7.8
			C72,363.6,67.1,365.9,62.5,365.9z M53.9,362.5c1.6,1.2,4.7,2.4,8.6,2.4c4.2,0,8.5-2,8.5-6.5c0-4.2-3.6-5.6-7.9-6.8l-0.3-0.1
			c-4-1.1-7.5-2.1-7.5-5.7c0-2.3,1.9-5,7.1-5c2.5,0,4.9,0.6,7,1.9V342c-2-1.2-4.5-1.9-7.1-1.9c-4.8,0-7.8,2.2-7.8,5.7
			c0,3.9,2.9,5.1,7.8,6.4l0.2,0.1c4.1,1.1,7.6,2.1,7.6,6.1c0,3.5-3.2,5.8-7.9,5.8c-3.4,0-6.5-1.2-8.5-2.5v0.8H53.9z"/>
	</g>
	<g>
		<path d="M75.6,359.8c0-3.4,3.1-5.6,7.1-5.6c3.1,0,5.3,1,6.6,1.8v-2.2c0-3.4-2.4-4.8-6-4.8c-2.4,0-4.6,1-5.8,1.8V349
			c1.1-0.8,3.2-1.7,6.1-1.7c4.2,0,7.4,1.9,7.4,6.3v7.5c0,1.5,0.7,2.4,1.8,2.4c0.4,0,0.7-0.1,1-0.2v1.4c-0.4,0.2-0.9,0.3-1.4,0.3
			c-1.4,0-2.8-0.8-3-2.9c-1.5,1.7-3.9,3.2-7.3,3.2C78.9,365.4,75.6,363.6,75.6,359.8z M89.3,360.5v-2.8c-1.2-0.8-3.5-1.9-6.1-1.9
			c-3.6,0-5.7,1.6-5.7,4c0,2.9,2.6,4,5.3,4C85.7,363.8,88.1,362.1,89.3,360.5z"/>
		<path d="M82.2,365.9c-3.4,0-7.1-1.9-7.1-6.1c0-3.6,3.1-6.1,7.6-6.1c2.2,0,4.2,0.5,6.1,1.5v-1.3c0-2.8-1.9-4.3-5.5-4.3
			c-2.8,0-4.9,1.3-5.5,1.7l-0.8,0.5v-3l0.2-0.1c1-0.7,3.2-1.8,6.3-1.8c5,0,7.9,2.5,7.9,6.8v7.5c0,0.6,0.1,1.9,1.3,1.9
			c0.3,0,0.6-0.1,0.8-0.2l0.7-0.4v2.5l-0.2,0.1c-0.5,0.3-1.1,0.4-1.7,0.4c-1.3,0-2.8-0.6-3.3-2.4C87.3,365,84.9,365.9,82.2,365.9z
			 M82.7,354.8c-3.9,0-6.6,2.1-6.6,5.1c0,3.5,3.1,5.1,6.1,5.1c2.8,0,5.1-1,6.9-3l0.8-0.9l0.1,1.2c0.2,2.3,1.9,2.5,2.5,2.5
			c0.3,0,0.7,0,0.9-0.1v-0.4c-0.2,0-0.3,0-0.5,0c-1.4,0-2.3-1.1-2.3-2.9v-7.5c0-5-4.3-5.8-6.9-5.8c-2.7,0-4.6,0.9-5.6,1.5v0.6
			c1.1-0.6,3-1.4,5.3-1.4c4.2,0,6.5,1.9,6.5,5.3v3.1l-0.8-0.5C87.1,355.3,85,354.8,82.7,354.8z M82.7,364.3c-3.5,0-5.8-1.8-5.8-4.5
			c0-2.8,2.4-4.5,6.2-4.5c3.2,0,5.7,1.5,6.4,2l0.2,0.1v3.2l-0.1,0.1C88.4,362.5,85.9,364.3,82.7,364.3z M83.2,356.3
			c-3.3,0-5.2,1.3-5.2,3.5c0,2.6,2.5,3.5,4.8,3.5c2.7,0,4.9-1.5,6.1-3V358C87.5,357.2,85.4,356.3,83.2,356.3z"/>
	</g>
	<g>
		<path d="M100.3,360.5v-11H96v-1.6h4.3v-5.5h1.8v5.5h6.3v1.6h-6.3V360c0,2.8,0.9,3.8,3.2,3.8c1.3,0,2.3-0.5,2.9-0.8v1.7
			c-0.6,0.4-2,0.8-3.3,0.8C101.6,365.4,100.3,363.4,100.3,360.5z"/>
		<path d="M104.8,365.9c-3.2,0-5-1.9-5-5.5V350h-4.3v-2.6h4.3V342h2.8v5.5h6.3v2.6h-6.3v10c0,2.7,0.9,3.3,2.7,3.3
			c0.9,0,1.8-0.2,2.6-0.7l0.7-0.4v2.8l-0.2,0.1C107.7,365.6,106.2,365.9,104.8,365.9z M96.5,349h4.3v11.5c0,3,1.3,4.5,4,4.5
			c1.1,0,2.2-0.3,2.8-0.6v-0.6c-0.8,0.3-1.6,0.5-2.4,0.5c-2.6,0-3.7-1.2-3.7-4.3v-11h6.3v-0.6h-6.3V343h-0.8v5.5h-4.3L96.5,349
			L96.5,349z"/>
	</g>
	<g>
		<path d="M128.6,347.9V365h-1.8v-2.9c-1.3,1.6-3.9,3.4-7.2,3.4c-4.4,0-6.6-2.6-6.6-7.1V348h1.8v10c0,5,3.1,5.8,5.4,5.8
			c2.7,0,5.5-2,6.7-3.9v-12H128.6z"/>
		<path d="M119.6,365.9c-4.6,0-7.1-2.7-7.1-7.6v-10.9h2.8V358c0,3.6,1.6,5.3,4.9,5.3c2.4,0,5-1.8,6.2-3.5v-12.3h2.8v18.1h-2.8v-2.2
			C125.1,364.5,122.9,365.9,119.6,365.9z M113.5,348.4v9.9c0,3,1.1,6.6,6.1,6.6c4,0,6.2-2.4,6.8-3.2l0.9-1.1v3.8h0.8v-16.1h-0.8
			v11.6l-0.1,0.1c-1.2,2-4.2,4.1-7.1,4.1c-3.9,0-5.9-2.2-5.9-6.3v-9.5h-0.7V348.4z"/>
	</g>
	<g>
		<path d="M135,347.9h1.8v3.5c1.1-2,3.8-4,6.9-4v1.8c-3.5,0-6,2.4-6.9,4.5V365H135V347.9z"/>
		<path d="M137.2,365.5h-2.8v-18.1h2.8v2.5c1.4-1.6,3.7-2.9,6.4-2.9h0.5v2.8h-0.5c-3.1,0-5.4,2-6.4,4.1V365.5z M135.5,364.5h0.8
			v-10.9c1-2.3,3.5-4.6,6.9-4.8V348c-2.8,0.2-5,2-6,3.7l-0.9,1.6v-4.9h-0.8V364.5z"/>
	</g>
	<g>
		<path d="M146.1,356.5c0-4.8,3.4-9,8.7-9c3.2,0,5.6,1.5,7,3.4V340h1.8v25h-1.8v-3c-1.4,2-3.8,3.4-7,3.4
			C149.6,365.4,146.1,361.2,146.1,356.5z M161.8,359.7v-6.3c-1.1-2.4-3.7-4.2-6.6-4.2c-4.1,0-7.3,3.2-7.3,7.4c0,4.1,3.1,7.3,7.3,7.3
			C158.1,363.8,160.7,362.1,161.8,359.7z"/>
		<path d="M154.8,365.9c-5.2,0-9.2-4.1-9.2-9.4c0-5.4,3.9-9.5,9.2-9.5c2.5,0,4.8,0.9,6.5,2.6v-10.1h2.8v26h-2.8v-2.1
			C159.7,365.1,157.4,365.9,154.8,365.9z M154.8,348c-5.3,0-8.2,4.4-8.2,8.5s2.9,8.4,8.2,8.4c2.8,0,5.1-1.1,6.6-3.2l0.9-1.2v4h0.8
			v-24h-0.8v12l-0.9-1.2C159.9,349.2,157.6,348,154.8,348z M155.2,364.3c-4.3,0-7.8-3.4-7.8-7.8c0-4.5,3.3-7.9,7.8-7.9
			c2.9,0,5.8,1.8,7.1,4.5l0.1,0.1v6.7C161,362.5,158.2,364.3,155.2,364.3z M155.2,349.6c-3.8,0-6.8,3-6.8,6.9s2.9,6.8,6.8,6.8
			c2.6,0,5-1.5,6.1-3.8v-6.1C160.2,351.2,157.7,349.6,155.2,349.6z"/>
	</g>
	<g>
		<path d="M168.5,359.8c0-3.4,3.1-5.6,7.1-5.6c3.1,0,5.3,1,6.6,1.8v-2.2c0-3.4-2.4-4.8-6-4.8c-2.4,0-4.6,1-5.8,1.8V349
			c1.1-0.8,3.2-1.7,6.1-1.7c4.2,0,7.4,1.9,7.4,6.3v7.5c0,1.5,0.7,2.4,1.8,2.4c0.4,0,0.7-0.1,1-0.2v1.4c-0.4,0.2-0.9,0.3-1.4,0.3
			c-1.4,0-2.8-0.8-3-2.9c-1.5,1.7-3.9,3.2-7.3,3.2C171.7,365.4,168.5,363.6,168.5,359.8z M182.2,360.5v-2.8
			c-1.2-0.8-3.5-1.9-6.1-1.9c-3.6,0-5.7,1.6-5.7,4c0,2.9,2.6,4,5.3,4C178.6,363.8,181,362.1,182.2,360.5z"/>
		<path d="M175.1,365.9c-3.4,0-7.1-1.9-7.1-6.1c0-3.6,3.1-6.1,7.6-6.1c2.2,0,4.2,0.5,6.1,1.5v-1.3c0-2.8-1.9-4.3-5.5-4.3
			c-2.8,0-4.9,1.3-5.5,1.7l-0.8,0.5v-3l0.2-0.1c1-0.7,3.2-1.8,6.3-1.8c5,0,7.9,2.5,7.9,6.8v7.5c0,0.6,0.1,1.9,1.3,1.9
			c0.3,0,0.6-0.1,0.8-0.2l0.7-0.4v2.5l-0.2,0.1c-0.5,0.3-1.1,0.4-1.7,0.4c-1.3,0-2.8-0.6-3.3-2.4C180.1,365,177.8,365.9,175.1,365.9
			z M175.6,354.8c-3.9,0-6.6,2.1-6.6,5.1c0,3.5,3.1,5.1,6.1,5.1c2.8,0,5.1-1,6.9-3l0.8-0.9l0.1,1.2c0.2,2.3,1.9,2.5,2.5,2.5
			c0.3,0,0.7,0,0.9-0.1v-0.4c-0.2,0-0.3,0-0.5,0c-1.4,0-2.3-1.1-2.3-2.9v-7.5c0-5-4.3-5.8-6.9-5.8c-2.7,0-4.6,0.9-5.6,1.5v0.6
			c1.1-0.6,3-1.4,5.3-1.4c4.2,0,6.5,1.9,6.5,5.3v3.1l-0.8-0.5C180,355.3,177.9,354.8,175.6,354.8z M175.6,364.3
			c-3.5,0-5.8-1.8-5.8-4.5c0-2.8,2.4-4.5,6.2-4.5c3.2,0,5.7,1.5,6.4,2l0.2,0.1v3.2l-0.1,0.1C181.3,362.5,178.7,364.3,175.6,364.3z
			 M176,356.3c-3.3,0-5.2,1.3-5.2,3.5c0,2.6,2.5,3.5,4.8,3.5c2.7,0,4.9-1.5,6.1-3V358C180.3,357.2,178.2,356.3,176,356.3z"/>
	</g>
	<g>
		<path d="M189,371.8v-1.6c0.7,0.4,1.4,0.6,2.3,0.6c2.4,0,3.6-2.1,5.4-6l-7.9-16.8h2l6.8,14.6l6.6-14.6h1.9l-8.6,19
			c-1.5,3.3-3.1,5.4-5.9,5.4C190.5,372.3,189.6,372.2,189,371.8z"/>
		<path d="M191.5,372.8c-1.2,0-2.2-0.2-2.8-0.6l-0.2-0.1v-2.8l0.8,0.4c0.6,0.3,1.2,0.5,2,0.5c2,0,3.1-1.6,4.8-5.5l-8.1-17.3h3.1
			l6.5,13.9l6.3-13.9h3l-8.9,19.7C196.6,369.9,194.9,372.8,191.5,372.8z M189.5,371.5c0.4,0.2,1.1,0.3,2,0.3c2.2,0,3.8-1.5,5.4-5.1
			l8.3-18.3h-0.8l-6.9,15.4l-7.1-15.4h-0.9l7.7,16.2l-0.1,0.2c-1.7,3.8-3,6.3-5.8,6.3c-0.7,0-1.2-0.1-1.8-0.3L189.5,371.5
			L189.5,371.5z"/>
	</g>
	<g>
		<path d="M53.4,405.6v-2c1.6,1.4,5.1,3,9,3c4.2,0,7.4-2,7.4-5.3c0-3.7-3.4-4.6-7.5-5.7c-4.6-1.3-8.1-2.5-8.1-6.9
			c0-3.4,2.8-6.2,8.3-6.2c3,0,5.6,0.8,7.6,2.1v1.9c-2-1.4-4.6-2.3-7.5-2.3c-4.6,0-6.6,2.2-6.6,4.5c0,3.3,3.3,4.1,7.4,5.3
			c4,1.1,8.3,2.5,8.3,7.3c0,4.6-4.3,7-9,7C58.5,408.3,55.1,407,53.4,405.6z"/>
		<path d="M62.5,408.8c-4.3,0-7.8-1.5-9.5-2.8l-0.2-0.2v-3.4l0.8,0.7c1.7,1.5,5,2.9,8.7,2.9c4.1,0,6.9-1.9,6.9-4.8
			c0-3.2-3-4.1-6.9-5.2l-0.2-0.1c-4.2-1.2-8.5-2.4-8.5-7.4c0-3.3,2.7-6.7,8.8-6.7c2.9,0,5.7,0.8,7.9,2.2l0.2,0.1v3.1l-0.8-0.5
			c-2.1-1.5-4.6-2.2-7.3-2.2c-4.5,0-6.1,2.1-6.1,4c0,2.7,2.4,3.5,6.7,4.8l0.3,0.1c3.6,1,8.6,2.5,8.6,7.8
			C72,406.5,67.1,408.8,62.5,408.8z M53.9,405.4c1.6,1.2,4.7,2.4,8.6,2.4c4.2,0,8.5-2,8.5-6.5c0-4.2-3.6-5.6-7.9-6.8l-0.3-0.1
			c-4-1.1-7.5-2.1-7.5-5.7c0-2.3,1.9-5,7.1-5c2.5,0,4.9,0.6,7,1.9v-0.7c-2-1.2-4.5-1.9-7.1-1.9c-4.8,0-7.8,2.2-7.8,5.7
			c0,3.9,2.9,5.1,7.8,6.4l0.2,0.1c4.1,1.1,7.6,2.1,7.6,6.1c0,3.5-3.2,5.8-7.9,5.8c-3.4,0-6.5-1.2-8.5-2.5v0.8H53.9z"/>
	</g>
	<g>
		<path d="M92.4,390.8v17.1h-1.8V405c-1.3,1.6-3.9,3.4-7.2,3.4c-4.4,0-6.6-2.6-6.6-7.1v-10.4h1.8v10c0,5,3.1,5.8,5.4,5.8
			c2.7,0,5.5-2,6.7-3.9v-12H92.4z"/>
		<path d="M83.4,408.8c-4.6,0-7.1-2.7-7.1-7.6v-10.9h2.8v10.5c0,3.6,1.6,5.3,4.9,5.3c2.4,0,5-1.8,6.2-3.5v-12.3H93v18.1h-2.8v-2.2
			C88.9,407.3,86.7,408.8,83.4,408.8z M77.3,391.3v9.9c0,3,1.1,6.6,6.1,6.6c4,0,6.2-2.4,6.8-3.2l0.9-1.1v3.8h0.8v-16.1h-0.8v11.6
			l-0.1,0.1c-1.2,2-4.2,4.1-7.1,4.1c-3.9,0-5.9-2.2-5.9-6.3v-9.5h-0.7V391.3z"/>
	</g>
	<g>
		<path d="M98.8,407.9v-17.1h1.8v2.9c1.3-1.6,3.9-3.4,7.2-3.4c4.4,0,6.6,2.6,6.6,7.1v10.4h-1.8v-10c0-5-3.2-5.8-5.4-5.8
			c-2.8,0-5.5,2-6.7,3.9v12H98.8z"/>
		<path d="M114.9,408.4h-2.8v-10.5c0-3.5-1.6-5.3-4.9-5.3c-2.5,0-5.1,1.8-6.2,3.5v12.3h-2.8v-18.1h2.8v2.2c1.2-1.1,3.4-2.6,6.7-2.6
			c4.6,0,7.1,2.7,7.1,7.6L114.9,408.4L114.9,408.4z M113.1,407.4h0.8v-9.9c0-3-1.1-6.6-6.1-6.6c-4,0-6.2,2.4-6.8,3.2l-0.9,1.1v-3.8
			h-0.8v16.1h0.8v-11.6l0.1-0.1c1.2-2,4.1-4.1,7.1-4.1c2.2,0,5.9,0.8,5.9,6.3v9.4H113.1z"/>
	</g>
	<g>
		<path d="M119.1,399.4c0-4.8,3.4-9,8.7-9c3.2,0,5.6,1.5,7,3.4v-10.9h1.8v25h-1.8v-3c-1.4,2-3.8,3.4-7,3.4
			C122.6,408.3,119.1,404.1,119.1,399.4z M134.8,402.5v-6.3c-1.1-2.4-3.7-4.2-6.6-4.2c-4.1,0-7.3,3.2-7.3,7.4c0,4.1,3.1,7.3,7.3,7.3
			C131.1,406.7,133.7,404.9,134.8,402.5z"/>
		<path d="M127.8,408.8c-5.2,0-9.2-4.1-9.2-9.4c0-5.4,3.9-9.5,9.2-9.5c2.5,0,4.8,0.9,6.5,2.6v-10.1h2.8v26h-2.8v-2.1
			C132.7,407.9,130.4,408.8,127.8,408.8z M127.8,390.9c-5.3,0-8.2,4.4-8.2,8.5s2.9,8.4,8.2,8.4c2.8,0,5.1-1.1,6.6-3.2l0.9-1.2v4h0.8
			v-24h-0.8v12l-0.9-1.2C132.9,392,130.6,390.9,127.8,390.9z M128.2,407.2c-4.3,0-7.8-3.4-7.8-7.8c0-4.5,3.3-7.9,7.8-7.9
			c2.9,0,5.8,1.8,7.1,4.5l0.1,0.1v6.7C134,405.4,131.2,407.2,128.2,407.2z M128.2,392.5c-3.8,0-6.8,3-6.8,6.9s2.9,6.8,6.8,6.8
			c2.6,0,5-1.5,6.1-3.8v-6.1C133.2,394,130.7,392.5,128.2,392.5z"/>
	</g>
	<g>
		<path d="M141.5,402.7c0-3.4,3.1-5.6,7.1-5.6c3.1,0,5.3,1,6.6,1.8v-2.2c0-3.4-2.4-4.8-6-4.8c-2.4,0-4.6,1-5.8,1.8v-1.8
			c1.1-0.8,3.2-1.7,6.1-1.7c4.2,0,7.4,1.9,7.4,6.3v7.5c0,1.5,0.7,2.4,1.8,2.4c0.4,0,0.7-0.1,1-0.2v1.4c-0.4,0.2-0.9,0.3-1.4,0.3
			c-1.4,0-2.8-0.8-3-2.9c-1.5,1.7-3.9,3.2-7.3,3.2C144.7,408.3,141.5,406.4,141.5,402.7z M155.2,403.4v-2.8
			c-1.2-0.8-3.5-1.9-6.1-1.9c-3.6,0-5.7,1.6-5.7,4c0,2.9,2.6,4,5.3,4C151.6,406.7,154,404.9,155.2,403.4z"/>
		<path d="M148.1,408.8c-3.4,0-7.1-1.9-7.1-6.1c0-3.6,3.1-6.1,7.6-6.1c2.2,0,4.2,0.5,6.1,1.5v-1.3c0-2.8-1.9-4.3-5.5-4.3
			c-2.8,0-4.9,1.3-5.5,1.7l-0.8,0.5v-3l0.2-0.1c1-0.7,3.2-1.8,6.3-1.8c5,0,7.9,2.5,7.9,6.8v7.5c0,0.6,0.1,1.9,1.3,1.9
			c0.3,0,0.6-0.1,0.8-0.2l0.7-0.4v2.5l-0.2,0.1c-0.5,0.3-1.1,0.4-1.7,0.4c-1.3,0-2.8-0.6-3.3-2.4
			C153.1,407.9,150.8,408.8,148.1,408.8z M148.6,397.6c-3.9,0-6.6,2.1-6.6,5.1c0,3.5,3.1,5.1,6.1,5.1c2.8,0,5.1-1,6.9-3l0.8-0.9
			l0.1,1.2c0.2,2.3,1.9,2.5,2.5,2.5c0.3,0,0.7,0,0.9-0.1V407c-0.2,0-0.3,0-0.5,0c-1.4,0-2.3-1.1-2.3-2.9v-7.5c0-5-4.3-5.8-6.9-5.8
			c-2.7,0-4.6,0.9-5.6,1.5v0.6c1.1-0.6,3-1.4,5.3-1.4c4.2,0,6.5,1.9,6.5,5.3v3.1l-0.8-0.5C153,398.2,150.9,397.6,148.6,397.6z
			 M148.6,407.2c-3.5,0-5.8-1.8-5.8-4.5c0-2.8,2.4-4.5,6.2-4.5c3.2,0,5.7,1.5,6.4,2l0.2,0.1v3.2l-0.1,0.1
			C154.3,405.4,151.7,407.2,148.6,407.2z M149,399.2c-3.3,0-5.2,1.3-5.2,3.5c0,2.6,2.5,3.5,4.8,3.5c2.7,0,4.9-1.5,6.1-3v-2.3
			C153.3,400,151.2,399.2,149,399.2z"/>
	</g>
	<g>
		<path d="M162,414.6V413c0.7,0.4,1.4,0.6,2.3,0.6c2.4,0,3.6-2.1,5.4-6l-7.9-16.8h2l6.8,14.6l6.6-14.6h1.9l-8.6,19
			c-1.5,3.3-3.1,5.4-5.9,5.4C163.5,415.2,162.6,415,162,414.6z"/>
		<path d="M164.5,415.7c-1.2,0-2.2-0.2-2.8-0.6l-0.2-0.1v-2.8l0.8,0.4c0.6,0.3,1.2,0.5,2,0.5c2,0,3.1-1.6,4.8-5.5l-8.1-17.3h3.1
			l6.5,13.9l6.3-13.9h3L171,410C169.6,412.8,167.9,415.7,164.5,415.7z M162.5,414.3c0.4,0.2,1.1,0.3,2,0.3c2.2,0,3.8-1.5,5.4-5.1
			l8.3-18.3h-0.8l-6.9,15.4l-7.1-15.4h-0.9l7.7,16.2l-0.1,0.2c-1.7,3.8-3,6.3-5.8,6.3c-0.7,0-1.2-0.1-1.8-0.3L162.5,414.3
			L162.5,414.3z"/>
	</g>
</g>
<g>
	<path d="M64.5,50.3c0-13.8,9.4-25.1,22.8-25.1c5.1,0,9.5,1.4,13,3.7v4.7c-3.9-2.5-8.1-3.9-12.4-3.9C77.2,29.7,69,38.6,69,50.4
		c0,11.7,8.1,20.5,18.9,20.5c5.3,0,9.6-1.6,13.3-4.5v4.8c-3.9,2.8-8.6,4.2-13.9,4.2C73.9,75.3,64.5,64.1,64.5,50.3z"/>
	<path d="M117.5,59.7c0-9.6,7.9-15.6,17.9-15.6c7.8,0,13.3,2.8,16.7,5.1v-6.1c0-9.4-6-13.4-15.2-13.4c-6.1,0-11.5,2.8-14.5,5.1v-4.9
		c2.9-2.1,8.1-4.7,15.3-4.7c10.6,0,18.8,5.2,18.8,17.5v21c0,4.2,1.8,6.7,4.6,6.7c1,0,1.8-0.2,2.5-0.6v4c-1,0.7-2.3,0.8-3.6,0.8
		c-3.5,0-7.1-2.3-7.5-8.2c-3.9,4.8-9.7,9-18.4,9C125.7,75.3,117.5,70.1,117.5,59.7z M152.1,61.6v-7.8c-3.1-2.3-8.9-5.4-15.5-5.4
		c-9.1,0-14.4,4.4-14.4,11.2c0,8.1,6.6,11.3,13.3,11.3C143,70.9,149,66,152.1,61.6z"/>
	<path d="M180.8,26.4h4.4v9.9c2.9-5.6,9.6-11.1,17.4-11.1v5c-8.9,0-15.1,6.8-17.4,12.6v31.4h-4.4V26.4z"/>
	<path d="M215.3,50.4c0-13.3,9-25.2,22.9-25.2c14,0,23,11.9,23,25.2c0,13.2-9,25-23,25C224.3,75.3,215.3,63.6,215.3,50.4z
		 M256.7,50.4c0-11.7-8-20.7-18.5-20.7s-18.4,9-18.4,20.7c0,11.5,7.9,20.5,18.4,20.5S256.7,61.9,256.7,50.4z"/>
	<path d="M319.1,26.4v47.7h-4.4V66c-3.3,4.6-9.7,9.4-18.2,9.4c-11.2,0-16.7-7.4-16.7-19.9V26.4h4.4v28.1c0,14.1,7.9,16.3,13.6,16.3
		c6.9,0,13.9-5.6,16.9-10.9V26.4H319.1z"/>
	<path d="M337.7,70.3v-5.2c3,2.3,9.7,5.8,17.8,5.8c8.2,0,13.5-3.4,13.5-9.2c0-5.7-6-7.6-14.6-9.9c-8.1-2.2-15.3-5.1-15.3-13.6
		c0-7.8,5.8-13,16.7-13c5.6,0,11.8,1.7,15.6,4.4v5c-3.9-2.7-9.6-4.9-15.3-4.9c-8.8,0-12.5,3.7-12.5,8.5c0,6.1,6.5,7.7,13.2,9.5
		c8.3,2.2,16.9,4.6,16.9,14.1c0,8.7-8,13.6-18,13.6C347.8,75.3,341,72.7,337.7,70.3z"/>
	<path d="M389.9,50.4c0-14.3,8.8-25.2,21.5-25.2c15.1,0,19.9,14.7,19.9,24.3v1.6h-37c0.4,11.8,8.4,19.8,19.8,19.8
		c5.7,0,10.4-1.8,13.9-4.5v4.7c-2.9,2.4-8.3,4.3-14.5,4.3C400.1,75.3,389.9,65.1,389.9,50.4z M426.8,46.9c0-6.7-4.1-17.2-15.6-17.2
		c-10.5,0-16.4,9-16.9,17.2C394.3,46.9,426.8,46.9,426.8,46.9z"/>
	<path d="M450.6,64.2V4.3h4.4v58.8c0,5.1,2.2,7.6,6.3,7.6c1.7,0,3.2-0.5,4.5-1.4V74c-1.8,1.1-3.9,1.4-5.9,1.4
		C455.6,75.3,450.6,73,450.6,64.2z"/>
</g>
<polygon points="528.6,457.6 1.7,457.6 1.7,47.3 49.3,47.3 49.3,53.3 7.7,53.3 7.7,451.6 522.6,451.6 522.6,53.9 479.3,53.9 
	479.3,47.9 528.6,47.9 "/>
</svg>
