<svg id="Layer_1" data-name="Layer 1" xmlns="http://www.w3.org/2000/svg" viewBox="0 0 374 77"><title>Jackie_OGrady_Logo_carousel2</title><path d="M20.14,65.68A20.46,20.46,0,0,1,12.08,74,25.7,25.7,0,0,1,.22,77.14V67.76a13.74,13.74,0,0,0,9.58-4Q13.33,60,13.33,52.65V4.18H23V52.9A26.62,26.62,0,0,1,20.14,65.68Z"/><path d="M73.59,29.49V64.6h-9.3V59.54a19.65,19.65,0,0,1-5.14,4.11,14.92,14.92,0,0,1-7.56,1.87,19,19,0,0,1-9-2.12,15.42,15.42,0,0,1-6.31-6.27,20.23,20.23,0,0,1-2.33-10A20.53,20.53,0,0,1,36.32,37a17.07,17.07,0,0,1,15.27-9.09q8.55,0,12.78,6.31L65,29.49Zm-13,26.44a10.41,10.41,0,0,0,3.69-5.52V42.77a9.71,9.71,0,0,0-3.86-5.23,11.33,11.33,0,0,0-6.6-2,10.1,10.1,0,0,0-7.47,3.12,10.82,10.82,0,0,0-3.07,7.92,11.33,11.33,0,0,0,5.48,9.8,10.35,10.35,0,0,0,5.39,1.49A10.46,10.46,0,0,0,60.6,55.93Z"/><path d="M108.9,64.4a21.43,21.43,0,0,1-6.76,1.12,22.48,22.48,0,0,1-10.25-2.24A16.09,16.09,0,0,1,85,56.84,19.43,19.43,0,0,1,82.63,47a18.26,18.26,0,0,1,2.58-9.76,17.39,17.39,0,0,1,6.84-6.43,19.53,19.53,0,0,1,9.18-2.24q8.3,0,13.69,4.48l-4.65,6.06A15.28,15.28,0,0,0,106.58,37a11.6,11.6,0,0,0-4.52-.88,9.48,9.48,0,0,0-7.18,3.12A10.82,10.82,0,0,0,91.93,47,10.55,10.55,0,0,0,95,54.77,10.77,10.77,0,0,0,103,57.88a10.58,10.58,0,0,0,7-2.32l4.65,5.81A17.8,17.8,0,0,1,108.9,64.4Z"/><path d="M136.58,48.67l-4.06,3.15V64.6h-9.3V-.14h9.3V42.19l17.59-13.53,5.65,5L143,43.6l14.27,21H146.46Z"/><path d="M166.27,13.17a6,6,0,0,1,4-1.56,5.67,5.67,0,0,1,3.88,1.56A4.91,4.91,0,0,1,175.91,17a4.78,4.78,0,0,1-1.74,3.75,5.72,5.72,0,0,1-3.88,1.52,6,6,0,0,1-4-1.52A4.73,4.73,0,0,1,164.48,17,4.87,4.87,0,0,1,166.27,13.17Zm8.33,16.32V64.6h-9.3V29.49Z"/><path d="M211.28,54.81l4.23,6.89a27.48,27.48,0,0,1-6,2.78,20.48,20.48,0,0,1-6.23,1,21.77,21.77,0,0,1-10.5-2.41,16.73,16.73,0,0,1-6.8-6.64,19.53,19.53,0,0,1-2.37-9.71,17.61,17.61,0,0,1,2.66-9.46,19.25,19.25,0,0,1,7.22-6.85,20.15,20.15,0,0,1,10-2.53,17.27,17.27,0,0,1,11.87,4.19q4.72,4.19,6.3,11.83l-27,9.13a9.42,9.42,0,0,0,3.73,3.32,11.43,11.43,0,0,0,5.15,1.16A13.83,13.83,0,0,0,211.28,54.81ZM195.47,38.29a11.45,11.45,0,0,0-2.78,8,9.9,9.9,0,0,0,.08,1.41l18.43-6.56a10.61,10.61,0,0,0-3.15-4.23,8.45,8.45,0,0,0-5.4-1.66A9.26,9.26,0,0,0,195.47,38.29Z"/><path d="M249.76,20.06A31.62,31.62,0,0,1,261,8.71a30.21,30.21,0,0,1,30.87,0A32.11,32.11,0,0,1,303.21,20.1a30.26,30.26,0,0,1,0,30.83,31.17,31.17,0,0,1-11.33,11.22A30.95,30.95,0,0,1,261,62.2,30.77,30.77,0,0,1,249.76,51a30.1,30.1,0,0,1-4.15-15.55A30,30,0,0,1,249.76,20.06Z"/><path d="M348.76,31.54a10,10,0,0,1,3.37,7.62V65.31H342.8V42.49a6.8,6.8,0,0,0-1.62-4.33,5.94,5.94,0,0,0-4.37-1.67,8.56,8.56,0,0,0-7.13,3.75,15.35,15.35,0,0,0-2.79,9.42V65.31h-9.32V.35h9.16V36.08a14.89,14.89,0,0,1,5.54-5.46,16.29,16.29,0,0,1,8.28-2A11.85,11.85,0,0,1,348.76,31.54Z"/><path d="M364.08,64.62a5.32,5.32,0,0,1-1.62-4,5.69,5.69,0,0,1,5.74-5.76,5.28,5.28,0,0,1,4,1.67,5.7,5.7,0,0,1,1.58,4.09,5.27,5.27,0,0,1-5.58,5.57A5.77,5.77,0,0,1,364.08,64.62Zm8-62.77V49.32h-8.33V1.85Z"/></svg>