<?xml version="1.0" encoding="utf-8"?>
<!-- Generator: Adobe Illustrator 22.1.0, SVG Export Plug-In . SVG Version: 6.00 Build 0)  -->
<svg version="1.1" id="Layer_1" xmlns="http://www.w3.org/2000/svg" xmlns:xlink="http://www.w3.org/1999/xlink" x="0px" y="0px"
	 viewBox="0 0 600 128" style="enable-background:new 0 0 600 128;" xml:space="preserve">
<title>Jackie_OGrady_Logo_carousel2</title>
<path d="M33.5,108.5c-3,5.6-7.5,10.2-13,13.3c-5.9,3.2-12.4,4.9-19,5l0.1-15c5.8,0,11.3-2.3,15.4-6.4c3.8-4,5.7-9.9,5.7-17.8L23,9.8
	l15.5,0.1L38.2,88C38.4,95.1,36.8,102.2,33.5,108.5z"/>
<path d="M119.4,50.4v56.3h-14.9v-8.1c-2.4,2.6-5.1,4.9-8.2,6.6c-3.7,2.1-7.9,3.1-12.1,3c-5,0.1-10-1.1-14.4-3.4
	c-4.3-2.3-7.8-5.8-10.1-10.1c-2.6-4.9-3.9-10.5-3.7-16C55.7,73,57,67.4,59.6,62.4c4.8-9.1,14.2-14.7,24.5-14.6
	c9.1,0,16,3.4,20.5,10.1l1-7.6H119.4z M98.6,92.8c2.9-2.2,5-5.3,5.9-8.9V71.7c-1-3.4-3.2-6.4-6.2-8.4c-3.1-2.1-6.8-3.3-10.6-3.2
	c-4.5-0.1-8.9,1.7-12,5c-3.3,3.4-5.1,8-4.9,12.7c-0.1,6.4,3.3,12.4,8.8,15.7c2.6,1.6,5.6,2.4,8.6,2.4C91.9,96.1,95.6,95,98.6,92.8
	L98.6,92.8z"/>
<path d="M176.1,106.4c-3.5,1.2-7.2,1.8-10.8,1.8c-5.7,0.1-11.3-1.1-16.4-3.6c-4.6-2.3-8.5-5.9-11.1-10.3c-2.6-4.8-4-10.3-3.8-15.8
	c-0.1-5.5,1.3-10.9,4.1-15.7c2.6-4.4,6.4-7.9,11-10.3c4.5-2.4,9.6-3.6,14.7-3.6c8.9,0,16.2,2.4,22,7.2l-7.5,9.7
	c-1.8-1.4-3.8-2.5-5.9-3.4c-2.3-1-4.8-1.4-7.3-1.4c-4.4-0.1-8.6,1.8-11.5,5c-3.2,3.4-4.9,7.8-4.7,12.5c-0.1,4.7,1.6,9.2,4.9,12.5
	c3.4,3.4,8.1,5.2,12.8,5c4.1,0.1,8.1-1.2,11.2-3.7l7.5,9.3C182.6,103.7,179.4,105.4,176.1,106.4z"/>
<path d="M220.5,81.2l-6.5,5.1v20.5h-14.9V2.9H214v67.9l28.2-21.7l9.1,8L230.8,73l22.9,33.7h-17.3L220.5,81.2z"/>
<path d="M268.1,24.2c1.8-1.6,4-2.5,6.4-2.5c2.3,0,4.5,0.9,6.2,2.5c1.8,1.5,2.9,3.8,2.8,6.1c0,2.3-1,4.5-2.8,6
	c-1.7,1.6-3.9,2.4-6.2,2.4c-2.4,0-4.7-0.9-6.4-2.4c-1.8-1.4-2.9-3.7-2.9-6C265.2,28,266.3,25.7,268.1,24.2z M281.5,50.4v56.3h-14.9
	V50.4H281.5z"/>
<path d="M340.3,91l6.8,11.1c-3,1.9-6.2,3.4-9.6,4.5c-3.2,1-6.6,1.6-10,1.6c-5.9,0.1-11.6-1.2-16.8-3.9c-4.6-2.4-8.4-6.1-10.9-10.7
	c-2.6-4.8-3.9-10.1-3.8-15.6c0-5.4,1.4-10.6,4.3-15.2c2.8-4.6,6.8-8.4,11.6-11c4.9-2.7,10.4-4.1,16-4.1c7-0.2,13.8,2.2,19,6.7
	c5,4.5,8.4,10.8,10.1,19l-43.3,14.6c1.5,2.3,3.5,4.1,6,5.3c2.6,1.3,5.4,1.9,8.3,1.9C332.4,95.2,336.7,93.7,340.3,91z M315,64.5
	c-3.1,3.6-4.7,8.1-4.5,12.8c0,0.8,0,1.5,0.1,2.3l29.6-10.5c-1.1-2.7-2.8-5-5.1-6.8c-2.5-1.9-5.6-2.8-8.7-2.7
	C322.1,59.5,317.9,61.3,315,64.5z"/>
<path d="M402.1,35.3c4.4-7.5,10.6-13.8,18-18.2c15.3-9.1,34.3-9.1,49.5,0c7.5,4.5,13.8,10.7,18.2,18.3c9,15.3,9,34.2,0,49.5
	c-4.4,7.5-10.7,13.7-18.2,18c-15.3,8.9-34.2,8.9-49.5,0.1c-7.5-4.3-13.7-10.5-18-18c-4.4-7.6-6.7-16.2-6.7-24.9
	C395.4,51.3,397.7,42.7,402.1,35.3z"/>
<path d="M560.9,53.7c3.5,3.1,5.5,7.6,5.4,12.2v42h-15V71.3c0-2.5-0.9-5-2.6-6.9c-1.9-1.8-4.4-2.8-7-2.7c-4.6,0-8.9,2.2-11.4,6
	c-3.1,4.4-4.7,9.7-4.5,15.1v25.1h-15V3.6h14.7V61c2.1-3.7,5.2-6.7,8.9-8.8c4.1-2.2,8.6-3.3,13.3-3.2
	C552.6,48.8,557.3,50.5,560.9,53.7z"/>
<path d="M585.5,106.8c-1.7-1.7-2.7-4-2.6-6.4c-0.1-5,4-9.2,9-9.2c0.1,0,0.1,0,0.2,0c2.4-0.1,4.8,0.9,6.4,2.7
	c1.7,1.8,2.6,4.1,2.5,6.6c0.3,4.7-3.3,8.7-7.9,8.9c-0.3,0-0.7,0-1,0C589.7,109.3,587.3,108.4,585.5,106.8z M598.3,6.1v76.2H585V6.1
	L598.3,6.1z"/>
</svg>
