<?xml version="1.0" encoding="utf-8"?>
<!-- Generator: Adobe Illustrator 22.1.0, SVG Export Plug-In . SVG Version: 6.00 Build 0)  -->
<svg version="1.1" id="Layer_1" xmlns="http://www.w3.org/2000/svg" xmlns:xlink="http://www.w3.org/1999/xlink" x="0px" y="0px"
	 viewBox="0 0 800 448.6" style="enable-background:new 0 0 800 448.6;" xml:space="preserve">
<title>wild_things_logo</title>
<path d="M451.4,149.7c-0.8,0.7-1.5,1.5-2.1,2.4c-0.6,0.9-1,1.9-1.3,3c-0.3,0.9-0.4,1.8-0.4,2.7c0,0.8,0.2,1.6,0.6,2.2
	c0.4,0.6,1.1,0.9,1.9,0.9c1,0,1.9-0.3,2.8-0.8c0.9-0.5,1.8-1.2,2.5-2.1c0.8-0.8,1.4-1.8,1.9-2.8c0.5-0.9,0.7-2,0.7-3
	c0-1-0.4-1.9-1.1-2.5c-0.7-0.7-1.6-1.2-2.6-1.2C453.2,148.6,452.2,149,451.4,149.7z"/>
<path d="M223.2,322.7l-3.6-1.1c-0.4,1.1-1.9,8.5-2.1,9.8c-0.2,1.4-0.3,2.9-0.3,4.3c0,3.8,0.7,7.5,2.2,10.9c1.5,3.4,3.8,6.4,6.6,8.8
	c3.2,2.6,6.8,4.6,10.8,5.9c4.8,1.5,9.8,2.2,14.8,2.1c5.7,0.1,11.3-0.7,16.7-2.5c4.7-1.6,9.1-3.9,13-6.9c3.9-3,7.3-6.5,10.2-10.5
	c3.1-4.2,5.9-8.6,8.4-13.2c2.6-4.8,5.1-9.8,7.6-15.1c2.4-5.3,5-10.6,7.7-16.1s5.6-10.8,8.8-16.2c3.2-5.5,6.9-10.6,10.9-15.5l-2.3-2
	c-4.7,3.9-8.9,8.3-12.6,13.2c-3.7,4.8-7,9.8-10.1,15c-3.1,5.2-5.9,10.4-8.6,15.7c-2.6,5.3-5.3,10.3-7.9,15.3
	c-2.6,4.9-5.3,9.5-8.1,13.7c-2.6,4.1-5.7,7.9-9.2,11.3c-3.3,3.1-7.1,5.7-11.3,7.5c-4.5,1.9-9.3,2.8-14.2,2.7
	c-3.7,0-7.3-0.5-10.8-1.5c-3.4-0.9-6.6-2.4-9.5-4.5c-2.7-2-5-4.5-6.7-7.5c-1.7-3.2-2.6-6.9-2.5-10.5c0-1.2,0.1-2.5,0.3-3.7
	C221.4,330.9,222.9,323.7,223.2,322.7z"/>
<path d="M418.9,286.4c-0.8,0.7-1.5,1.5-2.1,2.4c-0.6,0.9-1,1.9-1.3,3c-0.3,0.9-0.4,1.8-0.4,2.7c0,0.8,0.2,1.6,0.7,2.2
	c0.4,0.6,1.1,0.9,1.9,0.9c1,0,1.9-0.3,2.8-0.8c0.9-0.6,1.8-1.3,2.5-2.1c0.8-0.8,1.4-1.8,1.9-2.8c0.5-0.9,0.7-2,0.7-3
	c0-1-0.4-1.9-1.1-2.5c-0.7-0.7-1.6-1.2-2.6-1.2C420.7,285.4,419.7,285.7,418.9,286.4z"/>
<path d="M790.7,307.4c-1.8-1.1-5-1.2-5.4-3.1c-0.3-1.3,4.2-3,4.9-4.5c1.5-3.4,2.3-6.9-0.7-10.6c-1.4-2-3.8-3-6.2-2.5
	c-3,0.7-6.1,0.5-9.1-0.5c-3.2-1.3-5.9-1.4-7.9,1.1c-0.9,1.1-2.1,1.1-3.6,0.5c-4.2-1.6-7-1-9.4,2.1c-0.7,0.9-1.7,1.6-2.9,1.8
	c-3,0.4-5.4,2.5-6.3,5.4c-0.4,1.4-0.9,1.6-2.3,0.5c-2.3-1.8-4.8-3.1-7.6-3.9c-3-1.1-5.8-2.5-8.4-4.2c1.4-0.5,2.7-1,3.8-1.5l0,0
	c0,0,0,0,0.1,0c2.3-1,4.5-2.3,6.5-3.8c0.6-0.2,1.1-0.5,1.7-0.7l0,0c2.6,0.7,5.4,0.5,8-0.4c4.4-0.9,8.9,0.4,12,3.6
	c0,0-2.1-8.6-10.4-8.3c-2.4,0.4-4.6,1.4-6.6,2.7c2.7-2.9,4.2-6.7,4.3-10.6c0,0-7.9,2.7-10.3,13.3c-0.9,0.6-1.8,1.2-2.7,1.7
	c1-1.4,1.8-3,2.3-4.6c1.4-2.1,4.4-7.8-6.2-12.1c1.5,2.1,2.7,4.3,3.8,6.6c-1.9-0.7-3.9-0.7-5.8,0c1.7,2.1,4.3,3.3,7,3.2
	c0.1,0.5,0.3,0.9,0.4,1.4c0,0.1-1.5,5.1-4.4,6.9c-1.3,0.6-2.8,1.2-4.5,1.7c-1.9-1.2-3.8-2.4-5.7-3.5c1-3,0.7-6.3-0.8-9.2
	c-2.2,1.6-3.5,4.2-3.5,7c-6.3-3.1-13-5.2-20-6.2c-0.8-0.1-1.7,0.1-2.6-0.9c2.9-2.1,5.3-4.7,7.3-7.7c0.2-0.4,0.5-0.9,0.8-1.4
	c1.5,0.3,3.1,0.1,4.6-0.5c3.1-1.2,5.9-2.8,6.3-6.7c0.2-1.7,1.6-2.8,2.5-4.1c2.7-3.9,2.7-5.6-0.1-9.4c-0.5-0.7-0.8-1.5-0.6-2.4
	c1.8,0.6,3.2,2.2,3.4,4.1c0.6,3.8,1.4,7.6-0.8,11.3c-1,2-0.9,4.3,0.2,6.2c1.2,2.4,2.2,4.8,3.4,7.3c0.6,1.2,1.6,1.4,2.1,0.2
	c0.9-1.8,1.4-3.7,1.6-5.6c0-2.1,0.1-4.3,0.3-6.4c0.2-2.5,1-5.4-2.1-7.1c-0.5-0.4-0.8-1-0.7-1.6c0-0.5-0.3-1.1,0.2-1.4
	c0.6-0.3,1,0.2,1.3,0.5c1.3,1.6,2.4,3.4,3.2,5.3c1.6,4,5.8,6.3,10,5.6c1.2-0.2,2.5-0.9,1.7-2.2c-1.4-2.2-1.8-4.8-3.5-6.8
	c-1.9-1.9-4.2-3.4-6.8-4.4c-4-2.1-7.9-4.4-11.7-7c2.8-1.6,6.3-1.3,8.7,0.8c2,2.2,5.2,3,8,2.1c3.6-0.8,7.1-1.9,10.7-2.8
	c1.3-0.3,2.4-0.8,2.6-2.1c0.2-1.3-0.9-2.4-2.1-2.9c-6.2-2.8-12.4-4.4-18.9-0.8c-3.6,2.1-7.7,2.5-11.5,3.7c-1.8,0.6-6.6-2.8-7.1-4.8
	c-0.3-1.1,0.7-1,1.3-1c2.8-0.2,5.5,0,8.3,0.5c3.7,0.8,6.2-0.8,8.3-3.3c2.3-2.5,3-6,1.9-9.1c-0.1-0.5-0.5-0.9-0.9-1.1
	c-2.7-1-3-2.8-2.4-5.3c0.5-1.8-0.5-3.7-2.3-4.2c-0.1,0-0.3-0.1-0.4-0.1c-0.2,0-0.3-0.1-0.5-0.2c-4.2-3.3-8.6-2.9-13.2-0.8
	c-3.2,1.5-3.5,4.5-3.6,7.2c-0.2,3.3-2.2,5.4-3.7,7.9c-0.7-1.9,0-3.9-0.7-5.7c-1.5-4.1-0.4-8.5-2.1-12.6c-1.1-3.3-3.7-5.9-7-7
	c-2.3-0.8-4.6,0-6.6,2.9c-1,1.6-2.8,2.6-4.6,2.6c-5,0.3-7.8,3.4-9.5,7.6c-1.3,3.8,0.8,8,4.6,9.3c0.1,0,0.2,0.1,0.4,0.1
	c2.6,0.9,5.3,1.5,8,1.7c3,0,5.9,0.7,8.5,2.2c-1.7,0.7-3.5,0.8-5.2,0.3c-2.7-0.4-5.4-1.1-8.2-1.4c-3.1-0.6-6.3,0.8-8,3.5
	c-1.5,2.2-3.3,4.1-4.9,6.2c-0.2,0.3-0.7,0.6-0.6,0.8c1,5-3.5,4-5.7,4.6c-5.2,1.6-10,4.1-14.4,7.2c-3.1,2.1-6.2,4.1-9.3,6
	c-0.5,0.5-1.3,0.6-1.9,0.3c2.7-3.2,3.2-7.3,4.5-11c2-4.9,6.3-8.4,11.5-9.3c1.5-0.4,3.1-0.3,4.6-0.6c5.5-0.9,8.4-5.1,11.1-9.3
	c1-1.5,0.7-2.6-1.7-3c-4-0.7-7.2,1-11.1,2.7c1-2.3,2.2-4.4,3.7-6.4c1.1-2,1.6-4.2,1.5-6.4c0-1.5-0.6-1.8-1.9-1.5
	c-4.8,1.2-10.9,9.6-10.5,14.7c0,1.1-0.6,1.5-1.2,2.1c-2.2,1.7-3.9,3.9-5.2,6.3c-0.3,0.6-0.3,1.6-1.3,1.3c-0.7-0.2-1.1-0.9-1-1.7
	c0.3-1.5-0.3-3.1-1.7-4c-0.9-1.2-1.4-2.6-1.3-4.1c-0.5-3.2-1.5-3.7-4.6-3.9c-6.2-0.2-6.3,1.8-4.9-5.5c0.4-1.9,0.3-2.1-1.5-1.7
	c-1,0.2-0.7-0.4-0.9-0.7c-1.5-3-3-3.5-6.2-3c-2.1,0.3-4.2,0.1-6.2-0.4c-4.5-1.4-9.2,1.2-10.6,5.7c-0.1,0.3-0.1,0.5-0.2,0.8
	c-0.4,1.8-1.1,1.9-2.1,0.9c-1.4-1.3-3.6-1.6-5.3-0.5c-5.3,2.1-10.2,5-12.5,10.8c-1.1,2.5-0.5,5.4,1.4,7.3c2.2,1.7,4.3,0.6,6.1-0.8
	c1.6-1,3.4-1.7,5.2-2.2c0.5-0.2,1.1-0.3,1.4,0.2s-0.1,1-0.5,1.3c-3.1,2.2-4.5,5.7-6.4,8.7c-1.8,2.4-1.4,5.9,1.1,7.7
	c0.1,0.1,0.1,0.1,0.2,0.2c-0.6,4.3-2.1,8.5-4.4,12.2c-0.8,0.8-2.8,2.9-4.7,4.8c-0.7-0.5-1.4-1-2.1-1.4c-0.3-0.2-0.5-0.4-0.8-0.6
	c0.7-0.5,1.2-1.2,1.3-2.1c5.8-3.5,6.6-9.3,6-15.5c-0.3-3.4-1.4-3.5-2.3-6.9c-0.1-0.5-0.2-1.2-1-1.4c-0.6-0.3-1.2,0-1.5,0.5
	c0,0,0,0,0,0.1c-1,3.4-3.5,4.5-5,6.8c-3.4,1.3-6.9,2.1-10.2,3.4c-9.9,3.9-18.5,10.6-24.5,19.5c-1.2,1.6-2.7,2.9-4.4,4
	c-0.9,0.6-1.5,1.6-1.1,2.4s1.5,0.2,2.2-0.1c4.3-2.1,9-3.5,13.8-3.9c3.3,4.7,9.4,11.8,12.2,14.9c0.1,1.2,0.1,2.4,0,3.6
	c-0.1,0.5,0.2,1.1,0.7,1.2c0.7,0.1,1.4-0.3,1.8-0.9l0.4-0.4c1.8,2.5,3.3,5.1,4.6,7.9l0,0h0.1c0.3,0.7,0.6,1.4,0.8,2.2
	c-0.4,0.4-0.8,0.9-1.1,1.3l0,0c-0.3,0.2-0.5,0.5-0.6,0.8l-0.4,0.6c-4-2.4-9-2.5-13.1-0.3c2.4,1.7,5.1,2.8,8,3.4
	c-2.5,1.4-5.1,2.6-7.8,3.5c0.6-1.1,0.9-1.7,0.9-1.8l-2.4-1.6l-3.9,5.1c-0.5-0.9-1.1-1.7-1.7-2.5c-0.8-1-1.7-1.8-2.8-2.4
	c-1.3-0.8-2.8-1.5-4.3-1.9c-2-0.6-4-0.8-6-0.8c-2.7,0-5.5,0.5-8.1,1.4c-3.1,1-6.1,2.3-8.9,3.9c-3.1,1.7-6,3.8-8.7,6
	c-2.8,2.3-5.3,5-7.5,7.9c-1.3,1.8-2.5,3.6-3.5,5.6l-0.2-0.2c-1.9,2.9-4,6-6.3,9.2c-2.3,3.2-4.7,6.2-7,9c-2.2,2.6-4.7,4.9-7.3,7
	c-1.7,1.6-3.9,2.5-6.2,2.7c-0.6,0-1.1-0.2-1.6-0.6c-0.6-0.6-0.8-1.4-0.7-2.2c0-1.7,0.4-3.3,1.1-4.8c0.8-1.9,1.7-3.8,2.8-5.6
	c1.1-1.9,2.3-3.9,3.5-6c1.3-2.1,2.5-4.1,3.6-6.4c1.1-2.1,2-4.2,2.7-6.5c0.7-2,1.1-4.2,1.1-6.3c0.1-2.2-0.3-4.3-1.1-6.3
	c-0.6-1.4-1.6-2.7-2.7-3.8c-1-0.9-2.2-1.5-3.4-1.9c-1-0.3-2.1-0.5-3.2-0.5c-1.2,0-2.4,0.2-3.6,0.5c-1.5,0.4-2.9,1-4.3,1.7
	c-1.8,0.9-3.5,2-5.1,3.2c-2.1,1.6-4.1,3.3-6,5.2c0.3-1.3,0.4-2.6,0.4-3.9c0-1.4-0.2-2.8-0.6-4.1c-0.4-1.1-1-2.2-1.8-3.1
	c-1.4-1.7-3.5-2.6-5.7-2.6c-2,0-4,0.7-5.6,1.9c-2.1,1.5-3.9,3.4-5.4,5.4c-2.1,2.6-4,5.4-5.8,8.3c-2.1,3.2-4.3,6.7-6.7,10.6
	c-1.8,2.8-3.6,5.5-5.4,8.3c-1.7,2.5-3.5,5-5.5,7.2c-1.7,1.9-3.5,3.6-5.6,5.1c-1.7,1.3-3.7,2-5.8,2.1c-0.9,0.1-1.8-0.2-2.5-0.8
	c-0.7-0.8-1-1.8-0.9-2.9c0.1-1.9,0.4-3.8,1-5.7c0.8-2.4,1.6-4.8,2.6-7.1c1.1-2.5,2.3-5.2,3.7-7.8c1.4-2.7,2.7-5.3,4-7.7
	c1.3-2.4,2.6-4.8,3.8-6.9c1.2-2.1,2.1-3.7,2.6-5l-2.3-1c-2.2,2.6-4.7,5.5-7.3,8.7c-2.6,3.2-5.1,6.5-7.3,10c-1.1,1.7-2.1,3.4-3,5.1
	c-1.4,2.4-2.9,4.8-4.6,7.3c-2,3-3.9,5.8-5.9,8.3c-1.7,2.2-3.6,4.2-5.8,6c-1.4,1.4-3.2,2.2-5.2,2.4c-1.1,0.1-2.2-0.5-2.7-1.4
	c-0.5-1-0.8-2-0.8-3.1c0-2,0.4-3.9,1.1-5.8c0.8-2.3,1.7-4.5,2.7-6.6c1.1-2.2,2.3-4.4,3.5-6.7c1.2-2.3,2.4-4.5,3.5-6.7
	c1-2,1.9-4.1,2.7-6.2c0.7-1.8,1.1-3.7,1.1-5.6c0-1-0.1-2.1-0.4-3.1c-0.3-1-0.7-2-1.4-2.8c-0.7-0.9-1.6-1.6-2.7-2.1
	c-1.4-0.6-2.8-0.9-4.3-0.8c-2.7,0-5.4,0.6-7.9,1.8c-2.9,1.3-5.7,3-8.3,5c-3,2.3-5.7,4.8-8.3,7.6c-2.9,3-5.5,6.2-8,9.6l8.9-19.4
	c2.8-2.7,5.7-5.6,8.8-8.7c3.1-3.1,6.1-6.4,9-9.7c3-3.3,5.8-6.7,8.5-10.1c2.7-3.4,5-6.7,7.1-9.9c1.9-2.9,3.5-6,4.9-9.1
	c1.1-2.4,1.7-5.1,1.8-7.7c0.1-1.9-0.5-3.7-1.8-5.1c-1.3-1.2-3.1-1.9-5-1.8c-2,0-3.9,0.5-5.6,1.5c-2,1.1-3.8,2.4-5.4,4
	c-1.8,1.7-3.4,3.5-4.9,5.4c-0.8,0.2-1.5,0.5-2.4,0.6c-3.5,0.8-7.1,1.3-10.7,1.6c-3.7,0.3-7.4,0.5-11.2,0.5c-5,0-10.2-0.3-15.6-0.8
	c-5.4-0.5-10.7-1.1-16.1-1.7s-10.5-1.2-15.6-1.7c-4.8-0.5-9.6-0.8-14.4-0.8c-3.8,0-7.5,0.3-11.2,0.8c-3.7,0.5-7.4,1.4-10.9,2.7
	c-3.4,1.2-6.7,2.8-9.8,4.7c-1.5,0.9-2.9,1.9-4.2,3.1c-0.1-2.4-0.3-4.8-0.7-7.1c-0.7-5.5,0.6-8.1,5.7-10.9c1.5-1.1,2.8-2.5,3.8-4.1
	c1.8-0.5,3.6-0.9,5.4-1.3c2.3-0.5,5.3-1.2,5.3-2.7s-4.3-2.1-5.5-2.1c-0.8,0-1.5,0.1-2.3,0.2c0-0.1,0-0.2,0-0.3
	c0-0.7,0.4-1.6-0.5-1.9c-0.8-0.2-1.7,0-2.3,0.6c-0.8,0.8-1.5,1.8-2.1,2.8c-2.3,0.8-4.6,1.7-6.9,2.5c-1,0.3-2.4,1.5-3,0.3
	c-0.6-1.2-3.9-1.2-1.3-3.5c0.4-0.3,0.6-0.9,0.3-1.3c-0.1-0.2-0.2-0.3-0.4-0.3c-0.7-0.3-1.1-1.1-0.8-1.9c0-0.1,0.1-0.1,0.1-0.2
	c0.3-0.7,0.1-1.3-0.7-1.5c-1.5-0.3-0.8-1-0.3-1.8c1.2-2.3,0.5-5.1-1.7-6.5c-1.1-0.5-0.8-1-0.4-1.7c0.9-1.4,0.2-2.2-0.7-3.3
	c-1.9-1.9-3.1-4.5-3.4-7.1c0-4.4-2.5-5-6.2-7.4c-0.5-0.3-1.2-3.2-1.9-2.8c-0.5,0.2-0.8,0.8-0.5,1.4c0,0.1,0.1,0.1,0.1,0.2
	c1,2.4,0,5.2,0.8,7.7c0,0.7-0.1,1.4-0.5,2.1c-0.4,0.8-0.9,1.8-0.4,2.4c1.7,2.1-0.4,4.6,0,6.7c0.4,2.1-1.2,5.2,2.2,6.4
	c-2.3,1-2.4,2.1-1.8,3.6c0.5,1.1,0.9,2.2,1.2,3.4l-0.6-1.1c-1.8-3.1-4.9-5-3.2-8.6c0,0,0,0-0.2-0.2c-4,2.8-6.3,7.5-6.2,12.4
	c-0.3,3.4,0.2,6.7,1.3,9.9l-0.7,0.1c-0.2-2.8-2.4-4.7-3.6-7.1c-0.6-1.2,0-3.1,0-4.6c0-0.7,0.3-1.4-0.7-1.8c-0.3,0-0.8-0.5-0.7-0.5
	c2.2-3.3-2.4-4.4-2.1-6.7c0.1-1.9-0.5-3.9-1.5-5.5c-1-2.1,0.8-5.5-3.1-6.4c-1-0.2-0.7-1.9-1.1-2.8c-1-2.1-3.6-3.2-3.9-5.7
	c0-0.2-0.1-0.5-0.2-0.7l32.2-27.8l0.1,0.4c1.3,3.6,3.4,6.9,6,9.7c2.7,2.8,5.8,4.9,9.4,6.4c3.9,1.6,8,2.3,12.2,2.3
	c9.9,0.2,19.6-2.9,27.5-8.9c7.7-5.9,13.9-14.7,18.6-26.3l-3.3-1.2c-1.7,4.3-3.8,8.3-6.4,12.2c-2.4,3.7-5.3,7-8.6,9.9
	c-3.2,2.8-6.8,5-10.7,6.6c-4,1.7-8.4,2.5-12.7,2.4c-3.7,0.1-7.3-0.6-10.7-1.9c-3.1-1.2-5.9-3-8.3-5.4c-2.3-2.4-4-5.2-5.2-8.3
	c-0.5-1.3-0.9-2.6-1.1-4l59.6-51.6c3.3,0.3,6.5,0.9,9.6,1.8c4.3,1.3,8.4,3.4,11.9,6.2c3.2,2.6,5.8,5.8,7.6,9.5
	c3.2,6.7,3.7,14.4,1.2,21.4c-1.2,3.4-2.7,6.8-4.5,10c-1.9,3.4-4,6.9-6.3,10.3c-2.3,3.5-4.7,6.9-7.1,10.2l-6.9,9.6
	c-2.2,3-4.1,5.8-5.7,8.3c-1.3,2.1-2.4,4.3-3.2,6.6c-0.7,2.2-1.1,4.5-1.1,6.9c0,1.4,0.2,2.7,0.6,4c0.4,1.2,1.1,2.3,2,3.2
	c1,0.9,2.1,1.6,3.4,2.1c1.6,0.6,3.2,0.8,4.9,0.8c1.5,0,2.9-0.2,4.3-0.5c1.8-0.5,3.6-1.1,5.3-1.9c2.2-1,4.4-2.2,6.5-3.4
	c2.4-1.4,5-3.1,7.8-5.3c6.4-4.8,12.4-10.2,17.8-16.1c5.5-5.9,10.7-12.1,15.6-18.6c-2.1,3.6-3.9,6.9-5.5,9.7s-2.9,5.5-4,7.9
	c-1,2.2-1.8,4.4-2.5,6.7c-0.5,2-0.8,4.1-0.8,6.2c-0.3,3.1,1,6.2,3.3,8.3c2.6,1.9,5.8,2.8,9,2.6c2.4-0.1,4.8-0.6,7-1.6
	c3-1.2,5.8-2.6,8.5-4.3c3.2-2,6.3-4.3,9.2-6.7c3.3-2.7,6.4-5.6,9.3-8.7c3.1-3.3,6.1-6.7,8.8-10.3c2.8-3.6,5.4-7.4,7.7-11.4
	c2.3-4,4.4-7.8,6.2-11.6s3.3-7.1,4.4-10.5c1.1-3.1,2.1-6.3,2.8-9.5c0.6-2.5,0.9-5.1,1-7.8c0-1.1-0.1-2.2-0.3-3.2c-0.2-1-0.5-2.1-1-3
	c-0.5-0.9-1.1-1.7-1.9-2.2c-0.9-0.6-1.9-0.9-2.9-0.9c-2.2,0-4.1,1.4-5,3.4c-1.3,2.8-1.9,5.9-1.8,9c0,2.8,0.4,5.5,1,8.3
	c0.7,3,1.7,5.8,3.1,8.5c-2.5,6.2-5.5,12.2-8.9,17.9c-2.3,3.9-4.8,7.7-7.6,11.2c-2.7,3.4-5.5,6.7-8.5,9.8c-2.8,2.9-5.8,5.7-8.9,8.3
	c-2.7,2.2-5.6,4.3-8.6,6.2c-2.4,1.5-4.9,2.9-7.6,4c-1.9,0.9-3.9,1.3-6,1.4c-0.5,0-1,0-1.5-0.1c-0.6-0.1-1.2-0.3-1.8-0.5
	c-0.6-0.3-1.2-0.7-1.6-1.3c-0.5-0.7-0.7-1.5-0.6-2.4c0-1.3,0.3-2.5,0.6-3.7c0.6-2,1.3-3.9,2.2-5.7c1-2.3,2.4-5.1,4-8.3
	s3.7-7,6.2-11.3c3-5.5,6-11.5,9-17.9c2.6-5.5,5.4-11.9,8.3-19.1s5.6-14.8,7.9-22.7l-3.5-1.4c-0.6,1.5-1.5,3.5-2.7,6.2
	c-1.2,2.6-2.7,5.6-4.4,9c-1.7,3.4-3.7,7.1-6,11.1s-4.8,8.3-7.5,12.5c-2.7,4.3-5.7,8.7-9,13.2c-3.2,4.5-6.7,8.9-10.3,13.2
	c-3.7,4.3-7.5,8.5-11.6,12.4c-4,3.9-8.3,7.6-12.8,11c-3.8,2.9-7.9,5.5-12.2,7.7c-2.9,1.5-6,2.4-9.3,2.6c-1.5,0.1-3-0.4-4.1-1.3
	c-1-0.8-1.5-2.1-1.5-3.4c0.2-1.8,0.8-3.6,1.8-5.1c1.2-2.1,2.9-4.5,5.1-7.6c2.2-3,4.8-6.6,7.9-10.7c3.1-4.1,6.5-9,10.3-14.7
	c3.6-5.3,6.4-11.1,8.4-17.2c1.6-4.7,2.4-9.6,2.5-14.6c0.1-5.5-1-10.9-3.4-15.9c-2.2-4.5-5.4-8.5-9.4-11.5c-4.3-3.2-9.1-5.6-14.3-7
	c-2-0.5-4-1-6-1.3l109.2-94.6l141.2,122.4c-0.3,0.5-0.6,0.9-0.9,1.4c-1.9,2.9-3.6,5.7-5.1,8.3c-1.5,2.6-2.9,4.9-4.1,7
	c-1.2,2.1-2.1,3.8-2.7,5.2c-1.3-1-2.6-1.7-4.1-2.3c-2.4-0.9-4.9-1.3-7.4-1.2c-2.6,0-5.1,0.5-7.6,1.3c-2.8,0.9-5.5,2.1-8,3.7
	c-2.7,1.6-5.3,3.5-7.6,5.7c-2.4,2.3-4.5,4.8-6.3,7.5c-1.9,2.8-3.4,5.8-4.5,9c0,0,0,0.2-0.1,0.3l-0.1-0.1l-2.9,4.3
	c-1.1,1.6-2.4,3.3-3.7,5.1c-1.4,1.8-2.8,3.5-4.4,5.2c-1.5,1.6-3.1,3.2-4.8,4.6c-1.5,1.3-3.2,2.4-5,3.3c-1.5,0.8-3.2,1.2-5,1.3
	c-2.3,0.1-4.5-1.1-5.7-3c-1.6-2.9-2.3-6.1-2.1-9.3c0-1.4,0-2.9,0-4.6c0-1.8,0.2-3.5,0.5-5.2c0.9-0.9,1.7-1.8,2.5-2.5
	s1.7-1.6,2.7-2.5c1-0.9,2.1-2.1,3.3-3.3c1.3-1.2,2.8-3,4.6-5c1.8-2,4-4.5,6.5-7.5s5.5-6.6,9-10.9c1.7-2.1,3.5-4.4,5.2-6.9
	s3.4-5.1,5.1-7.7s3.1-5.3,4.5-8c1.4-2.7,2.6-5.2,3.7-7.7c0.9-2.2,1.8-4.5,2.5-6.7c0.5-1.7,0.9-3.5,0.9-5.3c0.2-1.7-0.4-3.4-1.7-4.5
	c-1.2-0.8-2.7-1.2-4.1-1.2c-2.6,0.1-5.1,0.9-7.2,2.2c-3,1.7-5.8,3.8-8.3,6.2c-3.2,2.9-6.2,6.1-8.9,9.5c-3.1,3.8-5.9,7.8-8.5,11.9
	c-2.7,4.3-5.3,8.7-7.7,13.5c-2.3,4.7-4.4,9.4-6.2,14.3c-1.7,4.7-3.1,9.5-4.1,14.4c-0.5,2.1-0.8,4.3-1.1,6.4l-0.3-0.2
	c-1.8,2.7-3.6,5.5-5.3,8.3c-1.7,2.5-3.5,4.9-5.5,7.2c-1.6,1.9-3.5,3.6-5.6,5.1c-1.7,1.2-3.7,1.9-5.8,2c-0.9,0.1-1.8-0.2-2.5-0.8
	c-0.7-0.8-1-1.8-0.9-2.8c0.1-1.9,0.4-3.8,1-5.6c0.7-2.4,1.6-4.8,2.6-7.1c1.1-2.5,2.3-5.1,3.6-7.8c1.3-2.7,2.7-5.2,4-7.7
	s2.5-4.7,3.7-6.7c1.1-2.1,2.1-3.7,2.6-4.9l-2.3-1c-2.2,2.6-4.7,5.5-7.3,8.7c-2.6,3.2-5.1,6.5-7.3,9.9c-2.2,3.3-4,6.8-5.6,10.4
	c-1.4,3.2-2.2,6.6-2.2,10.1c-0.1,2.4,0.7,4.8,2.3,6.7c1.7,1.8,4.2,2.8,6.6,2.6c3,0,6-0.8,8.5-2.4c2.7-1.7,5.1-3.7,7.1-6
	c2.2-2.5,4.2-5.1,5.9-7.9c0.7-1.1,1.3-2.1,1.9-3.2c0,0.2,0,0.5,0,0.7c-0.1,3.1,0.4,6.1,1.3,9c0.7,2.3,1.8,4.4,3.3,6.2
	c1.3,1.5,2.9,2.8,4.8,3.5c4.1,1.7,8.8,1.4,12.6-0.7c2.4-1.2,4.6-2.8,6.5-4.5c2-1.9,3.9-3.9,5.6-6.1c1.8-2.1,3.3-4.1,4.6-6
	c0.2-0.2,0.3-0.5,0.5-0.7c0,0.5,0,1.1,0,1.6c-0.1,2.8,0.5,5.5,1.7,8c1,2,2.4,3.8,4.1,5.2c1.6,1.2,3.3,2.2,5.2,2.7
	c1.7,0.5,3.4,0.8,5.1,0.8c3.4-0.1,6.8-1.1,9.7-3c3.9-2.4,7.3-5.4,10.3-8.9c0.1,1.7,0.7,3.4,1.5,4.9c0.7,1.2,1.6,2.2,2.7,3
	c1,0.7,2.1,1.2,3.3,1.5c1.1,0.3,2.2,0.4,3.4,0.4c2.1,0,4.3-0.4,6.2-1.3c1.9-0.9,3.7-2.1,5.2-3.4c1.6-1.4,3-3,4.3-4.7
	c1.3-1.6,2.4-3.3,3.5-5.1c1-1.7,1.9-3.2,2.7-4.6s1.5-2.6,2.1-3.4l-2.6-2.1c-0.6,1-1.4,2.1-2.2,3.5c-0.8,1.5-1.7,2.9-2.7,4.4
	s-2.1,3.1-3.2,4.6c-1.1,1.5-2.3,2.9-3.6,4.1c-1.2,1.2-2.5,2.2-4,3c-1.3,0.8-2.8,1.1-4.3,1.2c-1.3,0.1-2.6-0.5-3.4-1.6
	c-1-1.7-1.5-3.7-1.3-5.7c0-1.8,0.2-3.6,0.5-5.4c0.4-2.5,1-5,1.7-7.4c0.8-2.8,1.9-6.1,3.2-9.7s3.1-7.8,5.2-12.4
	c1.4-3,2.9-6.1,4.7-9.4c1.8-3.3,3.6-6.5,5.4-9.6l0.6-1l79.8,69.1l1.5-1.3l-80.3-69.5c1.2-1.9,2.3-3.8,3.4-5.7l83,71.9l2.9-2.5
	l-83.9-72.7c1.3-2.1,2.6-4.1,3.7-5.8c1.6-2.5,3-4.6,4.1-6.4s2.1-3.1,2.6-3.8l-3.1-2.1c-2.4,2.5-4.8,5.2-7.1,8.1
	c-1.7,2.1-3.2,4.1-4.7,6.2L410.3,5.2L283.2,115.3c-1.8,0.2-3.6,0.4-5.5,0.8c-4.5,0.8-8.9,2-13.1,3.6c-4.6,1.7-9,3.8-13.1,6.4
	c-4.2,2.6-8.1,5.8-11.4,9.4c-3.4,3.8-6.1,8.1-8.1,12.8c-1.8,4.5-2.8,9.2-2.9,14l-54.4,47.1c-0.8-0.9-1.7-1.7-2.6-2.5
	c-0.3-0.3-0.7-0.4-1.1-0.4c-0.7,0.2-0.7,0.8-0.7,1.2c0.7,3.7-0.4,7.6,0.5,11.3c0.5,2.4,0.2,4.9-0.8,7.1c0,0.2-0.5,0.5-0.4,0.7
	c1.7,2.7-0.4,5.9-0.3,8.9c0.4,2.9,0.2,5.8-0.5,8.6c-0.4,1.1-0.7,2.1,0.6,2.7c1.3,0.6,1,1.8,1.2,2.7c0.4,1.5-0.5,3.3,1.6,4.4
	c0.7,0.3,0.2,2.1-1.3,2.3c-0.8,0.2-1.7,0.5-2.5,0.7c1-3.3,0.6-5.4-1.6-6.9v-0.2c-1.2-2.7-3.3-5.1-3.3-8.6c-0.2-2.6-0.8-5.2-1.7-7.7
	c-0.3-0.9-1.8-0.6-2.8-1.1c3.4-3.4,0.9-6.4,0.4-9.3c-0.8-4.7-1.2-9.1,1.6-13.8c-1.1-0.4-1.6,0.4-2.1,0.8s-1.1,1.2-1.7,1.5
	c-6.3,2.1-5.6,7.1-7.7,10.9c-2.1,3.8-0.9,7.9-1.8,11.8c-0.4,1.8,0.8,3.3,0.8,5.2s0.9,4.1-0.2,6.4c-0.6,1.1,0.5,1.6,1.5,1.8
	c0.6,0.1,1,0.3,1.1,0.6c-2.1,1.2-3.7,3-4.8,5.1c-0.7-0.2-0.7-0.7-0.4-1.3c0.8-1.4,0.9-2.5-0.7-3.3c-0.2-0.1-0.5-0.6-0.4-0.7
	c1.9-2.1,0.2-4,0.4-6c0.3-1.8-0.7-3.5-2.4-4.1c-0.6-0.2-1.1-0.5-0.6-1c1.3-1.6,0-2.3-0.5-3.5c-1.3-3-3.2-5.7-5.5-7.9
	c-0.8-0.9-0.4-2.1-2.2-3c-3-1.4-6.2-0.1-9-0.8c-0.8-0.2-2.1,0-1.1,1.1c1.5,1.8,2.5,4.1,2.6,6.5c0,0.7,0.4,1.3,1.1,1.5
	c1.2,0.4,2.1,0.8,1.2,2.1c-0.2,0.4,0.2,0.8,0.6,0.9c2.5,0.5,1.9,2.7,1.6,3.8c-0.6,1.8,0,2.7,1.9,3.3c-2.2,1.5-3.1,2.7-1.3,4.5
	c0.1,0.1,0.2,0.2,0.3,0.3l0,0c-1.8-0.3-3.6-0.3-5.4,0c-0.2-0.6-0.4-1.1-0.7-1.6c-0.9-1.9-1.5-4-1.5-6.2c-0.4-2.6-1.4-5-2.9-7.1
	c-1-1.6-2.1-3-3.5-4.3c-2.4-2.2-5.8-3.2-9-2.6c0,0.4-0.2,0.6-0.1,0.7c3.9,2.3,2.1,6.2,2.3,9.5c0.1,1.7-1.4,3.8,0.4,5.2
	c0.1,0.2,0.2,0.4,0.3,0.6c-3.9,1.7-0.1,3.9-1.6,6.2c-1.1,1.7-0.7,4.4-1.2,6.7c0,0.4,0,0.9,0.4,1c1.4,0.5,1.3,1.2,0.3,2.2
	c-0.3,0.5-0.3,1.1,0,1.6c1.3,3.5,1.3,3.5-3.9,3.6c1.4-0.6,2.2-2.2,1.8-3.7c-0.1-2.7,0.1-5.4,0.6-8.1c0.4-2.7-1-5.5-0.3-8.3
	c1-3.9-2.1-6.2-2.6-9.6c-0.2-2.1-6.8-5.7-8.9-5.4c-0.4,0.7,0.3,0.8,0.7,1c1.3,0.6,1.8,2.1,1.2,3.4c0,0.1-0.1,0.2-0.1,0.2
	c-1,2.3-1.5,4.8-1.5,7.3c0.3,2.9,0.1,5.9-0.6,8.7c-1.4,3.7-1.1,7.4-2.1,11c-0.4,1.5,0.7,2.1,1.6,3.1c-0.3,0.1-0.5,0.3-0.8,0.3
	c-4.4,0.3-5.6-0.4-4.4-3.9c0.9-2.6-0.3-4.3-0.8-6.3c-1.2-4.6-3.1-8.9-5.7-12.8c-1.9-2.5-5.2-3.5-8.3-2.5c-1,0.3-0.7,0.7-0.6,1.3
	c0.4,2.2,1.3,4.2,2.5,6c2.4,4.1,3,9,1.8,13.6c-0.3,1.2-0.4,2.4-0.3,3.6c0.1,0.7-0.4,1.3-1.1,1.4c-1,0.2-0.6-0.5-0.8-1
	c-0.9-3.1-1.3-6.3-1.4-9.5c-0.1-1.3-2.5-1.6-2.7-3.3c0-1.8-0.6-3.5-1.6-5c-2.5-3.3-6.5-4.3-11.2-2.4c-1,0.4-2.1,0.7-3.8,1.2
	c2.7,0.2,3.8,1.9,6.2,1.7c0.9,0,0.9,0.7,1.1,1.3c1.2,5,1.5,10.2,0.8,15.4c0,0.7,0.8,1.2,0,2.1c-1.2,0.1-1.2-0.7-1.1-1.2
	c0.8-3.9-1.4-7.1-2.4-10.5c-0.6-2.1-2.8-3.5-4.7-4.7c-1.9-1.2-4.7,0-6.9,0.7c-1.4,0.4-3.5-0.5-4.1,1.1s2.1,1.1,2.6,2.1
	c1.3,1.8,1.4,4.2,0.3,6c-1.4-3.5-5.2-3.9-8.3-4.9c-0.8-0.3-2.2-0.6-2.9,0.4c-0.7,1,0.7,1.3,1.3,1.7c1.4,0.9,2.2,2.1,1.2,3.9
	c-1-0.5-0.9-1.6-1.8-2.1c-1.2-0.6-2.3-1.8-3.4,0.5c-0.2,0.4-0.7,0.9-1.1,0.7c-2.8-1.4-6.2,0.6-9.1,0c-1.4-0.3-3.3-0.9-4.6,0.9
	c-0.2,0.1-0.4,0.1-0.5,0c-2.9-2.4-6.7,1.7-9.9,0.3c-1.2-0.3-2.4,0.3-2.9,1.5c-0.4,1.7,0.5,2.7,2.4,3c1.6,0.2,3.9-0.3,3.7,2.1
	c3.1-0.4,2.1,2.4,3.6,3.4c3.7,2.2,5,2.1,7.3-1.8c0.1-0.4,0.6-0.7,1-0.6c0.6,0.9-0.7,1.5-1.1,2.3c-1.5,2.7-0.8,4,2.5,4.1
	c1.9,0,1.2,0.8,0.5,1.5c-1.5,1.4-0.4,1.6,0.8,1.3c2.2-0.1,4.3-0.8,6.2-1.8c-0.3,1.6,0.5,3.1-1.7,4.1c-0.3,0.2-0.6,0.5-0.5,0.8
	c0.2,0.3,0.8,0.3,1.2,0.3c2.6,0,5-1.1,6.7-3.1c-0.4,2.9,0.6,4.8,3,5.2c1.9,0.1,3.6-1,4.4-2.7c-0.9,3.2-3,6-5.7,7.8
	c3.8,0.1,5.7-3.3,9.2-3.1c-1.9,2.1-0.3,5.4-4.8,6.7c4.1,0.9,10.8-2.9,13.8-9c0.9,4.3-1.4,8.3-4.3,11.9c3.5,0.3,6.9-1,9.3-3.5
	c4.4-5.2,5.9-11.2,8.5-16.8c0.2-0.6,0.5-1.3,0.9-1.9c0-0.2,0.7-0.3,1-0.3s0.5,0.3,0.4,0.7c-0.8,1.8-0.8,3.9,0,5.8
	c0.3,0.7-0.6,2.1-0.7,3.3c0.2,2,0.1,4-0.3,6c-0.1,0.5-0.1,1,0,1.4c0.3,4,0.2,4.3-2.6,7.7c5.4,1,11.8-2.8,12.5-7.4
	c0.7-4.4,1.2-8.7,1.7-13.1c0.1-1.4,1-2.5,2.3-2.9c-0.2,3-0.1,5.9,0.3,8.9c0.3,2.4,0.3,4.9,0,7.3c0,0.2,0,0.4,0,0.5
	c3,2.1-0.4,4.6-0.9,6.8c-0.3,1.1-1.7,2.9-1,3.3c1.6,0.5,3.3,0.3,4.7-0.6c2-0.9,3.5-2.5,4.4-4.5c0.6-2.2,1.7-4.2,3.2-5.8
	c1.4-1.4,0.7-3.2,1-4.8c0.5-2.7,0-5.3,1.7-8.1c0.8-1.3-0.4-2.5-0.1-4.1c0.8-4,0.5-4,5.1-4.4c0.9,0,1.7,0,2.9-0.1
	c-1.1,0.6-2.3,1-3.5,1.1c-1.2,0.2-2.3,1-2.8,2.2c-0.5,1,0.3,1.4,1.2,1.8c0.8,0.3,0.8,1,0.2,1.6c-2.2,2.4-0.9,3.2,1.7,3.5
	c-2.4,2.7-2.2,3.3,0.9,4.3c-0.6,1.1-3.6,2.4-0.5,3.4c0.7,0.2,0.1,0.8-0.3,1.2s-1.1,1.2-0.4,1.7c1.7,1.3,0.2,3.2,0.2,4.7
	c0,3.1-2.2,6.2-2.6,9.7c1.1-0.7,2.1-1.3,3.2-1.9l0.2,0.3c1.1,1.2,0.2,1.5-0.8,1.8c-0.4,0.1-0.8,0-1.1,0.7c2.6,1,3.8,1.5,6.4,2.7
	c2.6,1.2,5.1,2.6,7.4,4.4c-0.5,0.3-1.2,0.2-1.7-0.2c-2-1-4.3-0.2-5.3,1.7c-0.3,0.5-0.4,1.1-0.4,1.7c0,0.7-0.2,1.5-0.7,2.1
	c-0.1-2.7-1.6-5.2-4-6.6c-4.1-2.1-8.8-3-13.4-2.4c-5.7,0.6-10.4,4.7-11.7,10.3c-2.3,6.2-1,13.1,3.5,18c0.4,0.5,1.2,0.7,1.3,1.8
	c-2.4,0.8-3.9-1.5-6-1.8c-5.8-0.9-13.5-1.5-17.8,4.3c-2.5,3.3-6.6,5.4-7.1,10.3c-0.3,3.1-0.3,6.3,0.1,9.4c0.1,0.9,0.6,1.7,1.4,2.1
	c6.8,3,13.4,6.4,21.2,5.4c4.4-0.2,8.1-3.3,9-7.6c0.8-3,3.1-4.6,5.3-7.5c0.1,2.6-0.3,5.3-1,7.8c-0.6,3.7,0.2,7.5,2.2,10.7
	c2.5,4.4,7.6,6.6,12.5,5.4c7.4-1.3,13.2-5,15.9-12.4c0.8-2.3,2.3-4.4,2.1-7c-0.4-4.2-2.5-8.1-5.9-10.6c-3.5-3-7.5-5.4-11.8-7.1
	c-2.1-0.8-2.2-1.5-0.4-2.7c6.1-4,11.6-8.7,17.3-13.1c-0.3,0.4-0.2,0.9,0.2,1.2c0,0,0,0,0.1,0c0.9,0.6,2,0.3,2.6-0.5c0,0,0,0,0,0
	c0.6-0.7,1.1-1.7,1.7-2.4c2.7-3.3,3.2-3.7,5.9-2.9c3.3,1,3.3,0.8,1.1,3.5c-1,1.2-3,2.8-2.1,4.1c0.6,0.8,3.1-0.6,4.1-1.9
	c1.2-1.6,2.8-2.8,4.6-3.7c8,3.6,16,7.2,24.9,8.5c2.5,0.3,5.1,0.3,7.6,0c-0.6,0.8-1,1.8-1.1,2.8c1.3-1.1,2.6-0.7,3.9-0.8
	c-9.5,8.4-18.3,16.9-22.7,28.7c-0.5-0.6-1-1.3-1.4-2.1c-0.8-1.4,0.4-3.1,0.8-4.7c0.2-0.7,0.3-1.4,0.4-2.1c0-1.3,1-3.4-0.7-3.7
	c-1.7-0.3-2.3,1.9-3,3.3c-0.6,1.8-0.6,3.7,0,5.5c-5-1-6.4-0.8-8.3,1.3c0.5,0.6,1.3,0,1.8,0.5c1.6,1.4,3.8,1.9,5.9,1.3
	c0.8-0.3,1.7,0.1,2.1,0.8c0.7,0.9,1.3,1.9,1.8,2.9c-2.8-1.3-4.4-0.4-4.8,2.6c-0.1,0.4-0.2,0.8-0.4,1.1c-1.8,3.8-1.3,5.5,2.2,7.3
	c1,0.6,2.2,0.3,2.9-0.6c0,0,0,0,0-0.1c0.5-0.6,0.9-1.4,1.8-1s0.7,1.2,0.6,2c-0.1,0.6-0.1,1.2-0.1,1.8c0,0.8,0,2.1,1.1,2.1
	c1.3-0.1,2.5,0.5,3.2,1.5c0.2,0.4,0.7,0,1.1,0c2.1-0.3,2.7-2.3,4-3.5c1.3-1.2,1.5-2.6,0-3.7c-0.4-0.2-0.6-0.6-0.5-1.1
	c2.4,0.1,4.8-0.4,7-1.3c0,1.4-1.3,3.3,0.4,3.7c1.7,0.3,2.3-1.5,2.7-3.1c0,0,0-0.1,0-0.2c0.4-2.2,1.7-4.2,3.6-5.5c0,1.2,0,2.2,0,3.2
	c0,1.5,0.7,2.6,2.2,2.5s1.6-1.7,1.5-2.9c-0.1-1-0.6-1.9-1.4-2.5c-0.8-0.7-1.1-1.9-0.7-3c1.6-3.6,2.8-7.3,4.3-11.2
	c0.8,1.2,1.6,2.2,2.2,3.2c0.6,1,1.4,1,2.1-0.2c0.8-1.6-0.1-2.7-0.8-3.9s-1.5-2.1-2.3-3c-0.2-0.4-0.6-0.8-0.2-1.2
	c0.5-0.4,0.8,0,1.1,0.2c2,1.1,4.4,1,6.2-0.3c0.7-0.4,1.4-0.9,1.2-1.8s-1.2-0.6-1.9-0.4c-1.2,0.5-2.5,0.8-3.8,0.9
	c-1.4,0-2.3-0.5-2.1-2.2c0.1-1.1,0.1-2.3,0-3.4c0-1.2,0.2-1.6,1.3-0.9c1.2,0.8,2.6,1.2,4,1.3c1.4,0.1,2.6-0.6,3.3-1.8
	c0.4-0.5,0.3-1.2-0.2-1.7c-0.9-1.1-2.1-0.5-3.2-0.2c-0.3,0.1-0.5,0.2-0.8,0.3c-1.1,0.8-2.5,0.8-3.6,0c-1-1-1.3-2.4-0.8-3.7
	c0.3-1.1,0.5-2.3,0.4-3.4l0,0c0.5-0.4,1-0.7,1.5-1.1h0.2c1.7,1.2,4,1.2,5.8,0c0.6-0.4,1.1-0.7,1-1.4s-0.7-1.1-1.4-1.2
	c-1-0.1-1.9,0.1-2.8,0.5c-0.2,0.1-0.4,0.1-0.5,0.1c4.6-4.4,9.3-10.6,13.9-15.6c0.2,2.6,0.2,5.2,0,7.8c0,0.5-0.2,1.1,0.4,1.2
	s0.7-0.4,0.9-0.7c1.9-3.1,3.9-6.2,5.6-9.3c1.6-2.8,2.3-6.1,2.1-9.3v-0.4c1.8-2.7,3.4-5.4,4.9-8.3c2.1-4.1,4.1-7.6,6.1-11.1
	c0.2,0.4,0.4,0.9,0.3,1.4c-0.2,1,0,2.1-0.3,3.2c-0.6,2.5,1.9,4.3,0.7,6.9c-0.2,0.5,0.6,0.9,1.2,0.5c1.3-1,3.1-1.1,4.1-2.8
	c1.6-2.8,3.3-5.4,2.9-8.5c-0.1-1.2,0.9-2.7,1.2-4.1c0.6,4.5,0.4,9-0.6,13.5c-0.2,0.5-0.1,1.1,0.3,1.4c0.4-0.3,0.8-0.7,1.2-1
	c0,0.7,0,1.4,0,2.1c-0.1,4,0.7,7.9,2.4,11.5c1.5,3.2,3.7,5.9,6.4,8.1c2.7,2.2,5.8,3.8,9.2,4.8c3.5,1.1,7.1,1.6,10.7,1.6
	c4.3,0,8.6-0.6,12.8-1.7c3.8-1,7.6-2.5,11-4.4l-1.5-3c-3.1,1.5-6.4,2.6-9.7,3.4c-3.1,0.7-6.4,1.1-9.6,1.1c-3.3,0-6.6-0.5-9.8-1.5
	c-2.8-0.9-5.4-2.3-7.6-4.2c-2.1-1.9-3.8-4.2-4.9-6.8c-1.2-2.9-1.7-5.9-1.7-9c-0.2-9,3.9-17.5,11-23.1c3.7-2.9,8-5.1,12.5-6.5
	c5.3-1.6,10.8-2.4,16.3-2.3c4.1,0,8.6,0.3,13.6,0.8l15.6,1.6c5.4,0.6,10.8,1.1,16.3,1.7c5.5,0.5,10.7,0.8,15.6,0.8
	c3.9,0,7.8-0.2,11.6-0.5c3.1-0.3,6.2-0.8,9.2-1.4c-0.5,0.8-1,1.5-1.5,2.3c-1.4,2.3-2.7,4.6-4,7c-1.2,2.3-2.3,4.5-3.2,6.5
	c-6,12.8-11.8,25.7-17.5,38.8c-5.7,13.1-11.6,26.3-17.7,39.6l6.6,2.6l11-20.8c2.6-3.6,5.4-7.2,8.4-10.8c2.8-3.4,5.9-6.7,9.1-9.8
	c2.8-2.7,5.9-5.1,9.2-7.1c2.6-1.7,5.6-2.6,8.7-2.7c1.4-0.2,2.7,0.8,2.9,2.3c0,0.2,0,0.5,0,0.7c-0.1,1.4-0.5,2.9-1.2,4.1
	c-0.8,1.6-1.8,3.4-3,5.4s-2.5,4.1-3.9,6.4c-1.4,2.2-2.7,4.6-3.9,7c-1.2,2.3-2.2,4.8-3,7.3c-0.8,2.3-1.2,4.8-1.2,7.2
	c-0.1,1.7,0.3,3.5,0.9,5.1c0.6,1.2,1.4,2.3,2.5,3.2c1,0.8,2.2,1.3,3.4,1.6c1.2,0.3,2.5,0.4,3.8,0.4c2,0,4-0.6,5.7-1.7
	c2-1.2,3.8-2.7,5.4-4.4c1.8-1.8,3.4-3.8,4.9-5.8c0.4-0.6,0.8-1.2,1.2-1.8c0,0.6,0,1.1,0,1.7c-0.1,2.5,0.7,4.9,2.3,6.7
	c1.7,1.8,4.2,2.8,6.7,2.6c3,0,6-0.8,8.6-2.4c2.7-1.7,5.1-3.7,7.2-6.1c2.2-2.5,4.2-5.1,5.9-7.9c1.8-2.8,3.4-5.6,4.8-8.1
	c0.7-1,1.5-2.3,2.5-4c1-1.7,2.1-3.4,3.3-5.2s2.4-3.7,3.7-5.6c1.3-1.9,2.6-3.5,3.8-5c1.1-1.3,2.3-2.5,3.7-3.6c0.9-0.8,2-1.3,3.2-1.4
	c0.7,0,1.5,0.2,2.1,0.6c0.6,0.7,0.8,1.6,0.7,2.6c-0.1,1.6-0.3,3.1-0.8,4.6c-0.8,2.5-1.7,4.9-2.9,7.2c-0.9,1.9-2.1,3.9-3.1,5.9
	s-2.3,4.1-3.5,6.1c-1.2,1.9-2.5,3.9-3.8,5.8c-1.3,1.9-2.5,3.7-3.7,5.3l-8.5,11.7l6.4,2.6c0.6-0.7,1.2-1.6,2-2.6l2.3-3.1l2.5-3.3
	c0.8-1.1,1.7-2.2,2.5-3.3c1.9-2.5,3.8-5,5.8-7.7c3.5-4.6,6.7-8.7,9.7-12.4c2.6-3.2,5.3-6.2,8.3-9.1c2.1-2.1,4.4-4,6.8-5.6
	c1.6-1.1,3.4-1.8,5.4-1.9c1.3,0,2.5,0.5,3.4,1.5c0.8,1.1,1.2,2.4,1.2,3.8c-0.1,1.6-0.5,3.2-1.3,4.7c-0.8,1.8-1.9,3.8-3.2,5.9
	c-1.3,2.1-2.6,4.4-4.1,6.7c-1.5,2.4-2.9,4.7-4.1,7c-1.2,2.2-2.3,4.5-3.2,6.8c-0.8,2-1.2,4.1-1.3,6.2c0,1.1,0.2,2.3,0.7,3.3
	c0.4,1,1,1.9,1.8,2.7c0.8,0.8,1.7,1.4,2.7,1.8c1.1,0.4,2.3,0.7,3.5,0.7c2.4,0,4.7-0.7,6.8-2c2.4-1.4,4.6-3.1,6.6-5
	c2.2-2.1,4.2-4.3,6-6.6c1.8-2.4,3.5-4.6,5-6.8c-0.1,1-0.1,1.9-0.1,2.9c-0.1,2.6,0.4,5.2,1.4,7.6c0.8,1.9,2.1,3.6,3.7,4.9
	c1.5,1.2,3.2,2.1,5,2.6c1.8,0.5,3.7,0.8,5.5,0.8c2.6,0,5.3-0.6,7.7-1.6c2.7-1.1,5.4-2.5,7.8-4.1c-0.7,1.5-1.4,3.3-2.2,5.1
	c-0.8,1.9-1.6,3.8-2.5,5.9c-7.5,3.9-14.2,7.8-20.1,11.7c-2.5,1.6-4.7,3.2-6.8,4.8H139.1v1.5h349.3c-2.1,1.7-4.1,3.4-6,5.2H139.1v4.1
	h339.4c-2.2,2.4-4.1,5.1-5.6,7.9c-2.1,3.7-3.2,7.8-3.2,12.1c-0.1,1.8,0.3,3.6,1,5.2c1.2,2.5,3.5,4.2,6.2,4.7
	c1.1,0.3,2.3,0.4,3.4,0.4c3.1-0.1,6.1-1,8.8-2.6c4-2.4,7.6-5.5,10.6-9.1c4.6-5.4,8.6-11.3,12.1-17.5l0.6-1.1h169.2v-4.1h-167
	c0.9-1.7,1.7-3.4,2.6-5.2h164.3v-1.5H517.9c2.3-4.8,4.7-10.2,7.1-16.1c5.6-3.3,10.3-6.4,14.4-9.2c3.7-2.5,7.2-5.2,10.6-8.1
	c2.8-2.5,5.5-5.1,7.9-8c2.3-2.8,4.4-5.7,6.2-8.7l0,0c0-0.1,0.3-0.5,0.7-1.3c0.5-0.8,1.2-1.9,2-3.2c0.8-1.3,1.7-2.8,2.7-4.4
	c1-1.6,2.1-3.2,3-4.7c0.9-1.5,1.9-3,2.8-4.3c0.2-0.3,0.4-0.5,0.5-0.8c0.6,0.4,1.3,0.8,2,1.1c0.1,1.1,0.2,2.4,0.4,3.9
	c0.1,1.5,0.3,3.5,0.4,5.4c0.1,1.9,0.2,3.6,0.2,5.2s-0.1,3.3-0.3,5.1c-0.2,2-0.5,3.9-1,5.8c-0.5,2-1.1,3.9-1.8,5.8
	c-0.7,1.8-1.7,3.4-2.8,5c-1.1,1.4-2.4,2.6-3.9,3.5c-1.6,0.9-3.3,1.4-5.2,1.3c-1.3,0-2.5-0.2-3.7-0.7c-0.9-0.4-1.7-1-2.4-1.7
	c-0.5-0.6-1-1.2-1.3-1.9c-0.2-0.4-0.3-0.9-0.4-1.4l-2.6,0.5c0.4,3.1,2.1,5.9,4.6,7.7c2.7,1.8,5.9,2.7,9.2,2.6c4,0,7.9-0.8,11.5-2.5
	c3.7-1.7,7.1-3.9,10.2-6.5c3.2-2.7,6.1-5.8,8.7-9.1c2.6-3.4,6.2-8.8,8.3-12.2l-2.5-2.2c-3.6,5.8-7.7,11.4-12.2,16.5
	c-3.2,3.5-7,6.4-11.1,8.7c1.9-2.4,3.4-5.1,4.4-8.1c1.2-3.5,1.7-7.2,1.7-10.9c0-2.8-0.2-5.5-0.8-8.3c-0.5-2.6-1.1-5.1-1.6-7.3
	l-0.9-3.5c1.8-0.1,3.7-0.4,5.4-0.9c-0.2,2.2-0.1,4.5,0.3,6.7c0.3,2.2,1.4,3.4,3.9,5.4c0-5.9,1.9-7.9,3.9-12.7
	c0.6-1.5,1.3-1.9,2.9-0.4c2.8,2.5,6.8,3.9,8.2,7.8c0.9,2.1,1.3,4.4,1.1,6.7c0,0.2,0,0.3,0,0.5c-0.3,0.4-0.7,0.8-0.9,1.3l0.9-0.2
	c0.3,3.2,1.9,6.1,4.4,8c1.4,1.2,2.3,1.2,3-0.5c1.5-3.4,1.6-7.2,0.4-10.7c0.9-0.5,1.9-1,2.8-1.6c3.1,1,6,2.1,8.9,3.1
	c1.8,0.6,2.2,2.1,2.8,3.5c2.1,5.8,6,10.9,11.1,14.4c0.9,0.6,1.9,1.1,2.9,1.6c1.8,0.8,2.5,0.2,2.1-1.4c-0.6-2.9-2-5.6-3.9-7.8
	c-2.5-2.6-4.4-5.7-8.2-7.9c3.9-0.7,7.2,0.8,10.6,1.1c3.7,0.3,7.5,1.1,11.2,1.7c4.4,0.8,5.4,1.9,5,5.8c-0.4,3.6,0.6,7.1,2.7,10
	c1.1,1.6,1.6,1.7,2.6,0.3c2.7-3.9,1.6-8-0.5-12.3c-0.4-0.8-1.7-1.6-1-2.3c0.7-0.7,2.1-0.3,3,0c4.1,1.2,8.1,2.8,12,4.6
	c3.3,1.7,4.1,3.3,2.8,6.2c-0.9,1.4-1.5,3-1.8,4.7c0,0.5,0,1,0.6,1.3c0.6,0.3,0.9-0.1,1.3-0.4c1.8-1,3.1-2.8,3.6-4.8
	c0.2-1.5,1.1-1.8,2.6-0.6c2.6,1.7,4.9,3.9,6.8,6.4c-3.9-0.6-6.1,0.7-7.1,4.1c-0.7,2.3-3.9,2.2-6.2,2.7c-2.3,0.4-2.3,1.3-1.8,2.8
	c0.9,3.2,3.2,5.8,6.2,7.3c1.8,0.8,2.4,1.6,1.8,3.3c-1.2,3.3,2.2,7.8,6.2,9c1.1,0.3,1.5-0.2,2.1-0.8c0.8-0.9,1.3-2.2,2.8-2.5
	c0.6,0.9,0,1.2-0.3,1.7c-2.1,2.9-0.7,5,3.4,5.6c2.7,0.5,5.4,0,7.8-1.4c1-0.5,1.5-1.7,1-2.7c0-0.1-0.1-0.1-0.1-0.2
	c-0.4-1.1-1.6-1.6-2.6-1.3c-0.1,0-0.2,0.1-0.2,0.1c-1.3,0.5-1.3-0.4-1.2-1c0.1-1.5,0.2-3,0.5-4.5c0.1-0.7,0.4-1.7,1.5-1.5
	c1.1,0.2,0.7,1.1,0.9,1.7c0.2,0.6,0.3,0.9,0.5,1.4c1.6-1,0.2-2.7,1.1-4c1.1,2.4,1.8,5,2.1,7.7c1.2,0.2,1.5-1.7,3-0.5
	c1.2,1.1,3.1,1.1,4.4,0c1.5-1.3-0.8-2.1-0.9-3.5c1.3-0.2,2.1,0.9,3.2,1.2c1.1,0.5,2.3,0.3,3.1-0.6c0.8-1-0.5-1.5-1.2-2.1
	c-1.1-0.7-2-1.7-2.7-2.8c1.5,0,2.2,0.9,3.2,1.5c0.9,0.6,1.7,1,2.4,0.4c0.6-0.5,0.8-1.5,0.2-2.1c-0.1-0.1-0.1-0.2-0.2-0.2
	c-1.8-1.7-0.7-1.9,0.9-2.3c4.4-1.1,5.2-5.9,1.6-8.8c-0.9-0.6-1.4-1.5-1.5-2.5c-0.8-4.6-5.3-7.7-9.9-6.9c-0.1,0-0.1,0-0.2,0
	c-0.9,0.2-1.9,0.7-2.2-0.7c-0.8-3.1-3.4-2.8-5.7-2.6c-1.4,0-2.6,0.5-3.7-0.9c-1.8-2.3-3.8-1.7-5.6-0.7c-1.4,1-2.6,2.2-3.5,3.6
	c-0.6,0.7-1.2,1.5-2.4,0c-4.8-5.7-10.9-10.1-17.8-12.8c2.6-0.7,5-1.7,7.2-3.2c0.5-0.4,1.4-0.6,1-1.5c-0.4-0.9-1-0.7-1.7-0.8
	c-4.1-0.6-8.3-0.8-11.1,2.1c-0.5,0.7-1.3,1-2.1,0.9c-4.2-0.7-8.3-1.6-12.4-2.8c5.6-1.8,8.3-5.3,11.1-8.8c-5.9,1.6-13.4,0.7-16.4,6.9
	c-0.5,1-1.4,1.2-2.6,1.2c-2.8-0.3-5.6-0.9-8.3-1.8c6.5-0.9,9.8-5.7,14.9-8.3c0.4-0.2,0.9-0.6,0.6-1.1s-1.3-0.6-2.1-0.6
	c-6.5-0.1-12.8,1.9-18.1,5.6c-1.2,1-2.7,1.6-4.3,1.7c1.4-1.2,2.7-2.7,3.7-4.3l2.3-1.2c0.5-0.2,1.2-0.5,0.9-1.2
	c-0.3-0.7-1-0.7-1.7-0.7h-0.3c0.3-1.9-0.3-3.7-1.6-5.1c-1.4-4.9-5-9-9.8-10.8l-0.2-0.3h1.4c2.7,1.6,5.6,3,8.6,4
	c0.6,0.2,1.2,0.8,1.7,0.1c0.4-0.7-0.1-1.2-0.8-1.4c-1.5-0.7-2.9-1.6-4.1-2.7c4.8-0.1,9.4-0.4,13-0.6c0.6,0.3,1.2,0.5,1.8,0.7
	c1.2,1.6,2.7,3,4.4,4.1c0.6,0.4,1.3,0.9,2.1,0.5s0.3-1,0.3-1.5c0-0.6,0-1.1-0.1-1.6c1.4,0.2,2.3,0.3,2.4,0.3c5.9,0,8.6-2.6,9.8-4.3
	l7.9-0.5c1,0.3,2.1,0.6,2.9,0.9c2.3,0.8,3.4,1.8,2.4,3.9c-0.4,0.8-0.3,1.8,0.3,2.5c2.2,2.4,0.8,2.6-1.5,2.6c-4.3,0-4.8,0.6-5.1,4.5
	c-0.2,2.3-1.2,4.4,0.2,7c1.6,3,2.6,3.7,6.1,3.1c1.5-0.3,2.9-0.8,4.4-1.2l0.5-0.1c-1.3,1.1-2.5,1.9-2.5,1.9c1,0.6,2.1,1.1,3.2,1.3
	c-0.1,0.5-0.2,1.1-0.2,1.6c0,1.3,0.6,1.9,2.2,2.8c3.9,2.1,8.2,3.2,12.6,3.2c1.3,0.2,2.6-0.3,3.5-1.2c0.7-1.1,2-1.7,3.3-1.4
	c1.8,0.3,1.6-1.3,1.5-2.1c-0.3-2.1,0.7-2.2,2.7-1.9c8,1.2,14-4.1,13.1-11.3c-0.4-3.2-2.4-4.8-7-5.1c1.3-1.4,2.5-2.5,3.7-3.7
	c1.2-1.1,2.2-2.4,3-3.8c9.1,2.5,17.6,5.2,17.6,5.2c0.7,0.3,1.4,0.7,2.1,1.1c-4.1,0.9-4.8,5-8.3,6.5c-0.4,0.2-0.6,0.8-0.4,1.2
	c0.1,0.1,0.1,0.2,0.2,0.3c2.8,2.2,2.3,5.2,3.4,7.8c2.4,5.7,3.7,6.6,10,5.8c1.9-0.3,2.4,0.4,3,1.9c2.1,4.8,7.4,7.2,12.4,5.5
	c1.9-0.7,4-0.7,5.9,0.2c3,1.2,5.1,0.4,6.2-2.1c0.9-1.9,2.7-3.4,2.8-5.7c0.1-0.6,0.6-1.1,1.2-1.1c5-1,6.6-4.7,8.3-8.3
	c0.4-0.9,1.1-1.8,1.9-2.4C795.1,312.7,794.6,309.8,790.7,307.4z M547,269.5h1l3.7,2.6c2.1,1.3,3.9,2.6,5.9,3.8l0,0l0,0
	c0,0.3,0,0.6,0,0.9c0,2.1,0.1,4.1,0.3,6.2C555,279.6,549.9,273.6,547,269.5z M558.8,270.7c-2,0.4-4.1,0.6-6.2,0.7l-0.2-0.1l-3.4-1.8
	c2.5-0.1,5.1-0.1,7.6,0.1c0.8,0.1,1.7,0.2,2.5,0.4L558.8,270.7z M559.8,266.9c-1.5-0.3-3-0.7-4.5-1l3.9-3.2c0.5-0.4,1-0.9,1.5-1.3
	C560.5,263.2,560.3,265.1,559.8,266.9L559.8,266.9z M416.3,146c0-2,0.2-4.1,0.8-6c0.6-1.6,1.2-2.5,2.1-2.5c0.5,0,1.1,0.2,1.4,0.7
	c0.3,0.5,0.6,1,0.7,1.6c0.2,0.6,0.3,1.3,0.3,1.9c0,0.6,0,1.1,0,1.5c0,2.2-0.3,4.3-0.7,6.4c-0.6,2.8-1.4,5.6-2.4,8.4
	c-0.8-2-1.4-4.1-1.8-6.2C416.4,149.9,416.3,147.9,416.3,146z M466,168.5c2.1-5.5,4.5-10.8,7.2-16c2.6-5,5.5-9.8,8.6-14.4
	c2.8-4.1,5.7-8.1,8.9-11.9c2.4-2.9,5.1-5.6,8-8c1.6-1.6,3.7-2.6,5.9-3c0.6,0,1.1,0.4,1.4,1c0.3,0.5,0.5,1,0.6,1.6
	c-0.1,2.6-0.7,5.2-1.7,7.6c-1.3,3.3-2.9,6.5-4.6,9.6c-2.2,3.9-4.6,7.7-7.2,11.4c-2.8,4-5.9,8.2-9.2,12.4c-3.3,4.2-7,8.6-10.8,12.9
	c-3.8,4.4-7.8,8.7-11.9,12.9C462.4,179,464,173.7,466,168.5L466,168.5z M530.2,186.3c-1.3,4.1-2.1,8.3-2.5,12.6
	c-1.8,2.2-3.8,4.3-5.9,6.2c-1.7,1.5-3.5,2.9-5.4,4.1c-1.5,1-3.1,1.8-4.7,2.4c-1.3,0.5-2.6,0.7-4,0.7c-2.4,0.1-4.8-1-6.2-3
	c-1.6-2.5-2.4-5.5-2.3-8.4c0-2.8,0.4-5.6,1.3-8.3c0.9-2.8,2-5.5,3.5-8c1.5-2.5,3.2-4.8,5.2-7c1.9-2.2,4-4.1,6.3-5.8
	c2.2-1.6,4.5-2.9,7-3.9c2.3-0.9,4.7-1.4,7.2-1.4c1.4,0,2.8,0.3,4.1,0.8c1.2,0.5,2.1,1.3,2.8,2.4C534.1,175,531.9,180.6,530.2,186.3z
	 M410.3,10.3l146,126.5c-1.3,1.8-2.5,3.6-3.7,5.4L410.3,18.9l-111.6,96.7c-3.1-0.4-6.2-0.6-9.2-0.6L410.3,10.3z M241.2,146.2
	c2.7-5.5,6.5-10.5,11.2-14.4c5.1-4.2,10.9-7.5,17.2-9.6c2.6-0.9,5.3-1.6,8-2.1l-39.2,34C239,151.4,240,148.8,241.2,146.2z
	 M237.4,160.1l47.2-40.9c2.2-0.2,4.5-0.3,6.9-0.3c1.1,0,2.2,0,3.3,0l-57.3,49.8c-0.2-1.5-0.3-3-0.3-4.5
	C237.2,162.7,237.2,161.4,237.4,160.1z M105.8,326.1c-0.9,0.9-2.2,1.3-3.5,1.1c2.1-2.1,4-4.4,5.7-6.9c0.9-1.4,1.4-2.9,1.6-4.5
	c0.3,0.3,0.7,0.5,1.1,0.7c0.6,0.2,1.2,0.3,1.5,0.8c0.6,1.2,1.9,1.8,3.2,1.3C112.2,321.2,109.1,323.7,105.8,326.1z M229,167.3
	c0.1,2.5,0.6,5.1,1.3,7.5l-33.7,29.2h-0.1c-1.6,0.2-2.2,1.1-2.2,2.1l-11.4,9.8l1.4,1.3l10.1-8.8c0.2,1.2,0.4,2.5,0.6,3.7
	c0.2,1.2-1,3.4,1.7,3.8c0.3,0,0.3,0.4,0,0.6c-2.6,2.1-0.6,3.8-0.5,5.6c0,1.2,0.6,2.1-0.3,3.5c-1.3,2.1,1.6,1.5,3,2.3
	c-2.8,1.2-4.1,2.5-1.7,4.2c0.3,0.2,0.4,0.5,0.2,0.8c-0.1,0.1-0.1,0.2-0.2,0.2c-3.9,2.4-0.2,2.5,0.9,3.2c1.1,0.5,2.2,0.8,3.4,1.1
	c-2.1,0.6-4.3-0.4-5.3,1.3c-0.7,1.2,1.1,1.5,2,2.4c-2.2,0.9-2.5,1.9-0.8,3c0.4,0.3,1.8,0.8,0,1.5c-2.2,0.8-1.5,1.7-0.5,2.5
	c1,0.8,1.4,1.2,0.9,2.2c-0.4,1-1.8,0.8-2.7,1.1c-0.8,0.2-1.7,0.4-2.6,0.4c-1.3,0-3.7,1.3-2.6-1.4c0-0.2-0.1-0.5-0.3-0.6
	c-2.7-2.1-3.2-5.2-4.1-8.3c-0.5-1.6-0.9-2.6,0-4.1c0.5-0.8-0.3-1.4-0.7-2.1c-0.8-1.1-1.9-2.2-0.8-3.9c0.2-0.2,0.2-0.8,0-0.9
	c-2.7-1.8-1.3-5.2-3.3-7.3c-0.9-0.9-0.6-2.5-0.8-3.8c-0.5-2.5-1.4-4.8-2.8-7L229,167.3z M186.5,261.5h0.2c-0.4,0.6-0.2,1.5,0.4,1.9
	l-0.5,0.4c-0.4,0.2-0.7,0.5-1,0.7c-0.7,0.8-1.9,0.8-2.7,0.1c0,0,0,0-0.1-0.1l-0.5-0.4c-0.1-0.3-0.3-0.5-0.5-0.6h-0.3
	c-0.5-0.3-0.9-0.7-1.3-1.1c-0.3-0.8-0.2-1.8-0.5-2.5c-0.7-1.9,0.4-2.8,3-3.3l0.7-0.2C183.5,258.6,184.7,260.5,186.5,261.5z
	 M186,256.7v-0.2c0.7,1.2,1.8,3.7,1.6,4c-0.3,0.3,0,0-0.1,0.1C186.2,259.7,185.7,258.2,186,256.7z M186.7,267.1
	c-1.1,1.2-1.1,2.8-1.7,4.1c-0.1,0.2-0.1,0.4-0.1,0.6c-0.3-0.5-0.7-0.8-1.3-1c-0.9-0.4-1.6-0.7-0.7-1.8c0.2-0.2,0.3-0.5,0.3-0.8
	c1.1-1,2.4-1.9,3.7-2.7C187.2,266,187.2,266.7,186.7,267.1C186.7,267.1,186.7,267.1,186.7,267.1L186.7,267.1z M180.1,288.6
	c0.5-1.3,3-2.4,1.4-4c0.1-0.2,0.2-0.3,0.4-0.4c4.6-1.2,1.4-2.7,0.8-4.2c0.7-0.7,2.4-0.7,2.5-2.1s-0.7-1.9-1.7-2.4
	c-1-0.5-0.7-0.9,0.1-1.6c0.6-0.4,1-0.9,1.3-1.5c0.2,0.5,0.5,0.9,0.8,1.1c0.9,0.7,1.4-0.3,2.1-0.8c1.1-0.7,1.9-1.8,3.2-2.2
	c0.1,0.2,0.2,0.3,0.3,0.4c2.2,2.4,4,5,5.5,7.9c0.8,1.1,1.7,2.1,2.7,2.9c-2.5,2.1-5.2,3.9-8.2,5.3c-2.2,1-4.3,2.3-6.4,3.6h-0.1
	c-2.1,0.6-4.2,0.9-6.4,0.8C179.2,290.8,179.7,289.8,180.1,288.6L180.1,288.6z M189,264.6l0.2-0.2c0.6,0.3,0.8,0.8,0.2,1.7l-0.1,0.3
	C188.2,266.2,188.6,265.4,189,264.6L189,264.6z M171.8,296.6c0.8-0.3,1.6-0.7,2.3-1.3c1.2,0.4,2.6,0.5,4.1,0.8
	c-0.4,0.4-0.9,0.8-1.3,1.2l-0.2,0.1c-1.1,0.3-2.1,0.6-3.1,0.9c-1.1-0.2-2.1-0.7-2.9-1.5C171.2,296.8,171.5,296.7,171.8,296.6
	L171.8,296.6z M171.4,290l-1-0.5C170.7,289.7,171.1,289.9,171.4,290L171.4,290z M168.5,276.9c-0.1,0.7-0.4,1.4-0.9,1.9
	c-1,1.6-1.7,3.5-1.9,5.4c0,0.5-0.2,1.2,0.4,1.4s1-0.2,1.5-0.6c1.2-1.1,1.7-2.7,1.4-4.3c-0.1-0.8,0-1.7,0.5-2.4
	c0.6,0.9,0.8,2,0.7,3.1c-0.1,1,1.5,1.9-0.2,3.3c-1.4,1.1,1.7,1.6,0,3.1c-0.6,0.6-0.6,0.9-0.4,1.2c-2.1-1.3-3.9-2.9-5.4-4.8
	c-0.7-0.9-1.4-1.7-2.2-2.5c0,0,0-0.1,0-0.2C164.5,280.4,165.8,277.9,168.5,276.9L168.5,276.9z M161.4,274.7c0.5-0.1,0.9-0.2,1.3-0.4
	c1.5-0.6,3.3-0.7,4.8-0.1c0,0.5,0.2,1.1,0.4,1.6c-2.1,0.9-3.4,3.1-6,3.1c-0.3-0.5-0.8-0.9-1.4-1.2c-0.1,0-0.1-0.1-0.2-0.1
	C161.2,276.8,161.6,275.8,161.4,274.7L161.4,274.7z M160.1,268.8c2.3-1.3,4.2-3.2,5.4-5.5c0.3,0.2,0.4,0.4,0.1,0.7
	c-2.4,2.7,0.2,2.8,2.1,3.4c-0.9,1.5-4.1,3.4,0,4.1c0.1,0,0.3,0.3,0.2,0.4c-0.2,0.3-0.3,0.6-0.4,0.9c-1.3-0.3-2.6-0.7-4-1
	c-1.2-0.3-2.4-0.4-3.6-0.2C160,270.7,160,269.8,160.1,268.8L160.1,268.8z M159.2,297.9c0.7-2.3,1.2-4.7,1.5-7.1
	c0-1.7,0.1-3.4,0.3-5.1c2.4,2.7,5.2,5,8.3,6.9c-0.3,0.4-0.6,0.8-0.9,1.2c-0.9-0.4-1.8-0.5-2.4,0.4c-0.7,0.9-0.2,2.1,0.8,2.7h0.1
	c-0.2,0.7-0.4,1.4-0.5,2.1c0.7-0.3,1.4-0.7,2.1-1.1c0.9,0.4,1.8,0.8,2.7,1.1c-2.5,0.6-4.9,1-7.3,1.4c-1.5,0.3-3.1,0.5-4.8,0.7
	c0.2-0.5,0.2-0.9,0.3-1.4C159.3,299.3,159.6,298.5,159.2,297.9z M157.7,305.3c3.5-0.4,6.2-1,11.9-1.8c-0.5,0.4-1.1,0.8-1.6,1.1
	c-2.1,1.6-4.6,2.8-7.1,3.6C158.2,308.7,157.3,307.9,157.7,305.3L157.7,305.3z M155.8,305.5c0.1,1.2,0.5,2.3,1,3.4
	c0.2,0.4,0.6,0.9,0,1.4c-2.1,1.1-4.6,0.7-6.2-1c-0.5-1.1-0.4-2.4,0.2-3.4L155.8,305.5L155.8,305.5z M149,277.9
	c-0.2,0.1-0.4,0.3-0.6,0.5c-0.1-0.4-0.3-0.7-0.4-1.2L149,277.9z M147.3,273.8c0.1,0.5,0.1,0.9,0,1.4c-0.2-0.6-0.6-1.3-0.9-1.8
	L147.3,273.8z M139.8,269.5L139.8,269.5L139.8,269.5z M114.2,299.5c-0.3,0.8-0.5,2.1-1.5,2.1c-1.1,0-1.5-0.9-1.9-1.8
	c-0.4-0.9-0.3-1.9,0.2-2.7c0.6-1,1-2.1,1.2-3.3c0-0.2,0-0.3,0-0.5c0.5-0.4,0.9-0.7,1.4-1c4-3.3,3.1-7,5.1-10.3
	c0.4-0.6-0.1-1.2-0.6-1.7c-0.4-0.5-0.6-1.1,0.2-1.7c1.3-0.9,0.7-1.7,0.8-2.8c0.4-1.7,0.7-3.5,0.7-5.3c1.5,0.6,3.2,1,4.8,1.1
	c0,0.5,0,1,0,1.5c-0.4,4.3,0.9,8.5,0.5,12.8c-0.1,2.3-0.5,4.5-1.2,6.7c-0.6-1-1.5-1.7-2.7-1.9c-0.6,0-1.2-0.4-1.2-1.1
	c0-0.7-0.5-1.3-1.2-1.3c-0.2,0-0.3,0-0.4,0.1c-0.9,0.1-1.6,0.9-1.7,1.8c-0.1,1.1-0.1,2.1,0,3.2c0.3,1.4-0.2,2.9-1.1,4
	C114.9,297.9,114.5,298.6,114.2,299.5z M117.7,304.6c-1.6-0.6-2.5-2.3-2.1-3.9c0.2-1.6,0.5-3.2,2.6-3.8c1-0.3,2.1-0.5,3.1-0.9
	c-0.4,0.4-0.8,0.7-1.2,1.1c-1.1,0.7-1.9,2-1.9,3.3c1.3-0.9,2.8-1.6,4.3-2.2c-1.7,1.5-2.8,3.4-3.3,5.6
	C119.1,305,118.7,305.1,117.7,304.6z M125,311.2c-1.4,1-2.8,2.1-4.1,3.1c0-1.8,0.2-3.5,0.3-5.5c1.2,0.9,2.6,1.7,4,2.3L125,311.2z
	 M141.3,313c-3.1-1.2-5.8-2.4-5.6-2.8c1.3-1.3,2.9-2.2,4.6-2.5l1-0.3c-0.2,1.4-0.2,2.8,0,4.1C141.5,312,141.5,312.5,141.3,313
	L141.3,313z M142.1,303.8c-1.3,0.2-2.7,0.6-4,1l-1.7,0.6c0-2.3-0.6-4.7-1.9-5.1c-1.8-0.6-3.8-0.6-5.7-1.1c-2.5-0.6-6.2,3.7-5.9,6.2
	c0,0.6,0.1,1.2,0.2,2.1c-2.6-2.4-2.5-4.7-0.4-6.4c1.4-0.9,2.6-2.1,3.7-3.4c0.2-0.3,0.4-0.7,0.4-1c1.6-0.6,3.2-1.4,4.7-2.3
	c1.8,1.6,4.3,2.2,6.7,1.7c2.6-0.8,5.1-1.8,7.6-2.7c1.5-0.5,2.8-1.4,3.8-2.5c-0.2,1.6,0.4,3.2,1.6,4.4c0.5,0.5-0.1,1.1,0,1.6
	c0.3,2.3,1.6,4.2,3.5,5.4l-2.9,0.4c0.2-0.9,0.1-1.8-0.3-2.6c-0.3-0.6-0.3-1.4-1.2-1.4s-1.2,0.8-1.5,1.5c-0.3,0.9-0.5,1.9-0.7,2.9
	c-1.5,0.2-2.9,0.4-4.1,0.6c-0.2-0.3-0.5-0.4-0.8-0.5C142.8,303,142.3,303.3,142.1,303.8L142.1,303.8z M142.9,310.1
	c0.4-1.2,0.7-2.3,1-3.4c1.5-0.3,2.9-0.4,4.4-0.5c0.2,1.6,0.7,3.2,1.5,4.6c0.8,1.4,0.2,1.8-1,2.1c-1.5,0.2-3.1,0.1-4.6-0.4
	c-0.9-0.1-1.6-0.8-1.5-1.7C142.7,310.6,142.8,310.3,142.9,310.1z M153.3,317.2l-3.4-1.1l-2.9-1c3.1-0.5,6.2-1.7,9.3-2.5
	C155.3,314.1,154.2,315.6,153.3,317.2z M183.5,332.3c0,6.2-2.1,12.1-3.1,18c-0.1,0.7-0.5,1.3-1.2,1.3c-1.1,0-2.1-0.5-2.7-1.4
	c-0.5-0.6,0.2-1.1,0.6-1.5c0.5-0.4,1.3-1.2,0.9-1.4c-1.7-0.8-0.4-1.8-0.3-2.8s0-2.4-1.3-2.8s-2.1,0.4-2.4,1.7
	c-0.2,0.7-0.7,0.8-1.4,0.9c-2.2,0.3-3,1.6-2.1,3.5c1.4,2.9,4.7,3.3,7,4.9c0.6,0.4,1.6,0.2,1.4,1.3c-0.2,1.1-1,1.2-1.9,1.1
	c-1.3-0.2-2.6,0-3.8,0.5c-0.7,0.3-1.7,0.8-1.6,1.5c0.1,0.7,1.1,0.7,1.8,0.8c0.5,0,1.1,0,1.6,0c0.5,0,1.2-0.4,1.5,0.2
	c0.3,0.6-0.4,1.2-0.8,1.5c-1.7,1.5-3.6,3-5.5,4.3c-1.5,1.1-3.3,1.6-5.1,1.5c-0.5,0-1-0.1-1.1-0.7s0.3-0.8,0.7-1.1
	c2.8-2.1,2.9-2.1,2.1-5c-0.5-1.7-1.5-3.4-3.7-3.6s-3.4,1.5-5.1,2.2c-0.1,0-0.2,0.4-0.2,0.5c-0.3,1.4-1.1,1.2-1.9,0.6
	c-0.9-0.6-1.7-1.3-2.4-2.1c1.5-1,2.8-2.3,3.7-3.9c7-10.7,16.1-19.8,26.8-26.8C184,327.9,183.4,330.1,183.5,332.3z M184.4,317.8
	c-1.5,0.9-3.1,1.7-4.7,2.4c-6.9,2.6-13.8,1-23.2-2.1c0.2-0.5,0.2-0.9,0.2-1.4c0-3.8,2.8-5.4,5.4-7.2c0.3-0.2,0.7-0.2,0.9,0
	c0.3,0.2,0,0.6,0,0.9c-0.4,1.1-0.8,2.2-1.1,3.3c-0.2,0.8,0.2,1.7,1,2c0.6,0.3,1.3,0.2,1.7-0.3c1-1.1,2.1-2.4,1.5-3.9
	c-0.9-2.4,0-4,2.2-5.3c1.7-1.1,3.5-2.1,5.2-3.4l3.1-0.9c-0.1,0.5-0.2,1-0.5,1.4c-1.2,2.1-0.3,3.6,0.4,5.3c0.3,0.8,0.8,0.5,1.3,0
	c1.7-1.5,2.2-4,1.1-6c-0.3-0.4-0.5-0.9-0.5-1.4l1.5-0.5c1.5-0.5,3-0.9,4.4-1.4h0.4c0.4-0.1,0.8-0.3,1.1-0.5c2.3-0.8,4.4-1.6,6.5-2.5
	c0,0.5-0.4,1-0.6,1.4c-1.2,4.6-4.6,8.4-5.8,13C185.6,313.2,184.8,315.5,184.4,317.8L184.4,317.8z M186.3,316.6
	c0-0.6,0.1-1.2,0.3-1.8c1.1-3.2,2.1-6.4,3.1-9.6c0.5-1.5,1.3-1.8,2.4-0.9c0.8,0.9,2,1.4,3.2,1.5c0.8,0,1.8,0,2.1-1s-0.5-1.1-1-1.6
	c-0.5-0.4-1-0.8-1.6-1.1c-2.1-1.4-2.2-2.1-1.2-4.3c0.4-0.9,0.8-1.7,1.2-2.5c2.1-1,4.1-2.1,6.4-3.3c-0.4,2.7-0.4,5.4,0,8
	c0,0.4,0.2,0.7,0.3,1.1C197.4,307.1,192.3,312.4,186.3,316.6L186.3,316.6z M202,256l0.3-0.5c0.2-0.1,0.4-0.2,0.6-0.2
	c1-0.3,1.9-0.9,2.6-1.7c0.4-0.4,0.8-0.9,0.8-1.4c1.1-0.5,2.4-0.8,3.6-0.9c1.2-0.1,1.8-0.5,1.9,0.9c0,0.3,0.1,0.5,0.2,0.8
	c-0.3,0.7-0.5,1.5-0.6,2.4c0,1.1-0.6,1.7-1.8,1.8c-1.2,0.1-2.9,0.3-4.3,0.4C205.8,256.3,203.3,256.4,202,256L202,256z M210.3,276
	c-0.1-0.3-0.2-0.6-0.4-0.8c0.5-1.2,1.2-2.4,2.1-3.5c1.9-2.3,4-4.4,6.4-6.3c0.3,0.3,0.4,0.7,0.6,1.1C216.4,270,213.5,273.2,210.3,276
	L210.3,276z M217.1,263.6c-3.3,2.4-6.2,5.2-8.8,8.4c-1-3.1-1.8-6.3-2.5-9.5c-0.2-0.9-0.9-1.6-1.1-2.5c3.5-0.3,7.1-0.4,10.8-0.4
	c-0.2,1.8,2.2,0.4,3.5,0.9C216.9,261.7,216.6,262.7,217.1,263.6L217.1,263.6z M234.3,257c-0.7,1.5-1.2,3.1-1.5,4.7l-0.2,3.5
	c-0.6-1.1-0.9-2.4-0.7-3.7c0-1.4-2.5-2.4,0-4.4c0,0,0-0.1,0.1-0.2l2.4-1.3C234.7,256.1,234.3,256.6,234.3,257L234.3,257z
	 M234.5,251.7c-0.5,0.4-1,0.8-1.5,1.1c-0.2-0.6-0.9-1.1-1.7-1.5c-0.8-0.4-1.4-0.4-0.7-2.1c1.4-3.2,3.9-2.7,6.4-3.3
	c2.1-0.5,4.1-1.1,6.2-1.6C239.8,246.3,237.5,249.5,234.5,251.7L234.5,251.7z M384.8,248.4c0.4,0.5,0.7,1.1,0.7,1.8l-1.5-2.3
	C384.3,248,384.6,248.2,384.8,248.4z M376.9,250.1c1.6-1.6,3.7-2.5,6-2.5l0,0c-2.4,1.5-4.9,2.9-7.5,4
	C375.9,251.1,376.4,250.6,376.9,250.1L376.9,250.1z M363.7,273.3c2.8-6.2,5.2-11.1,7.3-14.9c0.3-0.5,0.5-0.9,0.8-1.4
	c1.3-0.4,2.7-0.9,4.1-1.4c3.4-1.4,6.6-3,9.7-5c-0.3,2.3-1,4.5-2.1,6.5c-1.7,3.7-3.7,7.2-6,10.5c-3.1,4.6-6.4,9-10,13.3
	c-4.4,5.3-9,10.3-14,15.1C357.6,287,360.9,279.4,363.7,273.3L363.7,273.3z M503.8,390.4c-1.9,3.5-3.9,6.8-5.9,9.9
	c-1.8,2.9-3.8,5.6-6,8.3c-1.8,2.1-3.8,4-6,5.6c-1.7,1.3-3.7,2-5.7,2.1c-1.8,0.2-3.6-0.5-4.7-1.9c-0.9-1.5-1.4-3.2-1.3-4.9
	c0.3-2.4,1-4.8,2.2-6.9c1.9-3.6,4.3-7,7.1-10.1c0.8-0.9,1.7-1.9,2.7-2.9h18.2L503.8,390.4z M506.6,385.3h-16.1
	c1.7-1.5,3.5-3.1,5.5-4.7l0.6-0.4h12.6C508.3,381.8,507.4,383.5,506.6,385.3L506.6,385.3z M498.6,378.6c5-3.7,10.3-7,15.8-9.8
	c-1.4,3.2-3,6.5-4.6,9.8H498.6z M637.9,251.6c7.4-5.1,15.5-9.2,23.9-12.4c1.5-0.7,3.2-0.3,4.2,0.9c1.5,1.7,2.4,3.9,4.4,5.3
	c1.3,0.8,0.5,2.4-1,2.6c-5,0.7-9.7,2.3-14.7,2.9c-7.2,0.8-14.2,2.7-20.8,5.7c-2.9,1.3-5.9,2.4-8.9,3.2c0.6-0.5,1.2-1.1,1.8-1.5
	s1.3-0.7,0.9-1.4C631.3,255.4,634.6,253.6,637.9,251.6L637.9,251.6z M659.4,277.3c-1.9,0.7-3.9,1-5.9,0.8c-1.5-0.4-1.2-1.3-0.7-2.1
	c0.9-1.2,1.7-2.5,2.2-3.9c-2,1-4,2.3-5.8,3.7c-2.3-1.5-4.4-3.3-6.6-5c0.3-0.4,0.6-0.9,0.8-1.3c0.2-0.5,1.2-1.2,0.5-2.1
	c-0.7-0.9-1.7-0.4-2.3,0l-2.2,1c-5-3.5-10.3-4.1-16.2-4.3c6.5-2.6,13.2-4.7,20-6.5c4.7-1.2,7.9,1.2,11.1,3.9
	c1.5,1.4,2.7,3.2,3.4,5.1c1.1,3,3.4,5.4,6.4,6.8c-0.1,0.4-0.3,0.7-0.4,1.1c-0.1,0.3-0.3,0.5-0.5,0.7c-0.6,0.2-1.2,0.5-1.7,0.9
	c-0.8,0.6-1.8,0.7-2.7,0.3L659.4,277.3z M609.9,252.2c1.6-2.5,3.4-4.9,5.3-7.1c0.8-0.9,1.4-2,1.7-3.1c0.4-1.9,1.3-2.4,3.5-2
	c3.4,0.7,7.1,1,10.3-1.3c1-0.7,1.1-1.9,1.9-2.7c0.8-0.8,0.9-1.7,2-1.3c1,0.4,1.6,1.5,1.2,2.6c-0.3,3.4-1.1,6.8-2.4,10
	c-1.2,3-3.6,5.4-6.7,6.5c-3.6,1.2-7,2.9-10.5,4.1c-4.9,2-9.9,3.6-15,4.7C604.8,259.7,607.8,256.2,609.9,252.2L609.9,252.2z
	 M617.6,276.1c1.6,1.7,3.5,3.1,5.7,4.1c-0.7,0.1-1.4,0.2-2.1,0.1c-2.3,0-4.6-0.3-6.8-1C615.7,278.5,616.8,277.4,617.6,276.1
	L617.6,276.1z M615.9,261.8c0.4-0.8,1.2-1.4,2.1-1.4h0.4c-0.4,0.4-0.8,0.9-1.2,1.3C616.7,261.6,616.3,261.7,615.9,261.8L615.9,261.8
	z M594.3,253.2c1.9,0.5,3.8,0.8,5.7,1.3c2.5,0.7,3.1,1.4,1.7,3.6c-2.3,3.5-5.7,6.1-9.7,7.3c-1.6,0.5-3.2,0.9-4.9,1.1
	C591.3,263.1,593.2,258.4,594.3,253.2L594.3,253.2z M587.9,250.4c0.4,0.3,0.7,0.5,1.1,0.8l-2.1,1.7c0.1-1.1,0.1-2.1,0-3.2
	C587.3,249.8,587.6,250,587.9,250.4L587.9,250.4z M598.9,268.4c4.3-1,8.8-0.3,12.6,1.9c-1.1,2-2.4,3.9-3.9,5.7
	c-1.1,1.8-3.3,2.4-5.2,1.6c-6-1.9-12.3-3.3-17.7-6.9c-0.3-0.2-0.7-0.4-1-0.7C588.8,269.8,593.8,269.2,598.9,268.4L598.9,268.4z
	 M576.8,270.8c2.1,1.2,4.1,2.3,6.2,3.4c5.1,2.8,10.5,5,16.1,6.5c5.5,1.3,10.6,4.1,16.1,5.6c1.4,0.4,1.8,1.8,2.1,2.9
	c1,3.5,3.9,6.3,7.4,7.1c0.8,0.3,1.5,0.6,2.3,0.9c-4.5-0.1-9-0.5-13.5-1.4c0,0-2.8-0.5-7.6-1.6c1.1-0.4,2.3-0.7,3.4-0.9
	c-5.1-1.1-10.3-2-15.5-2.5c-4.6-1.5-9.7-3.3-15.1-5.5c-0.7-1-1.3-1.9-2-3c5.2,2.2,10.6,3.6,16.1,4.3c1.3,0.2,3.5,1.3,3.9-0.1
	c0.1-0.4-0.1-0.8-0.5-1c1,0,2.3,0,2.3-1.2s-1.1-2.1-2.5-2.6c-5.1-1.6-10.2-3.2-15.2-4.9c-0.7-0.3-1.4-0.5-2.1-0.7l-0.3-0.1
	c-2.9-1.3-5.8-2.8-8.4-4.7C572.5,271.4,574.7,271.2,576.8,270.8L576.8,270.8z M590.9,291c-1.7,0.1-3.4,0.4-5.1,1
	c-0.9,0.4-2,0.2-2.6-0.6c-1.2-1.5-2.3-3-3.3-4.5C583.7,288.4,587.4,289.7,590.9,291L590.9,291z M569,265.6c0.8,0.6,1.7,1.3,2.5,1.9
	l-2.8,0.1C568.8,266.9,568.9,266.2,569,265.6z M568,264.8L568,264.8c0,0.3,0,0.6,0,0.9c0-0.2-0.1-0.5-0.2-0.7L568,264.8z
	 M567.3,277.3c0.1-0.4,0-0.9,0.9-1.3c1.2,2.1,2.3,4.1,3.5,6.1c-1.7-0.8-3.4-1.7-5.1-2.5C566.9,278.9,567.1,278.1,567.3,277.3
	L567.3,277.3z M566.2,280.5c2.1,1,4,2.1,6,2.9c0,0.3-0.2,0.5-0.4,0.7c-0.8,0.7-1.5,1.6-2.1,2.6c-1.8-0.4-3.7-0.5-5.6-0.5l-1.3-0.6
	C564.1,284.1,565.2,282.4,566.2,280.5L566.2,280.5z M516.2,350.1c-2.8,1.7-6,2.6-9.3,2.7c-2.4,0.1-4.8-0.8-6.5-2.4
	c-1.7-2-2.6-4.5-2.4-7.1c0.1-3.7,1-7.4,2.7-10.8c2-4.3,4.6-8.3,7.7-11.9c2.1-2.5,4.4-4.8,7-6.7c2.2-1.7,4.6-3.1,7.1-4.3
	c2.1-1,4.4-1.8,6.6-2.2c1.8-0.4,3.7-0.6,5.6-0.7c1.3,0,2.6,0.2,3.8,0.7c1,0.4,1.9,0.9,2.6,1.6c0.6,0.6,1.2,1.3,1.6,2.1
	c0.4,0.7,0.6,1.5,0.7,2.2c-1.9,2.8-3.7,5.4-5.3,7.8c-1.6,2.5-3,5-4.4,7.4s-2.7,4.8-4,7.2c-1.3,2.4-2.6,4.8-3.9,7.3
	C522.9,345.7,519.7,348.2,516.2,350.1L516.2,350.1z M563.3,323.3c-1.2,2.1-1.8,3.1-1.8,3.1c-1.9,2.9-4,5.6-6.2,8.3
	c-2.2,2.6-4.6,5.1-7.1,7.4c-2.8,2.5-5.8,4.9-9,7c-3.3,2.3-7.2,4.7-11.6,7.3c1.7-3.8,3.5-7.7,5.3-11.7c1.9-4,3.7-7.8,5.5-11.5
	c1.8-3.7,3.5-7.2,5.2-10.6s3.1-6.2,4.4-8.7c1.3-2.5,2.1-4.1,2.8-5.5c2.7,0.4,7.9,0.7,10.9-2.9c1.2,3.8,3.3,7.3,6,10.2
	C565.9,318.8,564.4,321.3,563.3,323.3L563.3,323.3z M567.4,294.9c-0.1,0.5-0.2,0.9-0.3,1.3c-0.4-0.3-0.7-0.6-0.8-0.7
	c-1.4-2.9-3-5.7-4.8-8.3l0.6-0.7l2.3,1c0.9,1.7,2.1,3.2,3.7,4.3C567.8,292.9,567.7,293.9,567.4,294.9L567.4,294.9z M569.7,312.7
	c1.2-4,0.8-8.3-1.1-12.1c0.4-0.1,0.8-0.3,1.2-0.5c0.6,2.6,1.7,5,3.3,7.2C571.9,309.1,570.8,310.9,569.7,312.7L569.7,312.7z
	 M575.9,303c-1.5-1.1-3.2-2.3-4.5-3.1c-0.1-0.2-0.3-0.3-0.4-0.4c2.3-1.4,4.1-3.4,5.1-5.9c0.6-0.1,1.2-0.2,1.8-0.4
	c-0.2-0.8-0.5-1.5-0.9-2.2c0-0.4,0.2-0.8,0.7-0.9c0.9-0.2,1.2,0.7,1.7,1.3c0.8,1,1.7,2.1,2.5,3C579.7,297.1,577.8,300,575.9,303
	L575.9,303z M589.3,305.3c-0.3,1.1-0.5,2.1-0.7,3.1c-2.4-0.1-4.7-0.5-7-1.4c-0.1-0.7-0.2-1.4-0.2-2.1c0-1.1,0.1-2.1,0.4-3.1
	c0.2-0.8,0.6-1.6,0.9-2.3c0.3-0.6,0.7-1.2,1.1-1.8c0.1-0.2,0.2-0.4,0.4-0.6c1.2,1.4,2.6,2.7,4.1,3.7
	C590.3,302.3,589.6,303.9,589.3,305.3L589.3,305.3z M601.1,305.6c-0.8,0.5-1.6,0-2.3-0.6l-9.3-7.9c6.2,1.3,10.5-0.6,14.9-2.2
	c5.6,1.4,9.1,2.1,9.1,2.1c4.4,0.8,8.8,1.3,13.3,1.4c0.9,1.6,1.3,3.5,1,5.3c-2.6,0.1-5.2,1-7.3,2.6c-1.9-0.8-4-1.4-6.1-1.7
	C609.8,303.9,605,303.1,601.1,305.6L601.1,305.6z M616.4,316.7c-0.4-0.1-0.7-0.3-1.1-0.5c-2.4-0.9-4.6-2.2-6.5-3.8
	c3.1,0.1,6.2-0.2,9.2-0.9c1.3,0.5,2.8,0.6,4.1,0.2C622.2,311.8,619.5,313.9,616.4,316.7L616.4,316.7z M631.4,321.6
	c-0.9-0.3-1.8-0.7-2.7-1.1c0.9,0,1.8-0.1,2.7-0.3C631.4,320.6,631.4,321.1,631.4,321.6L631.4,321.6z M628.5,304.7
	c0.4-1.6,0.4-3.2,0-4.7c4.1,1.9,7.2,5.6,8.4,10c-1.5,1.2-2.7,2.7-3.6,4.4c-2.6-0.2-5.3-0.2-7.9,0.1c0.5-1.1,0.8-2.3,0.8-3.5
	c1.8,0.2,3.6,0.7,5.2,1.5c-1.4-1-2.9-2-4.3-2.9C628.5,308.4,629,306.5,628.5,304.7L628.5,304.7z M633.5,297.3
	c-2.3-2.2-4.1-4.9-6.5-7.1c-0.4-0.4-0.9-0.8-0.5-1.2c0.3-0.2,0.7-0.3,1.1-0.3c5.2,1.1,10.2,0.1,15.4,0.7c2.3,0.3,3.2,1,3.6,3
	c0.3,1.4,0.8,2.8,1.5,4.1C644.3,296.9,639,297.2,633.5,297.3L633.5,297.3z M659.5,295.7l-4.7,0.4l0,0c-0.7-1.3-1.5-2.6-2.4-3.7
	c-1.2-1.4-0.8-1.9,1-1.7c3.6,0.4,7.2,1,10.8,1.7C662.6,293.3,661,294.4,659.5,295.7L659.5,295.7z M665.4,289.2
	c-4.4-1.1-8.9-1.9-13.4-2.5c-1.8-0.2-3.6-0.3-5.9-0.5c1.1-0.8,2.1-1.7,3-2.7c0.5-0.7,1.1-1.3,1.9-1.7c1.5,0.1,3,0.2,4.4,0.5
	c1.4,0.2,2.8,0.2,4.1,0c-0.1-0.8-0.7-1.5-1.5-1.8l3.7-0.5c1.2,1.4,2.2,3,3,4.7c0,0,0.6,2.1,1.4,4.6L665.4,289.2z M663.9,258.7
	c-1.4-1.8-3.6-1.9-5.3-2.9c-0.7-0.3-1.3-0.6-1.9-0.9c4-1.4,8.2-2.5,12.4-3.2c0.7-0.1,1.4,0.4,1.6,1.1c0.5,1.5,1.8,1.8,3.1,2.1
	c2.1,0.3,4,0.5,6,0.9c2,0.5,3.7-1.4,5-3.1c1-1.3,1.8-2.8,2.7-4.1c0.5-1,1.2-1.8,2.1-2.6c0.9-0.6,2.2-1.3,3.1-0.7
	c0.9,0.6-0.3,1.7-0.5,2.6c-0.7,2.2-1.6,4.2-2.8,6.2c-0.9,2-1,4.2-0.4,6.3c0.2,0.7,0.5,1.5,1.1,1.7c1.6,0.7,3.2,1.5,4.7,2.4
	c-3.7,1.9-6.7,4.9-8.6,8.6c-0.3,0.6-0.6,1.1-1.1,1.5c0.5-1.7,1-3.5,1.5-5.5c0,0-1.9,3-4.4,6.6c-0.5,0-0.9,0-1.4,0
	c-2.1-0.1-4.1-0.1-6.2,0c0.2-0.5-0.2-1-0.6-1.3l-0.5-0.5c4-4.5,6.5-9.6,10.9-13.4c-0.8-0.6-1.8-0.6-2.6,0c-4.6,1.6-8.9,3.9-12.9,6.7
	C667.5,264.3,665.9,261.4,663.9,258.7z M669,279.3c3.7-0.3,7.4-0.5,11.1-0.5c-1,1.4-2.1,2.9-3.1,4.3c-2.7,1-5.2,2.6-7.1,4.7
	C670.1,285,669.8,282.1,669,279.3L669,279.3z M671.7,275.9L671.7,275.9h0.1H671.7z M669,295.1c0-0.4,0.2-0.9,0.2-1.4
	c1.4,0.4,2.8,0.7,4.3,1.1L669,295.1z M684.6,296.1c-0.8,0.6-1.9,0.6-2.6,0l-1.1-0.8l5.2-0.4l0.7-0.1
	C686.1,295.2,685.3,295.6,684.6,296.1L684.6,296.1z M687.1,293.8L687.1,293.8L686,294l-6.5,0.4c-1.1-0.7-2.2-1.4-3.4-1.9
	c-0.7-0.3-1.3-0.9-1-1.4c1.1-0.4,2.1-1,2.8-1.8c2.5-1.8,4.4-4,6.9-5.7c0.6-0.4,1.9-0.5,1.5-1.4c-0.5-0.9-1.7-0.6-2.6-0.5l-1.2,0.2
	c0.4-0.9,0.7-1.8,1.1-2.8c2.1,0.1,3.9,0.2,5.9,0.4c2.4,0.2,3.1,1.1,3,2.9c-0.2,4,1.8,7.7,5.2,9.8c0.2,0.1,0.4,0.3,0.6,0.5
	C694.6,292.7,690.8,293.1,687.1,293.8L687.1,293.8z M709.2,292.2c-1.5,0.2-3.2,0.4-4.9,0.6c-0.7-4.6-2.7-8.9-5.8-12.4
	c5.7,0.8,11.2,2.5,16.3,5.2c0.1,1.4,0.3,2.8,0.7,4.1C713.2,290,711,290.8,709.2,292.2L709.2,292.2z M720.9,289.9
	c-1.3-0.2-2.7-0.3-4-0.3c0.5-0.7,0.9-1.3,1.2-2.1c1.2,0.7,2.3,1.4,3.4,2.2L720.9,289.9z M744.6,303.8L744.6,303.8
	c-0.4-0.2-0.7-0.4-1.1-0.6c0,0-8.5-2.7-17.6-5.2c0.4-1.3,0.3-2.7-0.2-3.9c-0.6-1.6,0.1-2.4,2.1-1.2c3.5,2.2,7.2,4.2,10.9,6
	c2.4,1,4.6,2.3,6.6,3.9c0.7,0.6,1.1,1.1,1.1,1.6L744.6,303.8z"/>
<polygon points="464.3,77.5 410.3,30.7 356.2,77.5 359.1,80.1 410.3,35.8 461.4,80.1 "/>
<polygon points="410.3,76.1 420.7,67 410.3,58 399.8,67 "/>
<path d="M236.4,442.6c0.5,0.3,1.1,0.6,1.8,0.8c0.8,0.2,1.6,0.3,2.4,0.3c0.9,0,1.9-0.2,2.7-0.6c0.7-0.4,1.2-1,1.5-1.8
	c0.4-0.9,0.6-1.9,0.7-2.9c0-1.1,0.2-2.4,0.2-3.9v-11.2h2.1v11.2c0,1.5-0.1,3-0.2,4.6c-0.1,1.2-0.5,2.4-1,3.5c-0.5,1-1.2,1.8-2.2,2.3
	c-1.2,0.6-2.5,0.9-3.8,0.8c-1.7,0-3.4-0.4-4.8-1.4L236.4,442.6z"/>
<path d="M268.1,443.4v1.9h-14.8v-22h14.4v1.9h-12.4v7.9h10.8v1.8h-10.8v8.4L268.1,443.4z"/>
<path d="M280.8,423.5h2.1l3.1,7.8l3.1-7.8h2.1l-3.8,9.4l4.1,9.9l8-19.5h2.4l-9.2,22h-1.9l-4.6-10.9l-4.6,10.9h-1.9l-9.3-22h2.3
	l8,19.5l4.1-9.9L280.8,423.5z"/>
<path d="M319.9,443.4v1.9h-14.8v-22h14.4v1.9h-12.4v7.9H318v1.8h-10.7v8.4L319.9,443.4z"/>
<path d="M324.3,445.4v-22h2.2v20.1h12.7v1.9H324.3z"/>
<path d="M342.7,445.4v-22h9.3c0.9,0,1.8,0.2,2.6,0.6c0.8,0.4,1.5,0.9,2.1,1.6c0.6,0.6,1,1.4,1.4,2.2c0.3,0.8,0.5,1.7,0.5,2.5
	c0,0.8-0.1,1.5-0.4,2.3c-0.2,0.7-0.6,1.4-1,2.1c-0.4,0.6-0.9,1.1-1.5,1.5c-0.6,0.4-1.3,0.7-2.1,0.8l5.4,8.5h-2.5l-5.2-8.1h-6.5v8.1
	L342.7,445.4z M344.8,435.3h7.2c0.6,0,1.2-0.1,1.8-0.4c0.5-0.3,1-0.7,1.3-1.1c0.4-0.5,0.7-1,0.9-1.6c0.2-0.6,0.3-1.2,0.3-1.9
	c0-0.7-0.1-1.3-0.4-1.9c-0.2-0.6-0.6-1.1-1-1.6c-0.4-0.5-0.9-0.8-1.4-1.1c-0.5-0.3-1.1-0.4-1.7-0.4h-7L344.8,435.3z"/>
<path d="M362.6,423.4l7.2,11.8l7.3-11.8h2.4l-8.5,13.8v8.3h-2.1v-8.3l-8.5-13.7L362.6,423.4z"/>
<path d="M404.2,423.4h1.8l9.1,22h-2.3l-2.7-6.9h-9.9l-2.8,6.9h-2.3L404.2,423.4z M409.5,436.8l-4.4-10.9l-4.5,10.9L409.5,436.8z"/>
<path d="M420.8,427.4v18h-2.1v-22h1.7l14.4,18.3v-18.3h2.1v21.9H435L420.8,427.4z"/>
<path d="M442.8,445.4v-22h7.4c1.6,0,3.1,0.3,4.6,0.9c1.3,0.5,2.4,1.3,3.3,2.4c0.9,1,1.6,2.2,2.1,3.5c0.5,1.4,0.7,2.8,0.7,4.3
	c0,1.5-0.2,3.1-0.7,4.5c-0.5,1.3-1.2,2.5-2.1,3.5c-0.9,1-2.1,1.7-3.3,2.2c-1.4,0.5-2.9,0.8-4.4,0.8H442.8z M458.6,434.3
	c0-1.2-0.2-2.5-0.5-3.6c-0.4-1.1-0.9-2-1.6-2.9c-0.7-0.8-1.6-1.4-2.6-1.9c-1.1-0.5-2.3-0.7-3.6-0.7H445v18.1h5.3
	c1.2,0,2.5-0.2,3.6-0.7c1-0.4,1.9-1.1,2.6-1.9c0.7-0.8,1.3-1.8,1.6-2.9C458.5,436.8,458.6,435.6,458.6,434.3L458.6,434.3z"/>
<path d="M481.6,445.4v-22h7.5c1.6,0,3.1,0.3,4.6,0.9c1.2,0.5,2.4,1.3,3.3,2.4c0.9,1,1.6,2.2,2.1,3.5c0.4,1.4,0.7,2.8,0.7,4.3
	c0,1.5-0.2,3.1-0.7,4.5c-0.4,1.3-1.1,2.5-2.1,3.5c-0.9,1-2.1,1.7-3.3,2.2c-1.4,0.5-2.9,0.8-4.4,0.8H481.6z M497.5,434.3
	c0-1.2-0.2-2.5-0.6-3.6c-0.3-1.1-0.9-2-1.6-2.9c-0.7-0.8-1.6-1.5-2.6-1.9c-1.1-0.5-2.3-0.7-3.5-0.7h-5.3v18.1h5.3
	c1.2,0,2.5-0.2,3.6-0.7c1-0.4,1.9-1.1,2.6-1.9c0.7-0.8,1.3-1.8,1.6-2.9C497.3,436.8,497.5,435.6,497.5,434.3z"/>
<path d="M518.9,443.4v1.9h-14.8v-22h14.4v1.9h-12.4v7.9h10.7v1.8h-10.7v8.4L518.9,443.4z"/>
<path d="M521.3,434.2c0-1.3,0.2-2.7,0.7-3.9c0.5-1.3,1.2-2.5,2.1-3.5c0.9-1.1,2-1.9,3.3-2.5c1.4-0.7,2.9-1,4.4-1
	c1.8,0,3.5,0.4,5,1.3c1.3,0.8,2.4,2,3.1,3.5l-1.7,1.1c-0.3-0.7-0.7-1.3-1.3-1.8c-0.5-0.5-1-0.9-1.6-1.2c-0.6-0.3-1.2-0.5-1.8-0.7
	c-0.6-0.1-1.2-0.2-1.8-0.2c-1.2,0-2.4,0.3-3.5,0.8c-1,0.5-1.8,1.2-2.5,2.1c-0.7,0.9-1.2,1.9-1.6,2.9c-0.4,1.1-0.5,2.2-0.5,3.3
	c0,1.2,0.2,2.4,0.6,3.5c0.4,1.1,1,2.1,1.7,3c0.7,0.8,1.6,1.5,2.6,2.1c1,0.5,2.1,0.8,3.3,0.8c0.6,0,1.3-0.1,1.9-0.2
	c0.7-0.1,1.3-0.4,1.9-0.7c0.6-0.3,1.2-0.8,1.7-1.3c0.5-0.5,1-1.2,1.3-1.8l1.8,0.9c-0.3,0.8-0.8,1.6-1.5,2.2
	c-0.6,0.6-1.3,1.2-2.1,1.6c-0.8,0.4-1.6,0.8-2.5,1c-0.8,0.2-1.7,0.3-2.6,0.3c-1.4,0-2.9-0.3-4.1-1c-1.2-0.6-2.3-1.5-3.2-2.6
	c-0.9-1.1-1.6-2.3-2.1-3.6C521.7,437,521.4,435.6,521.3,434.2z"/>
<path d="M553,445.5c-1.4,0-2.8-0.3-4.1-0.9c-1.2-0.6-2.3-1.5-3.3-2.5c-0.9-1.1-1.6-2.3-2.1-3.6c-1-2.7-1-5.6,0-8.3
	c0.5-1.3,1.3-2.5,2.2-3.6c0.9-1,2-1.9,3.3-2.5c1.3-0.6,2.7-0.9,4.1-0.9c1.4,0,2.8,0.3,4.1,1c1.2,0.6,2.4,1.5,3.3,2.6
	c0.9,1.1,1.6,2.3,2.1,3.6c0.5,1.3,0.7,2.7,0.7,4.1c0,1.4-0.3,2.8-0.8,4.1c-0.5,1.3-1.2,2.5-2.2,3.5c-0.9,1-2,1.8-3.3,2.4
	C555.8,445.3,554.4,445.6,553,445.5z M544.8,434.4c0,1.2,0.2,2.3,0.6,3.4c0.4,1.1,0.9,2.1,1.7,2.9c0.7,0.9,1.6,1.6,2.6,2.1
	c1,0.5,2.2,0.8,3.3,0.8c1.2,0,2.3-0.3,3.4-0.8c1-0.5,1.9-1.2,2.6-2.1c0.7-0.9,1.3-1.9,1.6-2.9c0.4-1.1,0.6-2.2,0.6-3.3
	c0-1.2-0.2-2.4-0.6-3.5c-0.4-1.1-1-2-1.7-2.9c-0.7-0.8-1.6-1.5-2.6-2.1c-1-0.5-2.1-0.8-3.3-0.7c-1.2,0-2.3,0.2-3.4,0.8
	c-1,0.5-1.9,1.2-2.6,2.1c-0.7,0.9-1.3,1.9-1.6,3C545,432.1,544.8,433.3,544.8,434.4z"/>
<path d="M567.7,445.4v-22h9.3c0.9,0,1.8,0.2,2.6,0.6c0.8,0.4,1.5,0.9,2.1,1.6c0.6,0.6,1,1.4,1.4,2.2c0.3,0.8,0.5,1.7,0.5,2.5
	c0,0.8-0.1,1.5-0.4,2.3c-0.2,0.7-0.6,1.4-1,2.1c-0.4,0.6-0.9,1.1-1.5,1.5c-0.6,0.4-1.3,0.7-2.1,0.8l5.4,8.5h-2.5l-5.2-8.1h-6.5v8.1
	L567.7,445.4z M569.8,435.3h7.2c0.6,0,1.2-0.1,1.8-0.4c0.5-0.3,1-0.7,1.3-1.1c0.4-0.5,0.7-1,0.9-1.6c0.2-0.6,0.3-1.2,0.3-1.9
	c0-0.7-0.1-1.3-0.4-1.9c-0.2-0.6-0.6-1.1-1-1.6c-0.4-0.5-0.9-0.8-1.4-1.1c-0.5-0.3-1.1-0.4-1.7-0.4h-7V435.3z"/>
</svg>
