<svg id="Layer_1" data-name="Layer 1" xmlns="http://www.w3.org/2000/svg" viewBox="0 0 394 220.96"><title>wild_things_logo</title><path d="M222,72.17a4.59,4.59,0,0,0-1,1.17,5.5,5.5,0,0,0-.63,1.45,5.23,5.23,0,0,0-.21,1.33,1.78,1.78,0,0,0,.31,1.07,1.07,1.07,0,0,0,.91.44,2.64,2.64,0,0,0,1.34-.39,4.83,4.83,0,0,0,1.2-1,5.3,5.3,0,0,0,.9-1.35,3.46,3.46,0,0,0,.35-1.45,1.75,1.75,0,0,0-.53-1.22,1.64,1.64,0,0,0-1.26-.56A2.09,2.09,0,0,0,222,72.17Z"/><path d="M111.43,156l-1.76-.53c-.19.54-.94,4.12-1,4.77a15.34,15.34,0,0,0-.14,2.08,12.78,12.78,0,0,0,1.09,5.29,11.92,11.92,0,0,0,3.2,4.26,15.54,15.54,0,0,0,5.22,2.84,22.4,22.4,0,0,0,7.16,1,24.93,24.93,0,0,0,8.11-1.21,21.68,21.68,0,0,0,6.29-3.36,25.86,25.86,0,0,0,4.93-5.08,57.88,57.88,0,0,0,4.06-6.4q1.89-3.47,3.66-7.32c1.17-2.57,2.41-5.16,3.71-7.79s2.72-5.25,4.25-7.86a56.12,56.12,0,0,1,5.3-7.51l-1.13-.95a39.3,39.3,0,0,0-6.12,6.39,75.14,75.14,0,0,0-4.91,7.26q-2.23,3.77-4.15,7.59c-1.27,2.56-2.55,5-3.81,7.39s-2.58,4.58-3.92,6.65A29.69,29.69,0,0,1,137,169a19.64,19.64,0,0,1-5.47,3.64,16.74,16.74,0,0,1-6.87,1.33,19.26,19.26,0,0,1-5.24-.72,14.44,14.44,0,0,1-4.58-2.16,11.23,11.23,0,0,1-3.23-3.62,10.24,10.24,0,0,1-1.23-5.1,10.43,10.43,0,0,1,.14-1.78C110.56,160,111.29,156.5,111.43,156Z"/><path d="M206.28,138.43a4.65,4.65,0,0,0-1,1.18,5.28,5.28,0,0,0-.64,1.46,5.17,5.17,0,0,0-.21,1.33,1.82,1.82,0,0,0,.32,1.08,1.05,1.05,0,0,0,.91.44,2.64,2.64,0,0,0,1.34-.39,5.37,5.37,0,0,0,1.21-1,5.27,5.27,0,0,0,.9-1.36,3.5,3.5,0,0,0,.35-1.46,1.79,1.79,0,0,0-.53-1.23,1.68,1.68,0,0,0-1.26-.56A2.06,2.06,0,0,0,206.28,138.43Z"/><path d="M386.44,148.59c-.89-.54-2.42-.59-2.61-1.48-.13-.63,2.05-1.44,2.39-2.2.74-1.64,1.11-3.35-.32-5.15a2.89,2.89,0,0,0-3-1.21,8.06,8.06,0,0,1-4.39-.26c-1.53-.61-2.87-.68-3.85.54-.43.53-1,.53-1.76.24-2.05-.77-3.37-.47-4.56,1a2.41,2.41,0,0,1-1.4.88,3.79,3.79,0,0,0-3.06,2.6c-.21.67-.45.79-1.12.25a11.63,11.63,0,0,0-3.66-1.91,18.94,18.94,0,0,1-4.07-2.05c.69-.24,1.31-.48,1.84-.72h0s0,0,.06,0a13.46,13.46,0,0,0,3.13-1.86,7.33,7.33,0,0,0,.81-.36l0,0a6.59,6.59,0,0,0,3.87-.19,6.35,6.35,0,0,1,5.83,1.75s-1-4.19-5.06-4a8.45,8.45,0,0,0-3.2,1.31,7.92,7.92,0,0,0,2.1-5.13s-3.83,1.29-5,6.46a11.29,11.29,0,0,1-1.3.83,8.74,8.74,0,0,0,1.13-2.24c.7-1,2.11-3.79-3-5.85a23.61,23.61,0,0,1,1.86,3.2,4.07,4.07,0,0,0-2.82,0,4.18,4.18,0,0,0,3.41,1.54,6,6,0,0,1,.17.67c0,.07-.72,2.49-2.15,3.36-.62.28-1.35.56-2.18.84-.92-.58-1.82-1.17-2.76-1.7a5.65,5.65,0,0,0-.38-4.44,4.19,4.19,0,0,0-1.71,3.39,32.5,32.5,0,0,0-9.69-3c-.38-.05-.84.05-1.24-.42a14.53,14.53,0,0,0,3.54-3.72c.12-.21.26-.44.39-.68a4.09,4.09,0,0,0,2.23-.23c1.49-.57,2.85-1.36,3.06-3.24.09-.81.78-1.36,1.23-2,1.3-1.87,1.29-2.72-.07-4.57a1.42,1.42,0,0,1-.29-1.15,2.34,2.34,0,0,1,1.63,2c.29,1.84.66,3.66-.39,5.46a3.18,3.18,0,0,0,.11,3c.56,1.17,1.08,2.35,1.63,3.52.27.58.76.69,1,.12a7.4,7.4,0,0,0,.78-2.72c0-1,.06-2.07.15-3.1.11-1.23.48-2.63-1-3.46a.86.86,0,0,1-.33-.78c0-.24-.15-.53.12-.68s.47.08.64.26a9.8,9.8,0,0,1,1.54,2.56,4.42,4.42,0,0,0,4.87,2.71c.57-.09,1.21-.42.8-1.07-.66-1.06-.87-2.35-1.72-3.31a9.54,9.54,0,0,0-3.28-2.15,55.43,55.43,0,0,1-5.66-3.4,3.7,3.7,0,0,1,4.22.38,3.73,3.73,0,0,0,3.9,1c1.74-.4,3.45-.93,5.19-1.37.61-.16,1.14-.38,1.25-1s-.43-1.17-1-1.42c-3-1.36-6-2.15-9.17-.38-1.73,1-3.73,1.19-5.59,1.79-.87.28-3.22-1.37-3.44-2.33-.13-.55.32-.47.63-.48a15.1,15.1,0,0,1,4,.23c1.78.41,3-.38,4-1.62a4.42,4.42,0,0,0,.91-4.43.88.88,0,0,0-.46-.55c-1.31-.47-1.44-1.37-1.18-2.59a1.65,1.65,0,0,0-1.29-2.1.67.67,0,0,1-.23-.1c-2.05-1.6-4.19-1.39-6.41-.37-1.54.71-1.7,2.19-1.76,3.47-.08,1.62-1.09,2.61-1.8,3.85-.32-.94,0-1.9-.33-2.78-.74-2-.19-4.13-1-6.11a5.41,5.41,0,0,0-3.39-3.4c-1.11-.4-2.23,0-3.18,1.39A2.7,2.7,0,0,1,331.35,99c-2.42.14-3.76,1.63-4.59,3.69a3.55,3.55,0,0,0,2.43,4.54,14.85,14.85,0,0,0,3.9.84,8.2,8.2,0,0,1,4.1,1.06,3.94,3.94,0,0,1-2.54.13c-1.32-.2-2.62-.51-3.95-.67a3.81,3.81,0,0,0-3.9,1.69c-.73,1.06-1.58,2-2.38,3-.11.13-.33.28-.3.38.47,2.44-1.7,1.93-2.77,2.24a24.5,24.5,0,0,0-7,3.5c-1.48,1-3,2-4.49,2.93a.84.84,0,0,1-.93.16c1.33-1.55,1.53-3.52,2.2-5.32a7.38,7.38,0,0,1,5.59-4.53c.73-.17,1.5-.14,2.24-.27,2.65-.46,4.05-2.48,5.38-4.5.49-.74.33-1.26-.81-1.45-1.93-.33-3.49.47-5.37,1.31a15.71,15.71,0,0,1,1.78-3.12,6.06,6.06,0,0,0,.73-3.12c0-.73-.29-.88-.91-.73-2.35.57-5.27,4.65-5.07,7.1,0,.52-.28.75-.6,1a9.75,9.75,0,0,0-2.53,3.07c-.13.27-.16.76-.62.62a.7.7,0,0,1-.47-.81,1.88,1.88,0,0,0-.8-1.94,3.15,3.15,0,0,1-.65-2c-.24-1.53-.72-1.81-2.23-1.87-3-.12-3.07.85-2.39-2.66.18-.92.13-1-.74-.81-.47.12-.34-.17-.43-.35-.72-1.45-1.47-1.7-3-1.47a7.9,7.9,0,0,1-3-.19A4.12,4.12,0,0,0,292,103.6c-.18.87-.55.92-1,.43a2.11,2.11,0,0,0-2.55-.26c-2.57,1-4.93,2.44-6.05,5.24a3.22,3.22,0,0,0,.68,3.54c1.07.82,2.06.3,2.95-.4a9.78,9.78,0,0,1,2.52-1.06c.22-.09.52-.15.68.11s-.06.48-.25.62c-1.48,1.08-2.16,2.74-3.1,4.2a2.67,2.67,0,0,0,.62,3.82,15.44,15.44,0,0,1-2.13,5.9c-.39.41-1.35,1.41-2.27,2.33-.35-.22-.68-.47-1-.68a1.87,1.87,0,0,1-.38-.28,1.68,1.68,0,0,0,.65-1c2.83-1.72,3.22-4.51,2.92-7.5-.16-1.66-.7-1.7-1.11-3.36-.07-.26-.12-.58-.5-.69a.54.54,0,0,0-.73.3c-.5,1.66-1.72,2.19-2.41,3.31-1.64.62-3.34,1-4.94,1.63a25.38,25.38,0,0,0-11.85,9.44,7.26,7.26,0,0,1-2.13,1.92c-.44.28-.71.76-.52,1.14s.72.11,1.07-.06a19.22,19.22,0,0,1,6.68-1.9c1.58,2.27,4.57,5.71,5.92,7.24a11.08,11.08,0,0,1,0,1.73.48.48,0,0,0,.35.58.89.89,0,0,0,.86-.43l.17-.21a25.75,25.75,0,0,1,2.25,3.83h0l.05,0a9.72,9.72,0,0,1,.41,1.05,7.49,7.49,0,0,0-.53.64h0a.7.7,0,0,0-.28.39l-.19.29a6.5,6.5,0,0,0-6.35-.15,10.26,10.26,0,0,0,3.87,1.63,23.68,23.68,0,0,1-3.76,1.71c.28-.53.43-.83.43-.85l-1.16-.77-1.9,2.49a11,11,0,0,0-.81-1.19,5.41,5.41,0,0,0-1.34-1.18,8,8,0,0,0-2.06-.91,10,10,0,0,0-2.93-.37,13.1,13.1,0,0,0-3.91.67,22.3,22.3,0,0,0-4.31,1.88,27,27,0,0,0-4.2,2.93,23.74,23.74,0,0,0-3.62,3.82,19.09,19.09,0,0,0-1.7,2.7l-.1-.08q-1.36,2.12-3.06,4.47t-3.39,4.36A25.45,25.45,0,0,1,233,170a5,5,0,0,1-3,1.32,1.18,1.18,0,0,1-.77-.28,1.33,1.33,0,0,1-.35-1.09,6.27,6.27,0,0,1,.52-2.34,24,24,0,0,1,1.34-2.69c.54-.94,1.11-1.91,1.72-2.92s1.19-2,1.73-3.08a21.59,21.59,0,0,0,1.33-3.13,9.36,9.36,0,0,0,.53-3.07,7.37,7.37,0,0,0-.54-3.05,5.52,5.52,0,0,0-1.32-1.84,4.35,4.35,0,0,0-1.66-.92,5.92,5.92,0,0,0-1.54-.24,7.16,7.16,0,0,0-1.73.24,10.38,10.38,0,0,0-2.07.83,18.43,18.43,0,0,0-2.46,1.56,27,27,0,0,0-2.89,2.5,9.13,9.13,0,0,0,.21-1.9,6.08,6.08,0,0,0-.31-2,4.47,4.47,0,0,0-.87-1.49,3.58,3.58,0,0,0-2.76-1.25,4.54,4.54,0,0,0-2.72.93,13.79,13.79,0,0,0-2.64,2.62,42.56,42.56,0,0,0-2.81,4c-1,1.56-2.06,3.27-3.26,5.15-.87,1.34-1.73,2.66-2.6,4a30.19,30.19,0,0,1-2.66,3.5,15.33,15.33,0,0,1-2.72,2.48,4.85,4.85,0,0,1-2.82,1,1.73,1.73,0,0,1-1.19-.37,1.8,1.8,0,0,1-.42-1.39,9.63,9.63,0,0,1,.49-2.74,35.92,35.92,0,0,1,1.28-3.46c.53-1.23,1.12-2.5,1.78-3.8s1.3-2.55,1.93-3.73S201,151,201.58,150s1-1.8,1.28-2.41l-1.12-.49q-1.62,1.89-3.54,4.22a55.46,55.46,0,0,0-3.55,4.83c-.53.81-1,1.63-1.45,2.45-.69,1.15-1.42,2.32-2.21,3.52q-1.43,2.18-2.85,4a19.72,19.72,0,0,1-2.79,2.92,4.13,4.13,0,0,1-2.5,1.15,1.37,1.37,0,0,1-1.32-.69,3.2,3.2,0,0,1-.37-1.5,8.5,8.5,0,0,1,.53-2.79A26.4,26.4,0,0,1,183,162q.8-1.58,1.71-3.24c.6-1.1,1.17-2.18,1.7-3.23a28.31,28.31,0,0,0,1.32-3,8.12,8.12,0,0,0,.53-2.73,5.85,5.85,0,0,0-.2-1.48,3.7,3.7,0,0,0-.66-1.35,3.46,3.46,0,0,0-1.31-1,4.87,4.87,0,0,0-2.09-.39,9.71,9.71,0,0,0-3.85.86,20.13,20.13,0,0,0-4,2.41,32.29,32.29,0,0,0-4,3.68,49.07,49.07,0,0,0-3.87,4.66l4.29-9.39q2-1.93,4.26-4.21t4.38-4.69q2.16-2.43,4.11-4.89c1.3-1.64,2.44-3.24,3.43-4.78a30.59,30.59,0,0,0,2.36-4.42,9.91,9.91,0,0,0,.88-3.74,3.3,3.3,0,0,0-.87-2.45,3.26,3.26,0,0,0-2.41-.86,5.74,5.74,0,0,0-2.72.72,12,12,0,0,0-2.62,1.92A23.65,23.65,0,0,0,181,123c-.38.1-.75.22-1.14.3a37.56,37.56,0,0,1-5.18.79c-1.79.16-3.59.23-5.42.23q-3.66,0-7.56-.39c-2.61-.25-5.2-.53-7.78-.82s-5.1-.57-7.57-.83a66.79,66.79,0,0,0-7-.39,37.24,37.24,0,0,0-5.45.41,28.31,28.31,0,0,0-5.3,1.3,24.24,24.24,0,0,0-4.76,2.27,17.05,17.05,0,0,0-2.05,1.49,33.47,33.47,0,0,0-.33-3.46c-.32-2.67.27-3.92,2.74-5.26a7.79,7.79,0,0,0,1.86-2c.86-.22,1.73-.43,2.6-.62,1.1-.23,2.56-.57,2.55-1.31s-2.06-1-2.66-1a10,10,0,0,0-1.11.1.75.75,0,0,0,0-.15c0-.32.21-.77-.26-.93a1.12,1.12,0,0,0-1.11.31,7.13,7.13,0,0,0-1,1.35c-1.11.37-2.21.82-3.33,1.21-.48.16-1.18.73-1.45.14s-1.91-.56-.64-1.68a.47.47,0,0,0-.08-.82.7.7,0,0,1-.34-1c.13-.36.06-.64-.36-.71-.75-.14-.38-.47-.15-.85a2.41,2.41,0,0,0-.84-3.16c-.54-.22-.41-.49-.19-.83.45-.7.11-1.07-.33-1.61a5.87,5.87,0,0,1-1.63-3.46c0-2.12-1.19-2.41-3-3.61-.24-.16-.56-1.55-.93-1.37a.5.5,0,0,0-.22.74c.48,1.16,0,2.51.39,3.71a1.78,1.78,0,0,1-.24,1c-.17.39-.42.86-.2,1.14.81,1-.2,2.25,0,3.26s-.58,2.5,1.05,3.12c-1.13.48-1.18,1-.85,1.75a12.91,12.91,0,0,1,.59,1.65l-.3-.53c-.89-1.5-2.36-2.41-1.54-4.16,0,0,0,0-.12-.12a7.11,7.11,0,0,0-3,6A11.26,11.26,0,0,0,108,119l-.34.07c-.12-1.34-1.17-2.27-1.73-3.42-.29-.58,0-1.49,0-2.25,0-.36.15-.69-.33-.85-.15,0-.38-.22-.35-.26,1.07-1.59-1.15-2.12-1-3.27a4.73,4.73,0,0,0-.72-2.67c-.48-1,.39-2.67-1.5-3.11-.47-.1-.32-.9-.54-1.36-.49-1-1.75-1.57-1.87-2.75a.91.91,0,0,0-.11-.33l15.58-13.49.06.2a13.7,13.7,0,0,0,2.93,4.72,13.3,13.3,0,0,0,4.55,3.09,15.42,15.42,0,0,0,5.92,1.1,21.11,21.11,0,0,0,13.31-4.33q5.6-4.32,9-12.76l-1.58-.56a32.68,32.68,0,0,1-3.08,5.9,23.48,23.48,0,0,1-4.15,4.78,18.55,18.55,0,0,1-5.17,3.2,15.8,15.8,0,0,1-6.16,1.18,13.92,13.92,0,0,1-5.2-.93,11.3,11.3,0,0,1-4-2.61,11.89,11.89,0,0,1-2.52-4,12.92,12.92,0,0,1-.55-1.92l28.88-25a23.76,23.76,0,0,1,4.66.89,17.08,17.08,0,0,1,5.76,3,13,13,0,0,1,3.66,4.62A13.47,13.47,0,0,1,162,76.23a34.74,34.74,0,0,1-2.17,4.83q-1.35,2.49-3.05,5c-1.13,1.68-2.28,3.33-3.43,4.94L150,95.63q-1.59,2.2-2.75,4a15.17,15.17,0,0,0-1.54,3.22,10.46,10.46,0,0,0-.53,3.33,6.07,6.07,0,0,0,.3,1.94,3.84,3.84,0,0,0,.95,1.54,4.6,4.6,0,0,0,1.64,1,6.54,6.54,0,0,0,2.37.39,9.85,9.85,0,0,0,2.1-.26,14.48,14.48,0,0,0,2.57-.9,28.86,28.86,0,0,0,3.14-1.66q1.71-1,3.78-2.57a63.83,63.83,0,0,0,8.63-7.8,114,114,0,0,0,7.55-9c-1,1.75-1.89,3.32-2.66,4.71s-1.42,2.66-1.95,3.83a22.28,22.28,0,0,0-1.19,3.26,11.53,11.53,0,0,0-.4,3,4.87,4.87,0,0,0,1.58,4,6.76,6.76,0,0,0,4.34,1.26,9.46,9.46,0,0,0,3.41-.76,23.84,23.84,0,0,0,4.1-2.1,41.17,41.17,0,0,0,4.45-3.25,58.67,58.67,0,0,0,4.52-4.22,63,63,0,0,0,4.27-5,52.23,52.23,0,0,0,3.73-5.51c1.12-1.92,2.11-3.79,3-5.63S207,79,207.56,77.37a37.44,37.44,0,0,0,1.37-4.61A18,18,0,0,0,209.4,69a7.65,7.65,0,0,0-.16-1.56,5.18,5.18,0,0,0-.5-1.45,3.2,3.2,0,0,0-.93-1.09,2.36,2.36,0,0,0-1.42-.42,2.63,2.63,0,0,0-2.4,1.65,9.48,9.48,0,0,0-.86,4.37,18.13,18.13,0,0,0,.49,4,17.92,17.92,0,0,0,1.51,4.12,69.54,69.54,0,0,1-4.31,8.68,49.12,49.12,0,0,1-3.69,5.45A61.65,61.65,0,0,1,193,97.52a50.64,50.64,0,0,1-4.31,4,44,44,0,0,1-4.15,3,23,23,0,0,1-3.68,1.92,8,8,0,0,1-2.92.69,5.46,5.46,0,0,1-.72-.06,2.63,2.63,0,0,1-.87-.26,2,2,0,0,1-.76-.61,1.82,1.82,0,0,1-.31-1.14,6.76,6.76,0,0,1,.31-1.8,22.13,22.13,0,0,1,1.05-2.77c.49-1.11,1.14-2.45,1.95-4s1.8-3.4,3-5.5q2.2-4,4.38-8.68,1.89-4,4-9.25t3.85-11l-1.71-.7c-.31.72-.75,1.72-1.33,3s-1.3,2.73-2.14,4.38-1.81,3.45-2.91,5.39-2.31,4-3.64,6.06-2.78,4.22-4.34,6.39-3.23,4.31-5,6.39-3.63,4.11-5.61,6a59.8,59.8,0,0,1-6.21,5.32A36.79,36.79,0,0,1,155,108a10.87,10.87,0,0,1-4.5,1.26,3,3,0,0,1-2-.63,2.06,2.06,0,0,1-.73-1.64,5.17,5.17,0,0,1,.87-2.46c.58-1,1.41-2.2,2.47-3.66s2.34-3.19,3.83-5.2,3.16-4.37,5-7.1A32.87,32.87,0,0,0,164,80.24a23.73,23.73,0,0,0,1.21-7.06,17.08,17.08,0,0,0-1.65-7.7A15.87,15.87,0,0,0,159,59.89a20.26,20.26,0,0,0-6.92-3.4,27.69,27.69,0,0,0-2.93-.64L202.08,10,270.5,69.3c-.14.23-.3.45-.44.68q-1.37,2.11-2.49,4c-.75,1.25-1.4,2.38-2,3.4s-1,1.85-1.33,2.5a8.07,8.07,0,0,0-2-1.12,9.29,9.29,0,0,0-3.57-.56,11.84,11.84,0,0,0-3.66.63,19.06,19.06,0,0,0-3.87,1.77,22.09,22.09,0,0,0-3.7,2.76A20.66,20.66,0,0,0,244.39,87a17.94,17.94,0,0,0-2.17,4.36s0,.1-.05.15l-.06-.05-1.4,2.07c-.54.79-1.14,1.61-1.8,2.47s-1.37,1.69-2.12,2.52a21.74,21.74,0,0,1-2.31,2.22,13.35,13.35,0,0,1-2.4,1.6,5.41,5.41,0,0,1-2.4.61,3.15,3.15,0,0,1-2.77-1.47,8.31,8.31,0,0,1-1-4.52c0-.68,0-1.42,0-2.22a10.8,10.8,0,0,1,.26-2.54c.42-.45.83-.85,1.22-1.21s.83-.77,1.3-1.21,1-1,1.61-1.59,1.35-1.43,2.24-2.42,1.94-2.2,3.17-3.62,2.68-3.18,4.36-5.26c.84-1,1.69-2.14,2.54-3.36s1.67-2.46,2.45-3.75,1.51-2.57,2.19-3.87,1.27-2.53,1.77-3.71a29.67,29.67,0,0,0,1.19-3.27,9.65,9.65,0,0,0,.44-2.59,2.54,2.54,0,0,0-.83-2.18,3.44,3.44,0,0,0-2-.59,7.22,7.22,0,0,0-3.51,1.09,21.48,21.48,0,0,0-4,3A42.56,42.56,0,0,0,236,62.24,59.94,59.94,0,0,0,231.9,68c-1.32,2.07-2.56,4.24-3.73,6.53a65.1,65.1,0,0,0-3,6.95,50.93,50.93,0,0,0-2,7c-.23,1-.4,2.08-.52,3.09l-.13-.1c-.86,1.33-1.73,2.65-2.59,4a31,31,0,0,1-2.65,3.48,14.87,14.87,0,0,1-2.71,2.47,4.86,4.86,0,0,1-2.8.95,1.73,1.73,0,0,1-1.19-.37,1.79,1.79,0,0,1-.42-1.38,9.51,9.51,0,0,1,.49-2.73,30.43,30.43,0,0,1,1.28-3.45c.52-1.23,1.11-2.49,1.76-3.79s1.3-2.53,1.93-3.71,1.22-2.26,1.77-3.26,1-1.79,1.28-2.39l-1.12-.49q-1.62,1.89-3.52,4.2a51.72,51.72,0,0,0-3.54,4.81,32.32,32.32,0,0,0-2.71,5.06,12.46,12.46,0,0,0-1.09,4.91,4.69,4.69,0,0,0,1.12,3.25,4.09,4.09,0,0,0,3.22,1.26,7.81,7.81,0,0,0,4.14-1.15,15.35,15.35,0,0,0,3.46-2.93,27.46,27.46,0,0,0,2.86-3.83c.33-.53.63-1,.94-1.55,0,.12,0,.24,0,.36a13.8,13.8,0,0,0,.62,4.38,8.94,8.94,0,0,0,1.61,3,6.17,6.17,0,0,0,2.31,1.72,7.08,7.08,0,0,0,6.13-.34,16,16,0,0,0,3.17-2.2A26.38,26.38,0,0,0,239,98.8c.86-1,1.61-2,2.24-2.93.09-.12.16-.23.24-.35,0,.26,0,.51,0,.77a8.28,8.28,0,0,0,.81,3.87,7.54,7.54,0,0,0,2,2.51,7.39,7.39,0,0,0,2.54,1.33,8.91,8.91,0,0,0,2.47.38,9.32,9.32,0,0,0,4.69-1.45A23,23,0,0,0,259,98.64a5.81,5.81,0,0,0,.73,2.36,4.91,4.91,0,0,0,1.3,1.46,4.59,4.59,0,0,0,1.59.73,6.88,6.88,0,0,0,1.63.21,7,7,0,0,0,3-.64,10.48,10.48,0,0,0,2.53-1.67,16,16,0,0,0,2.08-2.26,25.71,25.71,0,0,0,1.68-2.47c.49-.81.93-1.57,1.31-2.25s.71-1.25,1-1.67l-1.26-1c-.31.47-.66,1-1.05,1.72s-.84,1.39-1.32,2.13-1,1.5-1.54,2.25a14.82,14.82,0,0,1-1.75,2A9.78,9.78,0,0,1,267,101a4.22,4.22,0,0,1-2.08.56,2,2,0,0,1-1.66-.77,4.61,4.61,0,0,1-.62-2.77,18.47,18.47,0,0,1,.23-2.61,29.39,29.39,0,0,1,.81-3.59c.38-1.38.91-2.94,1.57-4.71s1.51-3.76,2.54-6q1-2.17,2.26-4.54c.85-1.58,1.73-3.13,2.63-4.67l.27-.47,38.68,33.5.71-.61-38.91-33.7c.56-.93,1.11-1.85,1.66-2.74l40.22,34.85,1.42-1.23L276.07,66.27c.63-1,1.24-2,1.8-2.82.77-1.2,1.45-2.22,2-3.09s1-1.48,1.26-1.85l-1.51-1q-1.74,1.81-3.44,3.92c-.8,1-1.55,2-2.29,3L202.08,2.17,140.49,55.53c-.85.08-1.74.21-2.67.37a37.16,37.16,0,0,0-6.37,1.73,36.12,36.12,0,0,0-6.36,3.08,25.08,25.08,0,0,0-5.53,4.57,21.23,21.23,0,0,0-3.91,6.22,20.19,20.19,0,0,0-1.42,6.77L87.89,101.1a14.23,14.23,0,0,0-1.24-1.21.79.79,0,0,0-.55-.21c-.36.08-.36.37-.32.59.34,1.78-.2,3.69.23,5.49a5.59,5.59,0,0,1-.38,3.46c0,.11-.23.26-.2.32.8,1.33-.17,2.86-.14,4.29a11.65,11.65,0,0,1-.24,4.18c-.18.53-.35,1,.3,1.31s.48.86.6,1.29c.2.72-.24,1.6.76,2.11.32.16.11,1-.64,1.11-.41.09-.82.22-1.23.32.49-1.61.3-2.64-.76-3.33l0-.11c-.56-1.33-1.61-2.49-1.6-4.18a12.48,12.48,0,0,0-.83-3.71c-.15-.46-.85-.31-1.38-.53,1.65-1.63.44-3.12.21-4.53-.38-2.26-.58-4.4.77-6.68-.54-.17-.77.19-1,.39s-.52.6-.83.71c-3.07,1-2.71,3.43-3.72,5.29s-.42,3.82-.88,5.74c-.21.86.39,1.61.39,2.51s.45,2-.09,3.08c-.28.55.25.76.72.87.3.07.47.16.53.29a6.12,6.12,0,0,0-2.34,2.49c-.32-.12-.35-.36-.18-.65.38-.66.45-1.23-.35-1.58-.12-.06-.24-.31-.19-.36.93-1,.08-1.93.21-2.89a1.78,1.78,0,0,0-1.18-2c-.28-.08-.52-.22-.28-.49.65-.76,0-1.11-.24-1.69a12.56,12.56,0,0,0-2.67-3.85c-.4-.45-.19-1-1.09-1.47-1.43-.68-3-.07-4.35-.41-.4-.1-1,0-.54.54a5.44,5.44,0,0,1,1.27,3.14.83.83,0,0,0,.51.73c.57.2,1,.39.6,1-.11.2.08.39.31.43,1.23.22.93,1.29.76,1.84-.27.89,0,1.31.94,1.61-1.06.74-1.52,1.32-.62,2.2a1.14,1.14,0,0,1,.14.16h0a8.44,8.44,0,0,0-2.6,0c-.1-.27-.21-.53-.33-.79a7.38,7.38,0,0,1-.75-3A8.13,8.13,0,0,0,62,111.49a9,9,0,0,0-1.71-2.08,5.15,5.15,0,0,0-4.37-1.25c0,.19-.09.31-.06.33,1.9,1.12,1,3,1.11,4.62.07.83-.67,1.84.21,2.52a.71.71,0,0,1,.13.28c-1.91.84-.06,1.91-.77,3-.52.82-.33,2.14-.58,3.24,0,.2,0,.42.17.5.66.24.63.57.15,1.07a.69.69,0,0,0,0,.78c.65,1.71.64,1.71-1.87,1.76a1.52,1.52,0,0,0,.88-1.79,16.94,16.94,0,0,1,.28-3.92c.17-1.33-.47-2.66-.14-4,.5-1.91-1-3-1.25-4.66-.12-1-3.31-2.74-4.33-2.61-.19.33.14.39.33.5a1.25,1.25,0,0,1,.54,1.78,10.13,10.13,0,0,0-.75,3.56,11.81,11.81,0,0,1-.31,4.21c-.69,1.81-.52,3.57-1,5.35-.2.71.33,1,.77,1.48a1.6,1.6,0,0,1-.39.16c-2.13.14-2.73-.17-2.11-1.89.45-1.27-.16-2.09-.39-3.07a21.2,21.2,0,0,0-2.74-6.22,3.62,3.62,0,0,0-4-1.22c-.5.16-.34.36-.31.64a8.26,8.26,0,0,0,1.21,2.92,8.85,8.85,0,0,1,.89,6.6,4.42,4.42,0,0,0-.13,1.73.6.6,0,0,1-.53.66c-.5.09-.31-.26-.4-.5a18.82,18.82,0,0,1-.67-4.62c-.07-.62-1.21-.78-1.3-1.58a4.52,4.52,0,0,0-.78-2.44c-1.23-1.6-3.15-2.06-5.42-1.16-.48.19-1,.32-1.86.6,1.33.08,1.82.94,3,.81.43,0,.46.32.54.64a21,21,0,0,1,.4,7.44c0,.33.39.6,0,1-.56.06-.56-.36-.52-.59.38-1.91-.66-3.42-1.15-5.08-.31-1-1.36-1.68-2.29-2.26s-2.28,0-3.33.35c-.69.19-1.72-.22-2,.51s1,.55,1.27,1a2.66,2.66,0,0,1,.15,2.93c-.68-1.68-2.5-1.87-4-2.38-.39-.13-1.05-.31-1.39.18s.33.61.64.82c.69.46,1.07,1,.56,1.89-.47-.26-.42-.76-.85-1-.59-.31-1.11-.89-1.65.23-.1.21-.36.42-.54.32-1.35-.68-3,.31-4.39,0-.7-.13-1.58-.45-2.25.44a.34.34,0,0,1-.26,0c-1.41-1.17-3.27.81-4.81.13a1.23,1.23,0,0,0-1.41.72c-.18.8.24,1.31,1.18,1.46.76.12,1.88-.15,1.8,1,1.51-.21,1,1.17,1.76,1.64,1.77,1.06,2.43,1,3.56-.85a.43.43,0,0,1,.48-.29c.27.45-.35.75-.55,1.1-.72,1.29-.39,1.93,1.22,2,.92,0,.56.39.22.71-.75.7-.18.76.39.65a7.19,7.19,0,0,0,3-.87c-.16.76.24,1.49-.84,2-.16.08-.3.25-.22.41s.37.14.59.15a4.32,4.32,0,0,0,3.25-1.48c-.18,1.4.29,2.32,1.47,2.5a2.24,2.24,0,0,0,2.12-1.29,6.94,6.94,0,0,1-2.78,3.79c1.86.07,2.78-1.58,4.44-1.51-.94,1-.14,2.61-2.33,3.27,2,.43,5.24-1.39,6.67-4.34.45,2.1-.67,4-2.07,5.79A5.63,5.63,0,0,0,34.08,139c2.15-2.53,2.86-5.41,4.13-8.15a6.76,6.76,0,0,1,.42-.91c0-.09.33-.16.48-.16s.26.15.2.34a3.46,3.46,0,0,0,0,2.8c.15.32-.31,1-.32,1.61a8.63,8.63,0,0,1-.15,2.9,1.65,1.65,0,0,0,0,.7c.16,1.93.1,2.1-1.26,3.71,2.6.48,5.71-1.34,6.07-3.61.33-2.12.57-4.23.84-6.34a1.56,1.56,0,0,1,1.12-1.41,21.78,21.78,0,0,0,.13,4.3,13.9,13.9,0,0,1,0,3.53c0,.08,0,.19,0,.22,1.47,1-.17,2.22-.45,3.31-.14.54-.8,1.41-.49,1.58a2.7,2.7,0,0,0,2.26-.31,4,4,0,0,0,2.11-2.17,7.19,7.19,0,0,1,1.53-2.83c.69-.66.35-1.56.5-2.34.25-1.3,0-2.59.8-3.91.37-.63-.2-1.23-.06-2,.37-1.93.23-1.94,2.48-2.13.42,0,.83,0,1.41-.06a3.94,3.94,0,0,1-1.7.51,1.85,1.85,0,0,0-1.36,1.05c-.24.49.15.7.56.86s.41.47.12.77c-1.09,1.14-.42,1.53.8,1.68-1.14,1.33-1.08,1.59.46,2.06-.29.55-1.76,1.16-.25,1.67.36.12.05.38-.14.57s-.52.57-.19.83c.8.64.08,1.56.1,2.3,0,1.49-1.06,3-1.25,4.7.51-.33,1-.63,1.53-.94l.08.13c.51.59.12.72-.4.87-.17.05-.41,0-.53.35,1.28.49,1.84.71,3.08,1.29a17.55,17.55,0,0,1,3.58,2.12.7.7,0,0,1-.81-.1,1.92,1.92,0,0,0-2.79,1.66,1.53,1.53,0,0,1-.33,1,4,4,0,0,0-1.92-3.21,11.27,11.27,0,0,0-6.5-1.16,6.52,6.52,0,0,0-5.66,5,8.52,8.52,0,0,0,1.68,8.71c.21.23.56.35.61.86-1.17.4-1.9-.72-2.9-.88-2.79-.44-6.53-.71-8.62,2.1-1.21,1.62-3.18,2.64-3.45,5a19.31,19.31,0,0,0,.05,4.56,1.18,1.18,0,0,0,.68,1c3.28,1.46,6.5,3.1,10.29,2.63A4.65,4.65,0,0,0,45,172c.39-1.45,1.52-2.25,2.59-3.64a12.64,12.64,0,0,1-.49,3.77,7.49,7.49,0,0,0,1.08,5.17,5.46,5.46,0,0,0,6.06,2.62c3.59-.61,6.39-2.44,7.69-6,.41-1.12,1.11-2.15,1-3.41a7.15,7.15,0,0,0-2.85-5.13,19,19,0,0,0-5.73-3.43c-1-.38-1.09-.73-.17-1.33,2.94-1.92,5.6-4.24,8.4-6.37a.4.4,0,0,0,.12.58.9.9,0,0,0,1.25-.26c.3-.36.51-.8.81-1.16,1.33-1.59,1.53-1.81,2.84-1.42,1.61.48,1.61.37.51,1.7-.49.59-1.44,1.36-1,2,.29.37,1.52-.28,2-.9A6.24,6.24,0,0,1,71.34,153c3.89,1.73,7.77,3.48,12.07,4.13a16.76,16.76,0,0,0,3.68,0,2.7,2.7,0,0,0-.54,1.35c.61-.55,1.27-.34,1.91-.41-4.6,4.09-8.85,8.19-11,13.91a7.79,7.79,0,0,1-.7-1c-.37-.68.2-1.52.4-2.28a4.12,4.12,0,0,0,.17-1c0-.64.5-1.65-.34-1.8s-1.12.91-1.43,1.58a4.28,4.28,0,0,0,0,2.67c-2.42-.48-3.08-.38-4,.62.22.29.65,0,.89.26a3,3,0,0,0,2.84.61.85.85,0,0,1,1,.39,6,6,0,0,1,.86,1.42c-1.35-.62-2.12-.19-2.35,1.24a1.87,1.87,0,0,1-.18.55c-.89,1.82-.63,2.67,1.09,3.53a1,1,0,0,0,1.4-.32c.23-.29.45-.68.88-.49s.32.59.3.95a6.51,6.51,0,0,0-.06.88c0,.41,0,1,.54,1a1.72,1.72,0,0,1,1.56.74c.12.17.36,0,.55,0,1-.15,1.3-1.12,1.92-1.7s.72-1.25,0-1.78a.45.45,0,0,1-.23-.52,8,8,0,0,0,3.41-.65c0,.7-.63,1.62.19,1.78s1.13-.75,1.29-1.49c0,0,0-.06,0-.1a3.86,3.86,0,0,1,1.73-2.65c0,.6,0,1.07,0,1.55,0,.72.33,1.27,1.07,1.19s.76-.82.73-1.4a1.81,1.81,0,0,0-.69-1.22,1.26,1.26,0,0,1-.33-1.43c.77-1.74,1.35-3.53,2.08-5.43.41.59.77,1.06,1.08,1.56s.68.5,1-.09c.4-.76-.05-1.32-.4-1.87s-.74-1-1.1-1.44c-.12-.17-.3-.39-.08-.6s.37,0,.53.1a2.83,2.83,0,0,0,3-.15c.34-.18.7-.46.57-.85s-.6-.28-.94-.17a5.16,5.16,0,0,1-1.84.44c-.7,0-1.11-.25-1-1.07a7.08,7.08,0,0,0,0-1.66c0-.6.12-.77.64-.42a3.86,3.86,0,0,0,1.93.61,1.73,1.73,0,0,0,1.6-.88.6.6,0,0,0-.1-.8c-.45-.51-1-.25-1.56-.09a2,2,0,0,0-.37.16,1.44,1.44,0,0,1-1.75,0,1.65,1.65,0,0,1-.38-1.79,5,5,0,0,0,.2-1.66h0c.25-.17.49-.35.74-.54l.08,0a2.53,2.53,0,0,0,2.79,0c.27-.17.53-.35.49-.69s-.36-.51-.69-.57a2.58,2.58,0,0,0-1.36.24,1.58,1.58,0,0,1-.26.06c2.25-2.13,4.52-5.14,6.72-7.57a24.85,24.85,0,0,1,0,3.76c0,.24-.08.51.18.58s.34-.17.45-.34c.9-1.5,1.89-3,2.69-4.52a7.75,7.75,0,0,0,1-4.5l0-.17a38.73,38.73,0,0,0,2.37-4c1-2,2-3.69,2.94-5.36a1.15,1.15,0,0,1,.16.66c-.08.5,0,1-.16,1.53-.28,1.19.93,2.06.33,3.32-.11.22.29.43.56.22.61-.5,1.52-.55,2-1.36.77-1.37,1.6-2.64,1.4-4.14-.07-.58.43-1.29.58-2a17.52,17.52,0,0,1-.3,6.52.55.55,0,0,0,.15.67,5.57,5.57,0,0,0,.59-.5c0,.34,0,.67,0,1a12.46,12.46,0,0,0,1.16,5.57,11.24,11.24,0,0,0,3.11,3.94,13.08,13.08,0,0,0,4.45,2.34,17.32,17.32,0,0,0,5.2.78,24.28,24.28,0,0,0,6.21-.81A22,22,0,0,0,142,149l-.74-1.45a22.81,22.81,0,0,1-4.72,1.64,21,21,0,0,1-4.64.55,14.61,14.61,0,0,1-4.75-.73,10.65,10.65,0,0,1-3.67-2.05,8.92,8.92,0,0,1-2.36-3.29,11.14,11.14,0,0,1-.82-4.38,13.88,13.88,0,0,1,5.31-11.17,18.3,18.3,0,0,1,6.08-3.13,26.37,26.37,0,0,1,7.88-1.11c2,0,4.17.13,6.61.37l7.58.79c2.62.29,5.25.55,7.9.8s5.17.37,7.56.37c1.9,0,3.77-.09,5.63-.25a40.78,40.78,0,0,0,4.47-.67c-.24.38-.49.74-.73,1.13-.69,1.12-1.33,2.25-1.93,3.37s-1.12,2.17-1.57,3.13q-4.35,9.28-8.49,18.8T158,170.93l3.2,1.27,5.35-10.06q1.89-2.61,4.08-5.23a53.44,53.44,0,0,1,4.43-4.73,26.11,26.11,0,0,1,4.48-3.43,8.37,8.37,0,0,1,4.24-1.32,1.27,1.27,0,0,1,1.41,1.45,4.76,4.76,0,0,1-.58,2c-.39.79-.87,1.66-1.44,2.62s-1.21,2-1.89,3.08-1.3,2.22-1.88,3.38a27.12,27.12,0,0,0-1.44,3.52,11.1,11.1,0,0,0-.58,3.49,5.67,5.67,0,0,0,.46,2.45,4.1,4.1,0,0,0,1.19,1.53,4.36,4.36,0,0,0,1.66.77,8.07,8.07,0,0,0,1.82.21,5.32,5.32,0,0,0,2.78-.82,13,13,0,0,0,2.62-2.11,24.41,24.41,0,0,0,2.36-2.83c.21-.29.4-.58.59-.86,0,.27,0,.55,0,.82a4.73,4.73,0,0,0,1.13,3.27,4.09,4.09,0,0,0,3.24,1.27,7.85,7.85,0,0,0,4.15-1.16,16,16,0,0,0,3.48-2.94,27.45,27.45,0,0,0,2.86-3.85c.86-1.38,1.63-2.69,2.31-3.91.33-.49.74-1.13,1.23-1.93s1-1.64,1.58-2.53,1.16-1.79,1.78-2.69,1.24-1.71,1.85-2.43a13.29,13.29,0,0,1,1.77-1.76,2.65,2.65,0,0,1,1.53-.68,1.5,1.5,0,0,1,1,.3,1.62,1.62,0,0,1,.35,1.24,8.75,8.75,0,0,1-.39,2.24,22.69,22.69,0,0,1-1.41,3.5c-.46.93-1,1.9-1.51,2.88s-1.11,2-1.7,2.94-1.21,1.91-1.82,2.83-1.2,1.77-1.79,2.57l-4.11,5.66,3.09,1.27c.28-.36.6-.77.95-1.25l1.13-1.52,1.19-1.6c.4-.54.8-1.06,1.2-1.58.91-1.19,1.85-2.44,2.81-3.73,1.69-2.22,3.25-4.21,4.7-6a57,57,0,0,1,4-4.41,20.66,20.66,0,0,1,3.3-2.73,5.11,5.11,0,0,1,2.61-.93,2,2,0,0,1,1.63.74,2.84,2.84,0,0,1,.58,1.83,5.56,5.56,0,0,1-.61,2.27c-.41.87-.92,1.83-1.53,2.86s-1.28,2.12-2,3.26-1.39,2.26-2,3.39a28.13,28.13,0,0,0-1.53,3.29,8.36,8.36,0,0,0-.62,3,4.12,4.12,0,0,0,.32,1.6,4.36,4.36,0,0,0,.86,1.32,3.82,3.82,0,0,0,1.32.88,4.54,4.54,0,0,0,1.72.32,6.51,6.51,0,0,0,3.29-.95,18.2,18.2,0,0,0,3.19-2.41,29.67,29.67,0,0,0,2.9-3.2c.89-1.15,1.69-2.25,2.41-3.3a13.31,13.31,0,0,0-.07,1.41,8.61,8.61,0,0,0,.68,3.66,6.62,6.62,0,0,0,1.78,2.38,6.8,6.8,0,0,0,2.42,1.28,9.6,9.6,0,0,0,2.68.39,10.44,10.44,0,0,0,3.74-.76,18.77,18.77,0,0,0,3.78-2c-.32.75-.68,1.58-1.05,2.48s-.79,1.86-1.23,2.87q-5.46,2.85-9.76,5.66c-1.19.78-2.28,1.55-3.31,2.33H70.67v.75H239.92c-1,.83-2,1.66-2.89,2.5H70.67v2H235.12a20.84,20.84,0,0,0-2.73,3.82,12.15,12.15,0,0,0-1.56,5.84,5.64,5.64,0,0,0,.5,2.53,4.27,4.27,0,0,0,3,2.3,7.9,7.9,0,0,0,1.67.2,9.29,9.29,0,0,0,4.27-1.27,19.3,19.3,0,0,0,5.14-4.4,53,53,0,0,0,5.85-8.49l.3-.53h82v-2H252.61c.42-.8.84-1.63,1.27-2.5h79.6v-.75H254.24q1.68-3.51,3.42-7.78c2.7-1.62,5-3.1,7-4.45a57.55,57.55,0,0,0,5.14-3.94,35.68,35.68,0,0,0,3.83-3.87,34.4,34.4,0,0,0,3-4.24l0,0c0-.05.14-.25.36-.63s.56-.93.95-1.56.82-1.34,1.3-2.11,1-1.54,1.44-2.29.93-1.44,1.36-2.07c.08-.13.17-.25.25-.37a5.74,5.74,0,0,0,.95.51c.05.55.11,1.17.17,1.88s.13,1.71.19,2.62.09,1.75.09,2.5-.05,1.58-.14,2.49a22.48,22.48,0,0,1-.48,2.82,17.77,17.77,0,0,1-.89,2.79,10.61,10.61,0,0,1-1.38,2.41,6.52,6.52,0,0,1-1.89,1.71,4.83,4.83,0,0,1-2.5.65,4.09,4.09,0,0,1-1.78-.35,4,4,0,0,1-1.14-.81,3.35,3.35,0,0,1-.62-.93,2.11,2.11,0,0,1-.19-.69l-1.27.25a5.4,5.4,0,0,0,2.24,3.74,7.58,7.58,0,0,0,4.45,1.25,13.2,13.2,0,0,0,5.59-1.21,20.85,20.85,0,0,0,4.92-3.17,30.24,30.24,0,0,0,4.21-4.39c1.27-1.63,3-4.25,4-5.91l-1.19-1.06a57.59,57.59,0,0,1-5.91,8,22.08,22.08,0,0,1-5.38,4.24,12.74,12.74,0,0,0,2.14-3.91,15.73,15.73,0,0,0,.81-5.27,20.61,20.61,0,0,0-.37-4c-.24-1.28-.51-2.46-.79-3.55l-.45-1.71a9.84,9.84,0,0,0,2.63-.46,14.09,14.09,0,0,0,.14,3.23c.16,1.06.68,1.66,1.89,2.63,0-2.86.9-3.81,1.87-6.17.3-.74.62-.9,1.39-.21,1.37,1.21,3.28,1.88,3.95,3.78a6.52,6.52,0,0,1,.54,3.27,1.62,1.62,0,0,0,0,.22,5.42,5.42,0,0,0-.46.61l.42-.12a5.46,5.46,0,0,0,2.15,3.89c.66.6,1.1.58,1.44-.24a6.88,6.88,0,0,0,.18-5.17c.46-.23.93-.49,1.38-.77,1.49.5,2.9,1,4.31,1.48.86.3,1.09,1,1.38,1.7a14.64,14.64,0,0,0,5.4,7,11.17,11.17,0,0,0,1.4.76c.88.38,1.19.08,1-.7a8.34,8.34,0,0,0-1.91-3.78c-1.19-1.27-2.12-2.74-3.95-3.81,1.88-.35,3.51.38,5.13.51,1.81.15,3.63.52,5.45.84,2.11.38,2.64.92,2.41,2.82a7,7,0,0,0,1.31,4.85c.51.78.78.82,1.24.15,1.3-1.89.79-3.89-.25-5.95-.19-.37-.81-.77-.47-1.11s1-.15,1.47,0a42.89,42.89,0,0,1,5.8,2.24c1.61.81,2,1.61,1.35,3a5.81,5.81,0,0,0-.85,2.26c0,.23,0,.48.28.63s.46-.05.64-.19a3.64,3.64,0,0,0,1.75-2.35c.11-.73.52-.88,1.26-.29a13.61,13.61,0,0,1,3.3,3.12c-1.91-.31-2.95.36-3.45,2-.33,1.1-1.89,1.08-3,1.29s-1.1.64-.86,1.35a5.6,5.6,0,0,0,3,3.52c.86.4,1.16.76.85,1.62-.57,1.58,1.06,3.79,3,4.34.55.16.74-.12,1-.4.4-.44.62-1.07,1.36-1.22.31.45,0,.59-.16.8-1,1.41-.34,2.43,1.63,2.69a5.49,5.49,0,0,0,3.77-.7,1,1,0,0,0,.43-1.42,1,1,0,0,0-1.39-.56c-.62.23-.62-.18-.59-.5.05-.73.12-1.46.24-2.17.06-.34.18-.8.71-.71s.34.52.43.82.15.42.24.7c.78-.5.08-1.3.52-1.92a13.09,13.09,0,0,1,1,3.73c.57.1.71-.81,1.47-.23a1.61,1.61,0,0,0,2.11,0c.73-.61-.39-1-.44-1.68.63-.09,1,.43,1.53.6a1.29,1.29,0,0,0,1.52-.29c.39-.5-.25-.71-.58-1a4.68,4.68,0,0,1-1.32-1.37c.72,0,1.08.44,1.54.72s.8.48,1.14.2a.73.73,0,0,0,0-1.14c-.88-.82-.34-.91.44-1.11,2.11-.53,2.52-2.85.76-4.27a1.59,1.59,0,0,1-.72-1.2,4.14,4.14,0,0,0-4.89-3.34c-.43.09-.9.36-1.09-.35-.4-1.49-1.65-1.34-2.74-1.25-.69,0-1.26.26-1.8-.45-.85-1.13-1.82-.84-2.7-.33a6,6,0,0,0-1.72,1.76c-.28.36-.56.73-1.16,0a21.52,21.52,0,0,0-8.64-6.19,11.67,11.67,0,0,0,3.49-1.55c.26-.17.7-.27.49-.71s-.49-.35-.81-.4c-2-.29-4-.41-5.37,1a1.05,1.05,0,0,1-1,.43,44,44,0,0,1-6-1.37c2.69-.85,4-2.58,5.38-4.27-2.87.78-6.5.33-7.95,3.36-.23.48-.69.58-1.24.56a17.82,17.82,0,0,1-4-.85c3.15-.43,4.77-2.75,7.22-4,.2-.1.45-.3.28-.55s-.63-.29-1-.28a15,15,0,0,0-8.77,2.69,3.46,3.46,0,0,1-2.07.81,9.21,9.21,0,0,0,1.8-2.08l1.13-.59c.25-.12.58-.25.44-.59s-.5-.36-.81-.36h-.16a3,3,0,0,0-.76-2.48,7.94,7.94,0,0,0-4.75-5.25l-.09-.16h.68a24.56,24.56,0,0,0,4.19,1.95c.28.09.59.39.8.06s-.07-.56-.37-.69a8.33,8.33,0,0,1-2-1.32c2.35-.05,4.56-.17,6.3-.3.28.13.57.24.87.35a8.42,8.42,0,0,0,2.15,2c.31.2.63.46,1,.26s.16-.48.15-.75,0-.51-.07-.76c.67.11,1.13.16,1.14.16,2.84,0,4.19-1.26,4.76-2.09l3.83-.25c.48.15,1,.28,1.42.45,1.1.38,1.63.89,1.14,1.9a1.08,1.08,0,0,0,.14,1.21c1.09,1.18.38,1.24-.73,1.24-2.1,0-2.31.3-2.46,2.2-.08,1.12-.57,2.14.1,3.37.79,1.44,1.27,1.79,2.94,1.5.74-.13,1.42-.41,2.14-.6l.22-.06c-.65.55-1.22.94-1.22.94a5.89,5.89,0,0,0,1.57.65,2.53,2.53,0,0,0-.09.78c0,.64.31.93,1.05,1.36a13.25,13.25,0,0,0,6.12,1.54,2,2,0,0,0,1.71-.59,1.48,1.48,0,0,1,1.6-.67c.89.15.77-.61.72-1-.13-1,.33-1.05,1.33-.91,3.9.56,6.78-2,6.37-5.5-.18-1.55-1.16-2.31-3.38-2.49.65-.66,1.23-1.23,1.79-1.81a7.87,7.87,0,0,0,1.45-1.86c4.42,1.21,8.55,2.53,8.53,2.52.34.16.66.34,1,.52-2,.45-2.32,2.44-4,3.15a.44.44,0,0,0-.09.73c1.35,1.08,1.13,2.54,1.67,3.8,1.18,2.77,1.8,3.21,4.85,2.81.93-.13,1.18.2,1.43.91a4.83,4.83,0,0,0,6,2.67,3.7,3.7,0,0,1,2.86.08c1.44.56,2.45.21,3-1,.42-.93,1.3-1.65,1.35-2.76a.66.66,0,0,1,.58-.55c2.41-.47,3.2-2.28,4-4a2.61,2.61,0,0,1,.92-1.14C388.56,151.17,388.34,149.74,386.44,148.59ZM268.35,130.23l.49,0,1.81,1.25c1,.65,1.91,1.25,2.88,1.83v0h0c0,.15,0,.29,0,.44,0,1,.07,2,.14,3C272.23,135.11,269.77,132.23,268.35,130.23Zm5.69.58a16.13,16.13,0,0,1-3,.32l-.1-.06-1.67-.88a28.47,28.47,0,0,1,3.69.06,7.9,7.9,0,0,1,1.2.19Zm.49-1.83c-.71-.15-1.43-.33-2.2-.5l1.87-1.57a8.67,8.67,0,0,0,.71-.65A11.3,11.3,0,0,1,274.53,129ZM205,70.38a9.17,9.17,0,0,1,.4-2.91c.27-.79.6-1.19,1-1.19a.8.8,0,0,1,.67.33,2.48,2.48,0,0,1,.36.77,4,4,0,0,1,.14.92c0,.31,0,.55,0,.71a17.14,17.14,0,0,1-.35,3.12,27.88,27.88,0,0,1-1.15,4.06,15.31,15.31,0,0,1-.85-3A17.51,17.51,0,0,1,205,70.38Zm24.09,10.89a75,75,0,0,1,3.51-7.74,72.6,72.6,0,0,1,4.18-7,68.48,68.48,0,0,1,4.31-5.76,28.51,28.51,0,0,1,3.87-3.9,5.23,5.23,0,0,1,2.87-1.44.81.81,0,0,1,.67.47,1.74,1.74,0,0,1,.28.76,10.65,10.65,0,0,1-.81,3.67A36.24,36.24,0,0,1,245.72,65a63.86,63.86,0,0,1-3.47,5.52c-1.35,1.95-2.84,3.95-4.46,6s-3.37,4.16-5.22,6.27-3.78,4.2-5.76,6.25A46.44,46.44,0,0,1,229.08,81.27ZM260.2,89.9A29.46,29.46,0,0,0,259,96a29.55,29.55,0,0,1-2.87,3,18.61,18.61,0,0,1-2.61,2,10.34,10.34,0,0,1-2.29,1.14,6,6,0,0,1-1.93.35,3.52,3.52,0,0,1-3-1.47,6.72,6.72,0,0,1-1.1-4.09,13.56,13.56,0,0,1,.61-4,18.89,18.89,0,0,1,1.68-3.87A20.76,20.76,0,0,1,250,85.67a18.35,18.35,0,0,1,3.06-2.82,14.86,14.86,0,0,1,3.4-1.89,9.35,9.35,0,0,1,3.48-.7,4.86,4.86,0,0,1,2,.4,3.25,3.25,0,0,1,1.38,1.14A59.6,59.6,0,0,0,260.2,89.9ZM202.08,4.62l70.74,61.29q-.93,1.32-1.8,2.61L202.08,8.79,148,55.65a34.07,34.07,0,0,0-4.48-.29ZM120.15,70.5a21.41,21.41,0,0,1,5.43-7,25.82,25.82,0,0,1,8.32-4.64,29.81,29.81,0,0,1,3.88-1l-19,16.46A19,19,0,0,1,120.15,70.5Zm-1.85,6.7,22.88-19.83c1.09-.09,2.19-.16,3.33-.16.55,0,1.09,0,1.62,0L118.36,81.32a17.12,17.12,0,0,1-.15-2.19C118.21,78.48,118.24,77.83,118.3,77.2ZM54.55,157.67a1.84,1.84,0,0,1-1.71.52,20,20,0,0,0,2.74-3.34,5.11,5.11,0,0,0,.76-2.18,1.66,1.66,0,0,0,.52.33c.27.11.59.15.75.4a1.22,1.22,0,0,0,1.53.63C57.62,155.26,56.12,156.5,54.55,157.67Zm59.68-76.95a17,17,0,0,0,.61,3.65L98.49,98.53h-.06c-.76.12-1.05.53-1.09,1l-5.51,4.77.7.61,4.91-4.25c.09.6.19,1.19.27,1.78s-.5,1.65.82,1.82c.15,0,.16.19,0,.29-1.27,1-.27,1.83-.26,2.72,0,.57.31,1-.15,1.69-.62,1,.78.75,1.47,1.1-1.34.56-2,1.22-.8,2.05a.3.3,0,0,1,0,.52c-1.88,1.15-.1,1.21.44,1.55a7.51,7.51,0,0,0,1.65.52c-1,.3-2.06-.19-2.57.65-.34.56.52.75.95,1.15-1.06.43-1.23.9-.41,1.44.21.14.87.39,0,.73-1.07.41-.73.84-.23,1.22s.66.57.46,1.07-.88.38-1.32.51a5.4,5.4,0,0,1-1.26.18c-.64,0-1.8.62-1.26-.7a.33.33,0,0,0-.14-.3c-1.31-1-1.57-2.5-2-4-.23-.76-.45-1.25,0-2,.26-.41-.14-.7-.36-1-.4-.55-.92-1.07-.4-1.88.08-.12.09-.38,0-.44-1.3-.86-.61-2.53-1.59-3.55-.42-.45-.29-1.21-.41-1.82A9.67,9.67,0,0,0,89,102.58ZM93.67,126.37l.09,0a.66.66,0,0,0,.18.91l-.25.17c-.17.11-.33.24-.5.36a.92.92,0,0,1-1.33,0l-.25-.18a.35.35,0,0,0-.25-.27l-.16,0a6.22,6.22,0,0,1-.64-.51c-.16-.38-.09-.86-.23-1.22-.35-.9.18-1.38,1.45-1.6l.36-.08A2.94,2.94,0,0,0,93.67,126.37Zm-.27-2.32,0-.1c.36.56.89,1.79.76,1.92s0,0-.06.07A1.88,1.88,0,0,1,93.4,124.05Zm.35,5c-.55.59-.55,1.34-.82,2a1,1,0,0,0-.07.29,1,1,0,0,0-.61-.47c-.44-.18-.78-.35-.35-.86a.55.55,0,0,0,.14-.38,10.83,10.83,0,0,1,1.78-1.3A.53.53,0,0,1,93.75,129.08Zm-3.21,10.45c.25-.63,1.47-1.16.68-1.92a.42.42,0,0,1,.18-.17c2.21-.6.67-1.29.4-2.05.34-.32,1.16-.35,1.22-1s-.33-.92-.81-1.17-.35-.46.07-.77a1.56,1.56,0,0,0,.61-.74,1.1,1.1,0,0,0,.41.55c.45.34.66-.16,1-.37.53-.34.9-.89,1.55-1.07A.66.66,0,0,0,96,131a17.73,17.73,0,0,1,2.65,3.81,7,7,0,0,0,1.32,1.4A17.6,17.6,0,0,1,96,138.8a23.36,23.36,0,0,0-3.08,1.76h-.05a10.54,10.54,0,0,1-3.08.41A5.62,5.62,0,0,0,90.54,139.53Zm4.32-11.64.08-.09c.29.16.38.39.1.8l-.06.13C94.46,128.65,94.66,128.22,94.86,127.89Zm-8.32,15.49a3.14,3.14,0,0,0,1.11-.62c.6.17,1.27.25,2,.41-.2.2-.42.38-.61.59l-.08.07c-.51.16-1,.31-1.5.44a2.44,2.44,0,0,1-1.39-.73A3.75,3.75,0,0,1,86.54,143.38Zm-.22-3.17-.49-.25A2.24,2.24,0,0,1,86.32,140.21Zm-1.39-6.35a2,2,0,0,1-.42.92,6.54,6.54,0,0,0-.93,2.62c0,.25-.1.56.19.68s.5-.09.71-.27a2.31,2.31,0,0,0,.67-2.1,1.75,1.75,0,0,1,.22-1.18,2.4,2.4,0,0,1,.36,1.51c-.06.48.72.94-.09,1.62-.66.55.83.79,0,1.51-.3.29-.31.46-.2.59a10.25,10.25,0,0,1-2.62-2.31c-.34-.42-.7-.82-1.05-1.22,0,0,0-.07,0-.11C83,135.53,83.63,134.31,84.93,133.86Zm-3.47-1.1a2.35,2.35,0,0,0,.65-.21,3.29,3.29,0,0,1,2.35-.06,2.31,2.31,0,0,0,.2.77c-1,.45-1.65,1.52-2.9,1.52a1.65,1.65,0,0,0-.66-.57.25.25,0,0,1-.09-.07A1.34,1.34,0,0,0,81.46,132.76Zm-.6-2.84a6.89,6.89,0,0,0,2.63-2.67c.14.08.21.18.05.35-1.18,1.32.12,1.38,1,1.64-.45.74-2,1.64,0,2,.06,0,.14.13.12.17a2.27,2.27,0,0,0-.18.44c-.65-.14-1.27-.35-1.92-.5a4.1,4.1,0,0,0-1.74-.08A6.55,6.55,0,0,1,80.86,129.92ZM80.43,144a16,16,0,0,0,.71-3.42,16.4,16.4,0,0,1,.16-2.45,18.14,18.14,0,0,0,4,3.36,5.79,5.79,0,0,0-.42.59c-.42-.17-.85-.25-1.18.21s-.12,1,.37,1.3l.06,0a7.38,7.38,0,0,0-.26,1c.35-.16.69-.34,1-.51a11.68,11.68,0,0,0,1.32.52c-1.2.28-2.37.5-3.53.7-.72.13-1.5.24-2.32.36a2.71,2.71,0,0,0,.13-.69C80.46,144.67,80.6,144.28,80.43,144Zm-.76,3.59c1.72-.18,3-.47,5.76-.88-.25.19-.51.37-.77.54A10.92,10.92,0,0,1,81.21,149C79.94,149.22,79.51,148.83,79.67,147.62Zm-.91.09a4.56,4.56,0,0,0,.48,1.63c.12.21.28.44,0,.68a2.53,2.53,0,0,1-3-.49,1.74,1.74,0,0,1,.12-1.64l2.42-.18Zm-3.3-13.39a1.64,1.64,0,0,0-.27.24c-.07-.18-.13-.36-.19-.56Zm-.79-2a2.64,2.64,0,0,1,0,.68,5.64,5.64,0,0,0-.44-.89ZM71,130.21h0s0,0,0,0ZM58.61,144.75c-.16.38-.22,1-.74,1s-.72-.46-.92-.87a1.51,1.51,0,0,1,.1-1.32,4.45,4.45,0,0,0,.56-1.59,2,2,0,0,0,0-.25c.22-.17.45-.32.66-.5,1.93-1.6,1.5-3.38,2.48-5,.17-.28-.07-.59-.28-.83s-.29-.53.12-.82c.61-.42.36-.84.4-1.34a10.88,10.88,0,0,0,.32-2.56,6.74,6.74,0,0,0,2.33.52,6,6,0,0,1,0,.74c-.21,2.08.46,4.11.24,6.18a11.91,11.91,0,0,1-.59,3.23A1.94,1.94,0,0,0,62,140.4a.55.55,0,0,1-.58-.51.61.61,0,0,0-.81-.59,1,1,0,0,0-.84.89,8.14,8.14,0,0,0,0,1.56,2.25,2.25,0,0,1-.55,1.93A3,3,0,0,0,58.61,144.75Zm1.71,2.51a1.64,1.64,0,0,1-1-1.91c.11-.79.25-1.57,1.26-1.85.5-.15,1-.26,1.51-.45a5.78,5.78,0,0,1-.57.52,2,2,0,0,0-.93,1.61,11.94,11.94,0,0,1,2.07-1.07,5.06,5.06,0,0,0-1.58,2.72C61,147.43,60.78,147.47,60.32,147.26Zm3.51,3.18c-.7.49-1.37,1-2,1.51,0-.85.1-1.7.16-2.67a10.34,10.34,0,0,0,1.94,1.12Zm7.91.86c-1.51-.58-2.83-1.16-2.7-1.36a4.44,4.44,0,0,1,2.23-1.23l.5-.15a9.19,9.19,0,0,0,0,2A1.15,1.15,0,0,1,71.74,151.3Zm.39-4.45a14.2,14.2,0,0,0-1.92.47l-.82.29c0-1.11-.29-2.26-.93-2.48-.86-.3-1.84-.3-2.76-.53-1.19-.29-3,1.78-2.87,3,0,.29.06.59.1,1-1.26-1.17-1.22-2.29-.2-3.11a7.84,7.84,0,0,0,1.78-1.67,1.25,1.25,0,0,0,.2-.5A14.62,14.62,0,0,0,67,142.21a3.71,3.71,0,0,0,3.26.82c1.24-.41,2.46-.87,3.7-1.31a4.48,4.48,0,0,0,1.86-1.22,2.55,2.55,0,0,0,.78,2.12c.24.25-.06.52,0,.77A3.51,3.51,0,0,0,78.32,146l-1.42.19a2,2,0,0,0-.15-1.24c-.13-.28-.15-.69-.57-.67s-.6.39-.72.75a8,8,0,0,0-.32,1.39c-.71.1-1.4.2-2,.31a.57.57,0,0,0-.41-.22A.54.54,0,0,0,72.13,146.85Zm.38,3.07c.17-.56.34-1.11.5-1.67a21.34,21.34,0,0,1,2.13-.26,6.21,6.21,0,0,0,.74,2.25c.39.69.11.88-.49,1a5.45,5.45,0,0,1-2.24-.17A.78.78,0,0,1,72.51,149.92Zm5.06,3.41-1.66-.55-1.39-.47c1.52-.26,3-.84,4.52-1.19A23.53,23.53,0,0,0,77.57,153.33Zm14.6,7.31c0,3-1,5.84-1.52,8.74-.07.32-.23.62-.57.62a1.75,1.75,0,0,1-1.33-.67c-.26-.29.08-.53.31-.73s.63-.6.45-.68c-.81-.37-.19-.88-.15-1.34s0-1.17-.61-1.36-1,.18-1.14.81c-.08.34-.35.41-.69.45-1.08.13-1.47.77-1,1.71.66,1.4,2.26,1.59,3.41,2.37.27.18.76.09.66.62s-.49.58-.92.54a3.45,3.45,0,0,0-1.85.24c-.33.16-.8.37-.77.73s.54.35.88.39a5.21,5.21,0,0,0,.79,0c.25,0,.59-.19.73.08s-.17.58-.38.75A32.74,32.74,0,0,1,85.82,176a3.81,3.81,0,0,1-2.46.74c-.22,0-.48-.06-.54-.32s.16-.41.36-.55c1.34-1,1.41-1,1-2.44-.26-.83-.71-1.65-1.79-1.73s-1.63.75-2.47,1.07c-.06,0-.09.17-.11.26-.15.7-.51.59-.92.3a6.61,6.61,0,0,1-1.15-1,5.39,5.39,0,0,0,1.77-1.88,44.71,44.71,0,0,1,13-13C92.44,158.52,92.16,159.59,92.17,160.64Zm.45-7a22.82,22.82,0,0,1-2.26,1.17c-3.35,1.27-6.71.49-11.26-1a2,2,0,0,0,.11-.69c0-1.86,1.36-2.61,2.61-3.51a.38.38,0,0,1,.46,0c.16.12,0,.29,0,.44-.17.54-.37,1.08-.51,1.62a.81.81,0,0,0,.49.95.65.65,0,0,0,.82-.16c.48-.55,1-1.15.71-1.87-.43-1.17,0-1.92,1.06-2.59.84-.52,1.69-1,2.52-1.63l1.51-.44a1.71,1.71,0,0,1-.23.69c-.58,1-.13,1.76.21,2.58.16.38.37.25.61,0a2.45,2.45,0,0,0,.55-2.93,1.1,1.1,0,0,1-.22-.67l.75-.23c.75-.23,1.46-.45,2.14-.68h.17a2.06,2.06,0,0,0,.55-.23c1.11-.38,2.15-.78,3.17-1.21,0,.22-.21.47-.27.7-.59,2.24-2.24,4.06-2.81,6.32C93.22,151.4,92.82,152.51,92.62,153.65Zm.95-.6a3.26,3.26,0,0,1,.16-.85c.52-1.54,1-3.09,1.52-4.65.23-.73.61-.86,1.15-.43a2.43,2.43,0,0,0,1.54.71c.4,0,.86,0,1-.47s-.25-.55-.47-.76a6.39,6.39,0,0,0-.78-.55c-1-.66-1.08-1-.59-2.09.17-.42.37-.82.58-1.22,1-.48,2-1,3.09-1.62a12.46,12.46,0,0,0,0,3.9c0,.19.09.36.14.53A29.26,29.26,0,0,1,93.57,153.05Zm7.6-29.34.15-.22a1.47,1.47,0,0,1,.28-.12,3.15,3.15,0,0,0,1.27-.83c.19-.21.41-.44.4-.7a5.42,5.42,0,0,1,1.74-.44c.56-.05.86-.25.93.45a1.83,1.83,0,0,0,.09.39,3.4,3.4,0,0,0-.27,1.14c0,.55-.3.82-.89.87s-1.4.13-2.1.21C103,123.81,101.77,123.89,101.17,123.71Zm4,9.68a2,2,0,0,0-.17-.4,8.05,8.05,0,0,1,1-1.69,19.79,19.79,0,0,1,3.08-3.06,1.81,1.81,0,0,1,.28.53A25.13,25.13,0,0,1,105.13,133.39Zm3.29-6a24.12,24.12,0,0,0-4.26,4.06,45.66,45.66,0,0,1-1.19-4.6c-.12-.44-.45-.78-.52-1.23,1.72-.15,3.46-.17,5.21-.17-.09.87,1.08.2,1.71.46C108.36,126.47,108.24,126.94,108.42,127.37Zm8.35-3.21a10.11,10.11,0,0,0-.74,2.26l-.09,1.68a3,3,0,0,1-.36-1.8c0-.67-1.21-1.18,0-2.11,0,0,0-.06.06-.09l1.16-.62C117,123.73,116.83,124,116.77,124.16Zm.12-2.55c-.24.18-.48.37-.72.53-.08-.28-.43-.51-.83-.71s-.69-.18-.34-1c.7-1.53,1.87-1.33,3.08-1.61,1-.24,2-.51,3-.79C119.46,119,118.36,120.52,116.89,121.61ZM189.74,120a1.3,1.3,0,0,1,.33.86l-.71-1.12A1.22,1.22,0,0,1,189.74,120Zm-3.81.85a4.19,4.19,0,0,1,2.9-1.22h0a24.28,24.28,0,0,1-3.63,1.92A7.81,7.81,0,0,1,185.93,120.83Zm-6.42,11.23c1.34-3,2.52-5.39,3.55-7.24.13-.24.26-.44.39-.66.65-.21,1.31-.44,2-.7a27.11,27.11,0,0,0,4.69-2.43,9.1,9.1,0,0,1-1,3.17,36.79,36.79,0,0,1-2.9,5.09,80.62,80.62,0,0,1-4.84,6.45,88.12,88.12,0,0,1-6.77,7.3Q177.5,136.53,179.51,132.06Zm67.92,56.72q-1.41,2.55-2.85,4.8a35.1,35.1,0,0,1-2.92,4,16.14,16.14,0,0,1-2.92,2.69,5,5,0,0,1-2.78,1,2.61,2.61,0,0,1-2.29-.91,4.08,4.08,0,0,1-.63-2.36,8.54,8.54,0,0,1,1.07-3.34,24.17,24.17,0,0,1,3.43-4.89c.4-.46.83-.92,1.29-1.39h8.84Zm1.31-2.46h-7.81c.83-.75,1.71-1.51,2.68-2.29l.28-.21H250C249.58,184.66,249.16,185.49,248.74,186.32Zm-3.86-3.25a58.17,58.17,0,0,1,7.68-4.75c-.7,1.55-1.44,3.14-2.21,4.75Zm67.5-61.55a53.59,53.59,0,0,1,11.58-6A1.67,1.67,0,0,1,326,116c.75.81,1.15,1.89,2.15,2.55.61.4.23,1.17-.47,1.27-2.4.33-4.71,1.11-7.1,1.41A33.34,33.34,0,0,0,310.48,124a24.83,24.83,0,0,1-4.33,1.55c.28-.26.57-.51.88-.75s.64-.33.44-.67A36.27,36.27,0,0,0,312.38,121.52ZM322.81,134a6.2,6.2,0,0,1-2.85.41c-.72-.21-.6-.62-.36-1a8.12,8.12,0,0,0,1.09-1.89,17.58,17.58,0,0,0-2.81,1.79c-1.1-.75-2.14-1.58-3.18-2.4.13-.21.27-.42.39-.64s.58-.58.25-1-.83-.19-1.13,0l-1.06.48c-2.41-1.68-5-2-7.86-2.06a82.05,82.05,0,0,1,9.68-3.14c2.27-.56,3.84.57,5.37,1.89a6.53,6.53,0,0,1,1.66,2.48,5.94,5.94,0,0,0,3.08,3.28c-.07.18-.14.35-.2.53a.88.88,0,0,1-.26.35,3,3,0,0,0-.81.45,1.28,1.28,0,0,1-1.29.14Zm-24-12.17a26.14,26.14,0,0,1,2.58-3.46,3.57,3.57,0,0,0,.83-1.51c.21-.93.63-1.17,1.71-.95,1.66.34,3.43.49,5-.62.47-.33.54-.94.92-1.31s.44-.84.95-.65a1,1,0,0,1,.6,1.24,17.46,17.46,0,0,1-1.17,4.85,5.42,5.42,0,0,1-3.24,3.13c-1.74.6-3.39,1.4-5.1,2a48.26,48.26,0,0,1-7.29,2.29A14.35,14.35,0,0,0,298.78,121.79Zm3.76,11.61a9.09,9.09,0,0,0,2.74,2,3.83,3.83,0,0,1-1,.05A10.29,10.29,0,0,1,301,135,4.49,4.49,0,0,0,302.54,133.4Zm-.82-6.94a1.18,1.18,0,0,1,1-.68l.17,0c-.21.21-.41.42-.6.64C302.1,126.4,301.91,126.44,301.72,126.46Zm-10.51-4.15c.91.23,1.84.39,2.74.63,1.2.33,1.52.68.81,1.73a8.81,8.81,0,0,1-4.69,3.55,14.92,14.92,0,0,1-2.36.54C289.82,127.14,290.71,124.83,291.21,122.31Zm-3.08-1.4c.18.14.36.26.54.38l-1,.82a7.43,7.43,0,0,0,0-1.56A4.29,4.29,0,0,1,288.13,120.91Zm5.32,8.73a8.51,8.51,0,0,1,6.1.93,23.19,23.19,0,0,1-1.87,2.77,2,2,0,0,1-2.51.78c-2.93-.94-5.95-1.6-8.58-3.34a3.82,3.82,0,0,1-.47-.33A48.5,48.5,0,0,0,293.45,129.64Zm-10.69,1.19c1,.58,2,1.13,3,1.63a38.69,38.69,0,0,0,7.79,3.17c2.65.65,5.15,2,7.82,2.73.67.18.87.88,1,1.42a5,5,0,0,0,3.6,3.46c.38.13.75.28,1.11.44a36.46,36.46,0,0,1-6.54-.67s-1.38-.23-3.66-.79a13.52,13.52,0,0,1,1.66-.44,64,64,0,0,0-7.49-1.2c-2.22-.71-4.71-1.59-7.33-2.68-.32-.47-.64-.93-.95-1.43a30.28,30.28,0,0,0,7.81,2.1c.64.11,1.7.64,1.9-.07a.43.43,0,0,0-.22-.49c.5,0,1.1,0,1.13-.59s-.54-1-1.21-1.24c-2.46-.78-4.93-1.53-7.35-2.39a10.69,10.69,0,0,0-1-.36l-.13-.05a22.11,22.11,0,0,1-4.06-2.27A17.08,17.08,0,0,0,282.76,130.83Zm6.84,9.77a10,10,0,0,0-2.46.47,1.09,1.09,0,0,1-1.28-.28c-.56-.71-1.1-1.44-1.62-2.18C286.11,139.38,287.92,140,289.6,140.6ZM279,128.32c.41.31.82.62,1.22.9l-1.38.06A8.33,8.33,0,0,0,279,128.32Zm-.49-.36,0,0a3.13,3.13,0,0,1,0,.42c0-.11-.07-.22-.1-.33Zm-.31,6.07c.05-.21,0-.46.43-.61.56,1,1.13,2,1.68,2.94-.82-.39-1.65-.8-2.48-1.23A7.47,7.47,0,0,0,278.18,134Zm-.57,1.54c1,.5,1.94,1,2.89,1.42a.55.55,0,0,1-.2.35,4.34,4.34,0,0,0-1,1.25,12.52,12.52,0,0,0-2.7-.22l-.65-.28A14.24,14.24,0,0,0,277.61,135.57Zm-24.22,33.74a9.38,9.38,0,0,1-4.49,1.3,4.22,4.22,0,0,1-3.16-1.18,4.7,4.7,0,0,1-1.16-3.46,12.73,12.73,0,0,1,1.3-5.22,25.17,25.17,0,0,1,3.73-5.75,19.87,19.87,0,0,1,3.39-3.27,18.93,18.93,0,0,1,3.43-2.08,14.93,14.93,0,0,1,3.22-1.09,13.73,13.73,0,0,1,2.72-.32,4.79,4.79,0,0,1,1.83.32,4,4,0,0,1,1.27.79,3.6,3.6,0,0,1,.77,1,3.22,3.22,0,0,1,.35,1.09q-1.39,2-2.55,3.8c-.76,1.22-1.47,2.41-2.14,3.57s-1.31,2.32-1.94,3.48-1.24,2.34-1.88,3.53A23.85,23.85,0,0,1,253.39,169.31Zm22.84-13c-.56,1-.85,1.49-.88,1.51a46.49,46.49,0,0,1-3,4,33.26,33.26,0,0,1-3.46,3.59,43.63,43.63,0,0,1-4.35,3.41c-1.61,1.13-3.49,2.3-5.62,3.52q1.23-2.77,2.58-5.66c.91-1.92,1.8-3.79,2.68-5.59s1.72-3.51,2.53-5.12,1.52-3,2.13-4.2,1-2,1.36-2.66c1.31.2,3.81.32,5.29-1.41a13.49,13.49,0,0,0,2.89,4.94Q277.06,154.86,276.23,156.3Zm2-13.77c-.05.22-.09.44-.14.65-.18-.15-.33-.29-.4-.36a25,25,0,0,0-2.35-4l.27-.34,1.12.5a6.12,6.12,0,0,0,1.77,2.09C278.43,141.56,278.35,142.05,278.25,142.53Zm1.09,8.6a8.1,8.1,0,0,0-.52-5.84c.2-.07.38-.16.56-.24a9,9,0,0,0,1.6,3.47C280.4,149.43,279.85,150.31,279.34,151.13Zm3-4.68c-.75-.54-1.56-1.1-2.19-1.49a1.8,1.8,0,0,0-.19-.21,6.08,6.08,0,0,0,2.49-2.86,7.34,7.34,0,0,0,.86-.18,2.72,2.72,0,0,0-.46-1.07c0-.21.08-.4.34-.44.45-.08.58.35.81.61.41.47.8,1,1.19,1.45C284.19,143.62,283.25,145,282.32,146.45Zm6.48,1.13c-.13.55-.24,1-.33,1.52a10.15,10.15,0,0,1-3.37-.67,5.33,5.33,0,0,1-.11-1,5.14,5.14,0,0,1,.19-1.51,6.4,6.4,0,0,1,.46-1.11,7.36,7.36,0,0,1,.55-.85c.07-.1.12-.19.19-.28a10.31,10.31,0,0,0,2,1.8C289.31,146.12,289,146.91,288.8,147.58Zm5.72.11c-.4.25-.79,0-1.12-.28l-4.52-3.83c3,.62,5.08-.29,7.21-1.06,2.72.69,4.4,1,4.4,1a38.5,38.5,0,0,0,6.43.67,3.84,3.84,0,0,1,.5,2.56,5.93,5.93,0,0,0-3.53,1.27,12.16,12.16,0,0,0-2.95-.82C298.75,146.88,296.43,146.53,294.52,147.69Zm7.45,5.4a3.49,3.49,0,0,1-.53-.22,11.42,11.42,0,0,1-3.17-1.85,18.47,18.47,0,0,0,4.48-.44,3.19,3.19,0,0,0,2,.12S303.46,151.75,302,153.09Zm7.26,2.38a8.43,8.43,0,0,1-1.29-.55,9.16,9.16,0,0,0,1.33-.15C309.25,155,309.24,155.23,309.23,155.47Zm-1.41-8.18a5.13,5.13,0,0,0,0-2.3,7.55,7.55,0,0,1,4.08,4.83,7.47,7.47,0,0,0-1.75,2.14,19.63,19.63,0,0,0-3.84.07,4.16,4.16,0,0,0,.41-1.68,7.69,7.69,0,0,1,2.51.75c-.7-.48-1.39-.95-2.09-1.39A2.4,2.4,0,0,0,307.82,147.29Zm2.43-3.58c-1.11-1.09-2-2.36-3.13-3.44-.19-.18-.44-.38-.24-.6a.68.68,0,0,1,.55-.13c2.51.52,4.95.05,7.46.35,1.11.13,1.55.5,1.76,1.45a8,8,0,0,0,.75,2C315.5,143.52,312.94,143.67,310.25,143.71Zm12.6-.8-2.28.17h0a9.31,9.31,0,0,0-1.17-1.79c-.57-.69-.37-.91.49-.82,1.76.19,3.51.48,5.24.84a15.13,15.13,0,0,0-2.26,1.58Zm2.87-3.15a54.36,54.36,0,0,0-6.51-1.21c-.88-.1-1.76-.16-2.88-.25A11.8,11.8,0,0,0,317.8,137a3.12,3.12,0,0,1,.91-.83,19.17,19.17,0,0,1,2.14.23,5.66,5.66,0,0,0,2,0,1.12,1.12,0,0,0-.71-.85l1.78-.24a10.6,10.6,0,0,1,1.46,2.27s.28,1,.66,2.23ZM325,125c-.69-.87-1.73-.9-2.56-1.41a9.43,9.43,0,0,1-.94-.44,34.39,34.39,0,0,1,6-1.53.72.72,0,0,1,.76.54c.23.74.87.86,1.48,1,1,.16,1.95.22,2.93.45s1.81-.67,2.42-1.48c.48-.62.85-1.34,1.29-2a5,5,0,0,1,1-1.25c.42-.3,1.08-.63,1.5-.33s-.13.82-.23,1.24a14,14,0,0,1-1.34,3,4.48,4.48,0,0,0-.19,3.06c.08.34.22.72.51.83a17,17,0,0,1,2.28,1.17,9.22,9.22,0,0,0-4.16,4.19,2.48,2.48,0,0,1-.51.75c.24-.81.48-1.68.71-2.65,0,0-.9,1.43-2.12,3.21a4.94,4.94,0,0,1-.66,0,28,28,0,0,0-3,0c.08-.25-.11-.49-.28-.65l-.23-.25c1.95-2.2,3.16-4.65,5.27-6.51a1.06,1.06,0,0,0-1.24,0,26.37,26.37,0,0,0-6.25,3.24A26.91,26.91,0,0,0,325,125Zm2.47,10c1.77-.15,3.57-.24,5.38-.22-.49.7-1,1.4-1.51,2.06a8.79,8.79,0,0,0-3.46,2.26A12,12,0,0,0,327.46,135Zm1.29-1.65v0l.05,0Zm-1.3,9.28c0-.18.08-.42.12-.7.69.17,1.38.35,2.06.55Zm7.58.5a1,1,0,0,1-1.27,0l-.52-.37,2.53-.17.34-.05A7.26,7.26,0,0,0,335,143.09Zm1.19-1.13h0l-.51.09-3.14.2a12.64,12.64,0,0,0-1.65-.92c-.36-.16-.64-.44-.48-.67a3.47,3.47,0,0,0,1.38-.88c1.19-.86,2.14-1.95,3.35-2.78.29-.19.93-.24.71-.7s-.83-.28-1.26-.24l-.56.08c.18-.42.35-.86.53-1.35,1,.05,1.9.11,2.86.21,1.15.12,1.49.54,1.47,1.42a5.3,5.3,0,0,0,2.51,4.75.83.83,0,0,1,.27.26A31.8,31.8,0,0,0,336.22,142Zm10.71-.75c-.75.11-1.55.2-2.38.29a11.27,11.27,0,0,0-2.83-6,25.08,25.08,0,0,1,7.9,2.5,11,11,0,0,0,.33,2A6.09,6.09,0,0,0,346.93,141.21Zm5.68-1.15a11,11,0,0,0-1.95-.13,8.11,8.11,0,0,0,.6-1c.56.34,1.12.69,1.66,1.06Zm11.46,6.75h0c-.18-.09-.33-.2-.52-.29,0,0-4.12-1.31-8.54-2.53a2.89,2.89,0,0,0-.12-1.9c-.29-.76.05-1.17,1-.6a48.67,48.67,0,0,0,5.3,2.89,12.87,12.87,0,0,1,3.2,1.89c.34.28.53.54.52.76Z"/><polygon points="228.27 37.21 202.08 14.51 175.88 37.21 177.29 38.43 202.08 16.96 226.86 38.43 228.27 37.21"/><polygon points="202.08 36.52 207.15 32.12 202.08 27.72 197 32.12 202.08 36.52"/><path d="M117.84,214.12a3.37,3.37,0,0,0,.85.39,3.83,3.83,0,0,0,1.16.16,2.55,2.55,0,0,0,1.3-.29,1.84,1.84,0,0,0,.74-.86,4.43,4.43,0,0,0,.33-1.41c0-.55.08-1.18.08-1.89V204.8h1v5.42a21.2,21.2,0,0,1-.11,2.21,5.08,5.08,0,0,1-.48,1.7,2.53,2.53,0,0,1-1.05,1.1,3.78,3.78,0,0,1-1.86.39,4,4,0,0,1-2.31-.66Z"/><path d="M133.19,214.52v.93H126V204.8h7v.93h-6v3.84h5.21v.89h-5.21v4.06Z"/><path d="M139.32,204.88h1l1.5,3.78,1.52-3.78h1l-1.86,4.54,2,4.82,3.86-9.44h1.14L145,215.45h-.93l-2.23-5.26-2.25,5.26h-.92l-4.5-10.65h1.13l3.87,9.44,2-4.82Z"/><path d="M158.31,214.52v.93h-7.15V204.8h7v.93h-6v3.84h5.2v.89h-5.2v4.06Z"/><path d="M160.44,215.45V204.8h1.05v9.72h6.15v.93Z"/><path d="M169.34,215.45V204.8h4.5a2.85,2.85,0,0,1,1.27.29,3.39,3.39,0,0,1,1,.77,3.55,3.55,0,0,1,.66,1.07,3.47,3.47,0,0,1,.23,1.22,3.68,3.68,0,0,1-.17,1.11,3.6,3.6,0,0,1-.48,1,2.85,2.85,0,0,1-.75.72,2.53,2.53,0,0,1-1,.4l2.61,4.11H176l-2.5-3.93h-3.15v3.93Zm1-4.86h3.48a1.87,1.87,0,0,0,.85-.2,2.14,2.14,0,0,0,.65-.55,2.66,2.66,0,0,0,.42-.78,2.76,2.76,0,0,0,.15-.91,2.69,2.69,0,0,0-.17-.93,2.61,2.61,0,0,0-.47-.77,2.1,2.1,0,0,0-.69-.52,1.85,1.85,0,0,0-.83-.2h-3.39Z"/><path d="M179,204.8l3.48,5.73L186,204.8h1.14L183,211.49v4H182v-4l-4.11-6.66Z"/><path d="M199.13,204.8H200l4.43,10.65h-1.11L202,212.12h-4.79l-1.36,3.33h-1.13Zm2.58,6.5L199.56,206l-2.17,5.27Z"/><path d="M207.17,206.75v8.7h-1V204.8h.81l7,8.87v-8.85H215v10.63h-.92Z"/><path d="M217.85,215.45V204.8h3.61a5.48,5.48,0,0,1,2.23.42,4.44,4.44,0,0,1,1.59,1.14,4.63,4.63,0,0,1,1,1.69,6.31,6.31,0,0,1,.32,2.06,6.64,6.64,0,0,1-.35,2.2,5.1,5.1,0,0,1-1,1.68,4.75,4.75,0,0,1-1.61,1.08,5.59,5.59,0,0,1-2.11.38Zm7.66-5.34a5.75,5.75,0,0,0-.26-1.76,4.2,4.2,0,0,0-.79-1.39,3.65,3.65,0,0,0-1.27-.91,4.45,4.45,0,0,0-1.73-.32H218.9v8.79h2.56a4.17,4.17,0,0,0,1.75-.34,3.41,3.41,0,0,0,1.27-.93,3.93,3.93,0,0,0,.77-1.39A5.49,5.49,0,0,0,225.51,210.11Z"/><path d="M236.67,215.45V204.8h3.62a5.51,5.51,0,0,1,2.23.42,4.62,4.62,0,0,1,1.59,1.14,4.93,4.93,0,0,1,1,1.69,6.58,6.58,0,0,1,.32,2.06,6.39,6.39,0,0,1-.36,2.2,4.79,4.79,0,0,1-1,1.68,4.71,4.71,0,0,1-1.6,1.08,5.66,5.66,0,0,1-2.11.38Zm7.67-5.34a5.46,5.46,0,0,0-.27-1.76,3.88,3.88,0,0,0-.79-1.39,3.56,3.56,0,0,0-1.27-.91,4.4,4.4,0,0,0-1.72-.32h-2.57v8.79h2.57a4.2,4.2,0,0,0,1.75-.34,3.45,3.45,0,0,0,1.26-.93,4.11,4.11,0,0,0,.78-1.39A5.78,5.78,0,0,0,244.34,210.11Z"/><path d="M254.7,214.52v.93h-7.15V204.8h7v.93h-6v3.84h5.2v.89h-5.2v4.06Z"/><path d="M255.9,210.05a5.79,5.79,0,0,1,.34-1.91,5.32,5.32,0,0,1,1-1.7,5.14,5.14,0,0,1,1.59-1.23,4.82,4.82,0,0,1,2.15-.47,4.46,4.46,0,0,1,2.44.65,4,4,0,0,1,1.49,1.68l-.83.51a3.07,3.07,0,0,0-.62-.89,3.34,3.34,0,0,0-.79-.58,3.54,3.54,0,0,0-.87-.33,4.46,4.46,0,0,0-.88-.09,3.58,3.58,0,0,0-1.7.39,3.82,3.82,0,0,0-1.23,1,4.38,4.38,0,0,0-.76,1.41,5.2,5.2,0,0,0-.26,1.6,4.88,4.88,0,0,0,.31,1.7,5.08,5.08,0,0,0,.84,1.43,4.32,4.32,0,0,0,1.26,1,3.53,3.53,0,0,0,1.58.37,3.83,3.83,0,0,0,.93-.12,3.2,3.2,0,0,0,.91-.36,3.72,3.72,0,0,0,.82-.61,3.24,3.24,0,0,0,.63-.89l.87.45a3.17,3.17,0,0,1-.72,1.05,4.64,4.64,0,0,1-1,.78,5.19,5.19,0,0,1-1.2.48,5.06,5.06,0,0,1-1.26.16,4.26,4.26,0,0,1-2-.48,5.32,5.32,0,0,1-1.57-1.25,6,6,0,0,1-1-1.76A5.76,5.76,0,0,1,255.9,210.05Z"/><path d="M271.23,215.53a4.58,4.58,0,0,1-2-.46,5.11,5.11,0,0,1-1.58-1.22,5.46,5.46,0,0,1-1-1.73,5.67,5.67,0,0,1,0-4,5.75,5.75,0,0,1,1.06-1.73,5,5,0,0,1,1.59-1.19,4.42,4.42,0,0,1,2-.44,4.31,4.31,0,0,1,2,.47,5.06,5.06,0,0,1,1.58,1.24,5.74,5.74,0,0,1,1,1.73,5.58,5.58,0,0,1,.36,2,5.64,5.64,0,0,1-.38,2,5.88,5.88,0,0,1-1.05,1.72,5.15,5.15,0,0,1-1.59,1.18A4.43,4.43,0,0,1,271.23,215.53Zm-3.94-5.4a5,5,0,0,0,.28,1.67,4.53,4.53,0,0,0,.81,1.42,3.86,3.86,0,0,0,1.25,1,3.4,3.4,0,0,0,1.6.37,3.45,3.45,0,0,0,1.64-.39,4,4,0,0,0,1.24-1,4.59,4.59,0,0,0,.79-1.42,4.76,4.76,0,0,0,.28-1.62,5,5,0,0,0-.29-1.68,4.7,4.7,0,0,0-.82-1.41,4.15,4.15,0,0,0-1.25-1,3.51,3.51,0,0,0-1.59-.36,3.41,3.41,0,0,0-1.63.38,3.84,3.84,0,0,0-1.25,1,4.62,4.62,0,0,0-.78,1.43A4.76,4.76,0,0,0,267.29,210.13Z"/><path d="M278.36,215.45V204.8h4.5a2.85,2.85,0,0,1,1.27.29,3.39,3.39,0,0,1,1,.77,3.55,3.55,0,0,1,.66,1.07,3.47,3.47,0,0,1,.23,1.22,3.68,3.68,0,0,1-.17,1.11,3.6,3.6,0,0,1-.48,1,2.85,2.85,0,0,1-.75.72,2.53,2.53,0,0,1-1,.4l2.61,4.11h-1.19l-2.5-3.93h-3.15v3.93Zm1.05-4.86h3.48a1.87,1.87,0,0,0,.85-.2,2.14,2.14,0,0,0,.65-.55,2.66,2.66,0,0,0,.42-.78,2.76,2.76,0,0,0,.15-.91,2.69,2.69,0,0,0-.17-.93,2.61,2.61,0,0,0-.47-.77,2.1,2.1,0,0,0-.69-.52,1.85,1.85,0,0,0-.83-.2h-3.39Z"/></svg>